<?xml version="1.0" standalone="no"?>
<!DOCTYPE svg PUBLIC "-//W3C//DTD SVG 1.1//EN" "http://www.w3.org/Graphics/SVG/1.1/DTD/svg11.dtd" >
<svg xmlns="http://www.w3.org/2000/svg">
<metadata>
This is a custom SVG webfont generated by Font Squirrel.
Copyright   : Linux Libertine by Philipp H Poll Open Font under Terms of following Free Software LicensesGPL General Public License with fontexception and OFL Open Font LicenseCreated with FontForge httpfontforgesfnet Sept 2003 2004 2005 2006 2007 2008
Designer    : Philipp H Poll
Foundry     : Philipp H Poll
Foundry URL : httplinuxlibertinesfnet
</metadata>
<defs>
<font id="webfonte6yyOEOe" horiz-adv-x="897" >
<font-face units-per-em="2048" ascent="1638" descent="-410" />
<missing-glyph horiz-adv-x="512" />
<glyph unicode=" "  horiz-adv-x="512" />
<glyph unicode="&#x09;" horiz-adv-x="512" />
<glyph unicode="&#xa0;" horiz-adv-x="512" />
<glyph unicode="!" horiz-adv-x="669" d="M178 63q0 2 1 8.5t1 10.5q10 45 47 76.5t82 31.5q39 0 65.5 -25.5t26.5 -64.5q0 -2 -1 -8t-1 -10q-8 -45 -46 -77t-83 -32q-39 0 -65.5 25.5t-26.5 64.5zM324 426v4q31 311 36 385q6 82 7 139q0 16 -1 46t-1 44q0 90 14 168q14 76 55 113t82 37q39 0 65.5 -28.5 t26.5 -82.5q0 -25 -4 -39q-8 -78 -57 -210t-66 -187q-59 -199 -96 -371q-10 -41 -37 -41q-24 0 -24 23z" />
<glyph unicode="&#x22;" horiz-adv-x="688" d="M336 872q4 326 6 345q6 37 43 69.5t82 32.5q59 0 59 -53q0 -10 -2 -15l-133 -370zM596 874q4 326 6 345q6 37 43 69.5t80 32.5q59 0 59 -53v-15l-133 -370z" />
<glyph unicode="#" d="M115 375l32 98h187l74 225h-185l33 101h186l115 348h70l-117 -348h225l117 348h68l-117 -348h184l-33 -101h-184l-76 -225h185l-31 -98h-184l-119 -348h-68l117 348h-225l-117 -348h-68l115 348h-184zM401 473h228l73 225h-225z" />
<glyph unicode="$" d="M104 -8q14 78 27 301l55 6q8 -102 63.5 -175t151.5 -85l97 496q-55 27 -92 50t-83.5 65t-64.5 100.5t-4 130.5q25 123 135.5 196.5t231.5 85.5l22 115h70l-23 -113q39 -2 94 -7l79 -7q24 -2 63 0q-12 -78 -17 -293l-55 -8l-4 37q-10 104 -50 157.5t-120 61.5l-86 -438 q322 -127 278 -351q-6 -29 -16 -60.5t-40 -83.5t-72 -91t-116.5 -70.5t-168.5 -38.5l-27 -141h-70l29 141q-63 4 -128.5 24.5t-80.5 20.5l-4 -4q-14 0 -32.5 -11t-41.5 -11zM397 897q-23 -115 142 -199l79 408q-78 -12 -140.5 -67.5t-80.5 -141.5zM475 43q80 12 150.5 63.5 t91.5 151.5q6 66 2 104.5t-34 71.5t-54.5 47.5t-59.5 30.5z" />
<glyph unicode="%" horiz-adv-x="1304" d="M209 -10l876 1028q-94 -39 -211 -39q-92 0 -165 43q6 -25 6 -51q0 -119 -72 -241t-188 -122q-90 0 -138.5 67.5t-48.5 155.5q0 121 81 223.5t190 102.5q92 0 135 -51q111 -51 219 -51q205 0 307 110l68 -43l-983 -1151zM373 803q0 -72 28.5 -103.5t65.5 -31.5 q78 0 131 100t53 201q0 68 -28.5 95.5t-63.5 27.5q-70 0 -128 -97.5t-58 -191.5zM795 186q0 121 79.5 223.5t190.5 102.5q74 0 124 -43t50 -143q0 -123 -71.5 -244t-188.5 -121q-88 0 -136 68.5t-48 156.5zM899 158q0 -72 28.5 -105t63.5 -33q80 0 133.5 101.5t53.5 200.5 q0 49 -18.5 78.5t-37 37.5t-37.5 8q-72 0 -129 -97t-57 -191z" />
<glyph unicode="&#x26;" horiz-adv-x="1443" d="M141 248q0 156 107.5 276.5t353.5 247.5q-55 137 -55 227q0 139 108.5 229.5t255.5 90.5q98 0 161 -49t63 -131q0 -102 -108.5 -200.5t-258.5 -176.5q4 -6 15.5 -33l25.5 -57.5t54 -106.5l98 -176q276 324 276 399q0 23 -25 23h-59q-10 0 -6 14l6 35l4 4q106 -4 176 -4 l180 4l3 -4l-7 -33q-2 -16 -20 -16h-57q-31 0 -58.5 -17.5t-62.5 -60.5t-70 -93l-102 -142q-68 -92 -140 -179l54 -92q78 -135 133 -135q96 0 178 117l27 -16q-51 -104 -116 -157.5t-122 -53.5q-123 0 -209 141l-47 78q-199 -219 -418 -219q-156 0 -247 64.5t-91 201.5z M303 250q0 -102 56.5 -150.5t146.5 -48.5q100 0 173 50.5t179 168.5q-199 346 -221 426q-63 -31 -108.5 -60.5t-103.5 -83.5t-90 -131t-32 -171zM696 1032q0 -61 41 -188q262 156 262 299q0 106 -110 106q-66 0 -129.5 -64.5t-63.5 -152.5z" />
<glyph unicode="'" horiz-adv-x="389" d="M315 872q6 326 9 345q6 37 42.5 69.5t79.5 32.5q59 0 60 -53v-15l-133 -370z" />
<glyph unicode="(" horiz-adv-x="604" d="M164 315q0 111 16 201q43 262 211 514q174 258 389 418l31 -37q-188 -174 -305 -403q-121 -231 -166 -492q-27 -156 -27 -280q0 -113 19 -213q37 -229 162 -406l-43 -35q-172 178 -242 418q-45 161 -45 315z" />
<glyph unicode=")" horiz-adv-x="638" d="M47 -381q188 176 305 406q121 231 166 491q27 156 27 281q0 109 -19 213q-37 229 -161 405l43 35q172 -178 241 -418q45 -162 45 -315q0 -111 -16 -201q-47 -272 -211 -516q-168 -252 -389 -416z" />
<glyph unicode="*" horiz-adv-x="886" d="M373 1233v12q6 25 25.5 43.5t52.5 18.5q39 0 92 -45t88 -60v23q0 31 -9.5 78t-9.5 65q0 4 1 11t1 12q6 33 29 56t49 23q55 0 56 -55v-16q-6 -29 -37 -99.5t-39 -99.5q41 16 108.5 61.5t106.5 45.5q57 0 57 -54v-8q-12 -76 -153 -76q-63 0 -113 -8q16 -25 77.5 -74 t61.5 -88q0 -10 -2 -16q-4 -27 -25.5 -43t-44.5 -16q-35 0 -53 32.5t-30.5 93t-24.5 87.5q-20 -27 -56 -90.5t-62.5 -93t-61.5 -29.5q-23 0 -37 14t-14 35v8q8 39 38.5 65.5t83 57.5t82.5 57q-33 8 -86 8q-151 1 -151 64z" />
<glyph unicode="+" horiz-adv-x="1079" d="M211 424l16 100h357l61 357h100l-61 -357h354l-18 -100h-354l-64 -354h-100l63 354h-354z" />
<glyph unicode="," horiz-adv-x="448" d="M45 -223q80 18 147.5 75.5t67.5 102.5q0 16 -10 27.5t-21.5 15.5t-31.5 10q-70 18 -70 84q0 45 36 74t85 29t79.5 -36t30.5 -96q0 -63 -22.5 -125.5t-92 -125t-180.5 -82.5q-24 18 -18 47z" />
<glyph unicode="-" horiz-adv-x="681" d="M158 512q2 4 2 6q4 25 25.5 50.5t37.5 25.5h469q23 0 23 -25v-12q-4 -18 -26.5 -46t-41.5 -28h-465q-24 0 -24 29z" />
<glyph unicode="." horiz-adv-x="503" d="M129 72q0 45 37 84t90 39q41 0 67.5 -26t26.5 -65q0 -47 -38 -87t-89 -40q-39 0 -66.5 28t-27.5 67z" />
<glyph unicode="/" horiz-adv-x="595" d="M0 -43l739 1440h84l-737 -1440h-86z" />
<glyph unicode="0" d="M182 385q0 90 19 184q53 276 197.5 445.5t293.5 169.5q135 0 211 -135q61 -106 62 -267q0 -94 -21 -194q-31 -162 -92 -286t-133 -192.5t-139.5 -101.5t-128.5 -33q-127 0 -198 115t-71 295zM326 299q0 -256 139 -256q25 0 55.5 10t77.5 54.5t80 117.5q57 123 99 310.5 t42 312.5q0 170 -59 233q-27 31 -80 31q-39 0 -77 -22.5t-84 -79t-90 -174t-77 -287.5q-26 -148 -26 -250z" />
<glyph unicode="1" d="M250 -2l6 45q10 16 20 16h121q53 0 70.5 20.5t28.5 74.5l137 704q6 27 6 66q0 47 -31 47q-129 0 -188 -29l-6 66q90 25 161.5 54.5t113.5 53t114 68.5h39l-201 -1030q0 -8 -3 -25.5t-3 -24.5q0 -27 14.5 -36t50.5 -9h109q18 0 12 -16l-8 -45l-281 4z" />
<glyph unicode="2" d="M117 0q16 96 71.5 179t212.5 218l174 150q72 61 115 106t81 121t38 156q0 90 -51 140t-107 50q-96 0 -145 -38t-57 -85q-2 -8 -3 -47q4 -29 0 -45q-6 -37 -32.5 -55.5t-55 -18.5t-47 17.5t-18.5 44.5q0 10 2 14q18 100 125.5 188.5t257.5 88.5q119 0 205 -58.5t86 -179.5 q0 -63 -24.5 -123.5t-73 -115t-81 -85t-85.5 -73.5l-232 -189l-16 -16l-35 -31q-18 -16 -42 -43l-43 -50q-19 -24 -35.5 -51.5t-20.5 -49.5h346q53 0 90 31.5t74 115.5l51 -8l-92 -258h-633z" />
<glyph unicode="3" d="M111 94q0 29 26.5 52.5t57 23.5t49 -20.5t28 -45t42 -45t87.5 -20.5q111 0 221.5 114.5t110.5 282.5q0 182 -221 182q-16 0 -66 -8l3 62q115 18 222 114.5t107 202.5q0 63 -39 97t-98 34q-57 0 -127 -35.5t-86 -117.5q-6 -35 -28.5 -68t-57.5 -33q-47 0 -47 54 q0 72 103.5 168t295.5 96q117 0 169 -51.5t52 -120.5q0 -170 -237 -305q86 -12 148.5 -72t62.5 -168q0 -186 -146.5 -339t-377.5 -153q-90 0 -172 34t-82 85z" />
<glyph unicode="4" d="M143 391v4q0 2 4 6q109 100 301.5 357.5t290.5 415.5q8 10 19 10l12 -4q10 -6 26.5 -11.5t26.5 -7.5q-184 -324 -538 -751h323l66 317q4 29 26 41q57 35 99 35q23 0 22 -25q0 -14 -6 -39l-70 -329h168l-30 -97h-156l-37 -170q-4 -33 -4 -41q0 -45 57 -45h54q18 0 12 -14 l-8 -45q-133 4 -217 4l-199 -4l8 45q0 14 17 14h57q45 0 60.5 18.5t25.5 67.5l37 170h-404q-8 0 -14 13l-12 22z" />
<glyph unicode="5" d="M127 111q0 29 23.5 52t58.5 23q27 0 49.5 -22.5t36.5 -48t47 -48t80 -22.5q127 0 208 109.5t81 265.5q0 113 -54.5 177.5t-136.5 64.5q-133 0 -256 -48l174 560q113 -10 207 -11q135 0 326 21l10 -6l-57 -134q-102 -10 -205 -10q-92 0 -232 17l-100 -324q84 31 203 31 q131 0 202.5 -92.5t71.5 -223.5q0 -182 -125 -324.5t-336 -142.5q-90 0 -183 41.5t-93 94.5z" />
<glyph unicode="6" d="M168 307q0 35 3 72t20.5 118t49 154.5t96 165.5t152.5 168q217 184 510 199l-4 -64q-231 -20 -374 -139q-182 -150 -263 -387q43 41 121 70.5t137 29.5q84 0 143.5 -24.5t88.5 -66.5t40 -84t11 -89q0 -70 -25.5 -145.5t-75.5 -146t-136.5 -117t-194.5 -46.5 q-53 0 -101.5 15.5t-95.5 49.5t-74.5 102.5t-27.5 164.5zM311 301q0 -141 56.5 -203.5t132.5 -62.5q111 0 179.5 120.5t68.5 250.5q0 223 -185 223q-119 0 -221 -92q-31 -119 -31 -236z" />
<glyph unicode="7" d="M236 -12l641 1052h-367q-66 0 -102.5 -29.5t-83.5 -111.5l-54 8q72 150 105 277h45q0 -23 55 -23h391q111 0 152 13l26 -15q-367 -606 -671 -1177l-133 -7z" />
<glyph unicode="8" d="M139 211q0 78 27 141.5t82 116.5t98 84t117 76l-29 22q-129 102 -129 213q0 131 106.5 225.5t270.5 94.5q123 0 197.5 -60.5t74.5 -150.5t-66.5 -155.5t-217.5 -155.5l102 -72q104 -74 105 -213q0 -150 -117 -276t-307 -126q-139 0 -226.5 61.5t-87.5 174.5zM266 227 q0 -92 65.5 -143t137.5 -51q121 0 192.5 84t71.5 202q0 121 -123 209l-84 60q-111 -66 -185.5 -162.5t-74.5 -198.5zM449 922q0 -96 110 -179l51 -38q96 61 147.5 115t61.5 83t10 64q0 63 -46 115.5t-121 52.5q-92 0 -152.5 -65.5t-60.5 -147.5z" />
<glyph unicode="9" d="M115 -25l4 64q231 20 375 139q182 150 262 387q-43 -41 -121 -70.5t-137 -29.5q-84 0 -143.5 24.5t-88 66.5t-40 84t-11.5 89q0 70 25.5 145.5t76 146.5t136.5 117t194 46q53 0 101.5 -15.5t95.5 -49.5t74.5 -102.5t27.5 -164.5q0 -35 -3 -72t-20.5 -117.5t-49 -154.5 t-96 -166t-152.5 -168q-217 -185 -510 -199zM367 754q0 -223 184 -224q119 0 221 93q31 119 31 235q0 141 -56.5 203.5t-132.5 62.5q-111 0 -179 -120.5t-68 -249.5z" />
<glyph unicode=":" horiz-adv-x="448" d="M164 174q0 45 37 84t90 39q41 0 67.5 -25.5t26.5 -64.5q0 -47 -38 -87t-89 -40q-41 0 -67.5 27.5t-26.5 66.5zM258 711q0 45 37 84t90 39q41 0 67.5 -26t26.5 -65q0 -47 -38 -87t-89 -40q-41 0 -67.5 28t-26.5 67z" />
<glyph unicode=";" horiz-adv-x="448" d="M63 -223q80 18 148 75.5t68 102.5q0 16 -10.5 27.5t-21.5 15.5t-32 10q-70 18 -70 84q0 45 36 74t85 29t80 -36t31 -96q0 -63 -22.5 -125.5t-92 -125t-180.5 -82.5q-25 18 -19 47zM256 711q0 45 37 84t90 39q41 0 67.5 -26t26.5 -65q0 -47 -38 -87t-89 -40 q-39 0 -66.5 28t-27.5 67z" />
<glyph unicode="&#x3c;" horiz-adv-x="997" d="M178 440l17 99l849 288l-18 -102l-690 -236l606 -237l-16 -102z" />
<glyph unicode="=" horiz-adv-x="1079" d="M186 295l19 100h811l-19 -100h-811zM231 551l19 100h811l-19 -100h-811z" />
<glyph unicode="&#x3e;" horiz-adv-x="997" d="M127 145l16 103l691 235l-607 238l19 102l747 -291l-16 -98z" />
<glyph unicode="?" horiz-adv-x="829" d="M299 1065q0 92 106.5 188.5t286.5 96.5q139 0 221 -66.5t82 -179.5q0 -82 -33.5 -150.5t-87 -115.5t-107.5 -84l-105 -73q-51 -36 -70 -65q-53 -74 -66 -149l-14 -90q-2 -20 -31 -21q-12 0 -18 5.5t-4 15.5l16 94q18 106 62.5 183t93.5 119l96 82q47 40 78 95.5t31 134.5 q0 84 -49.5 143.5t-124.5 59.5q-98 0 -155.5 -42t-57.5 -93q0 -18 10 -35q6 -12 6 -28q0 -35 -25.5 -64t-70.5 -29q-70 0 -70 68zM338 72q0 45 37 84t90 39q41 0 67.5 -26t26.5 -65q0 -47 -38 -87t-89 -40q-39 0 -66.5 28t-27.5 67z" />
<glyph unicode="@" horiz-adv-x="1697" d="M207 457q47 217 190.5 399t346 288.5t413.5 106.5q305 0 464 -192.5t97 -480.5q-20 -94 -67 -181.5t-125 -166t-199 -127t-268 -48.5q-37 0 -47.5 27t-1.5 57q8 37 55 129l-4 2q-82 -106 -162 -158.5t-135 -52.5q-88 0 -135 48.5t-48 104.5t3 101q45 211 221 369t336 158 q47 0 84 -24.5t43 -63.5l20 49l107 26l24 -10l-225 -528q-49 -123 -53 -137q-4 -25 14 -25q158 0 258 97.5t152 338.5q31 158 3 275.5t-99.5 195.5t-160.5 117t-184 39q-242 0 -463 -179.5t-294 -516.5q-20 -98 -23.5 -196.5t22 -200t79 -178.5t155.5 -126t244 -49 q225 0 411 135l19 -37q-119 -82 -226.5 -124t-254.5 -42q-334 0 -495 223.5t-91 557.5zM727 332q-39 -188 109 -189q49 0 127.5 77t146.5 190q90 154 111 237q12 57 -17.5 93t-81.5 36q-96 0 -188 -82q-160 -137 -207 -362z" />
<glyph unicode="A" horiz-adv-x="1392" d="M4 0l8 41q4 16 19 16q72 4 120 36t103 126l659 1118q25 45 42.5 61.5t39.5 16.5q20 0 27.5 -15.5t13.5 -49.5l193 -1166q8 -63 36.5 -90.5t88.5 -34.5l20 -2q20 0 17 -16l-9 -41l-4 -4q-143 4 -233 4q-117 0 -268 -4l-3 4l9 41q6 16 18 16l57 4q102 8 103 74q0 12 -2 21 l-51 362h-418q-59 0 -78 -37l-176 -311h-2q-14 -23 -15 -49q0 -53 78 -60l56 -4q16 0 12 -16l-6 -41l-6 -4q-143 4 -260 4q-35 0 -187 -4zM592 625q0 -16 47 -17h348l-84 576h-4l-303 -547q-4 -8 -4 -12z" />
<glyph unicode="B" horiz-adv-x="1163" d="M33 0l8 41h-2q4 16 18 16l60 4q66 4 88 20.5t33 72.5l204 1081q6 23 7 39q0 29 -18.5 38t-74.5 13l-57 4q-12 0 -12 14l8 43l6 5q188 -4 252 -5q43 0 127 2.5t119 2.5q375 0 375 -250q0 -31 -9 -80q-14 -84 -83.5 -163t-155.5 -120v-4q240 -80 239 -299q0 -51 -6 -80 q-14 -76 -51 -141.5t-101.5 -125.5t-175 -96t-251.5 -36q-102 0 -181.5 2t-105.5 2q-68 0 -256 -4zM401 137q0 -37 32 -52t120 -15q211 0 303 74.5t117 209.5q6 29 6 80q0 127 -83 204t-251 77h-137l-102 -547q-5 -21 -5 -31zM520 784h148q289 0 338 248q8 57 8 78 q0 109 -63.5 159t-151.5 50q-86 0 -126 -10.5t-49.5 -25.5t-17.5 -56z" />
<glyph unicode="C" horiz-adv-x="1286" d="M186 516q0 82 15 160q59 311 290.5 524t487.5 213q109 0 188.5 -22.5t134 -47t97.5 -26.5q-14 -141 -19 -334l-59 -8q-35 358 -379 358q-63 0 -143 -36.5t-164 -106.5t-153.5 -195t-98.5 -278q-16 -82 -16 -182q0 -201 89 -334t265 -133q141 0 261 54t249 179 q29 0 39 -33q-260 -291 -563 -291v-4q-258 0 -389.5 155t-131.5 388z" />
<glyph unicode="D" horiz-adv-x="1392" d="M33 -2l6 39l-2 -2q4 18 20 18l60 4q55 4 84.5 25.5t38.5 73.5l202 1071q4 14 4 37q0 31 -19 42t-73 15l-53 4q-18 0 -14 16l6 41l6 4q188 -4 252 -4q35 0 146.5 2t181.5 2q250 0 409.5 -165.5t159.5 -415.5q0 -72 -12 -146q-29 -152 -93.5 -271.5t-143.5 -192 t-177 -119.5t-187.5 -64.5t-181.5 -17.5q-119 0 -228.5 2t-131.5 2q-68 0 -256 -4zM399 127q0 -35 41 -47t166 -12q532 0 635 540q18 98 19 197q0 223 -112 368.5t-355 145.5q-84 0 -129.5 -16.5t-55.5 -67.5l-205 -1077v-2q-4 -25 -4 -29z" />
<glyph unicode="E" horiz-adv-x="1099" d="M23 0l8 43q4 14 18 14l62 4q59 4 85.5 26t34.5 69l203 1073q4 20 4 28q0 61 -90 68l-57 4q-16 0 -12 14l8 43l4 5q188 -4 252 -5h508q49 0 96 9q8 0 8 -6l2 -3q0 -135 -16 -311l-60 -10q-14 127 -49 180t-137 53h-209q-76 0 -88 -71l-84 -453h254q51 0 77.5 21.5 t39.5 68.5l16 54q4 18 19 18h43l6 -8q-33 -127 -43 -195q-18 -94 -27 -186l-10 -6h-45q-16 0 -10 16l4 53v21q0 35 -19.5 48t-68.5 13h-254l-103 -538q-2 -10 -2 -23q0 -47 62 -47h272q197 0 324 283l61 -13l-143 -358q-158 4 -254 4h-430q-68 0 -256 -4z" />
<glyph unicode="F" horiz-adv-x="954" d="M25 -2l8 41q4 16 20 16l53 4q63 6 90 29t35 70l203 1069q4 25 4 30q0 61 -88 68l-57 4q-16 0 -12 14l8 43l4 5q188 -4 252 -5h510q47 0 96 9q6 0 6 -6q0 -76 -16 -312l-60 -10q-14 127 -49 180t-137 53h-209q-76 0 -88 -71l-84 -453h254q51 0 77.5 21.5t39.5 68.5l16 54 q4 18 19 18h43l6 -8q-33 -127 -43 -195q-18 -92 -27 -186l-10 -6h-45q-16 0 -10 16l4 53v21q0 35 -19.5 48t-68.5 13l-256 -2l-101 -534q-2 -12 -2 -29q0 -61 96 -70l50 -4q18 0 14 -16l-8 -41l-4 -4q-188 4 -256 4q-66 0 -254 -4z" />
<glyph unicode="G" horiz-adv-x="1386" d="M176 522q0 80 12 137q63 340 309 548t521 208l2 -4q137 0 256 -48t164 -48q-18 -201 -19 -332l-63 -12q-14 164 -98 262t-283 98q-207 0 -379 -177t-225 -456q-14 -72 -15 -127q0 -133 45.5 -247.5t147.5 -192.5t248 -78q190 0 313 105l62 327q4 25 4 29q0 33 -21.5 46 t-75.5 18l-49 6q-16 0 -12 16l10 55l4 4q188 -4 252 -4q68 0 187 4l4 -4l-11 -55q-2 -12 -20 -16q-49 -6 -72.5 -24.5t-34.5 -72.5l-49 -247q-1 -6 -1 -12q0 -26 24 -50q-260 -201 -574 -201q-258 0 -410.5 154.5t-152.5 390.5z" />
<glyph unicode="H" horiz-adv-x="1400" d="M33 -6l8 41q4 16 18 16l54 4q61 6 88.5 26.5t36.5 65.5l204 1082q2 10 2 26q0 59 -96 68l-51 4q-16 0 -12 16l6 41l6 5q197 -4 252 -5q57 0 258 5l4 -5l-8 -41q-4 -16 -19 -16l-53 -4q-61 -6 -90 -25.5t-37 -64.5l-86 -455h653l86 455q4 20 5 27q0 57 -95 65l-51 4 q-20 0 -14 17l8 40l4 5q201 -4 256 -4.5t256 4.5l4 -5l-8 -40q-6 -16 -20 -17l-54 -4q-61 -4 -89.5 -24.5t-37.5 -65.5l-202 -1075q-2 -12 -2 -29q0 -61 96 -70l51 -4q18 0 14 -16l-8 -41l-4 -4q-201 4 -254 4q-57 0 -258 -4l-2 4l6 41q4 16 21 16l53 4q63 6 91 29t36 70 l98 526h-653l-103 -534q-2 -12 -2 -29q0 -33 22.5 -48.5t74.5 -19.5l49 -4q16 0 12 -16l-6 -41l-6 -4q-197 4 -254 4q-51 0 -256 -4z" />
<glyph unicode="I" horiz-adv-x="585" d="M47 57l66 9q63 6 91.5 28.5t37.5 69.5l202 1059q3 16 4 29q0 27 -14 42q-20 23 -82 29l-69 6q-4 8 -1 31.5t7 30.5q184 -4 264 -5q63 0 252 5q5 -11 4 -25v-10q-2 -20 -8 -27l-66 -6q-115 -10 -129 -100l-203 -1059q-3 -16 -3 -30q0 -27 14 -42q20 -23 82 -26l69 -9 q4 -8 1 -31.5t-7 -29.5q-184 4 -264 4q-63 0 -252 -4q-5 11 -5 25q0 27 9 36z" />
<glyph unicode="J" horiz-adv-x="864" d="M66 -303q0 31 20 58.5t57 27.5q66 0 99 -49q10 -16 17 -40t14.5 -36t21.5 -12q203 0 299 581l68 422l-256 21v43l268 14l6 27q27 166 52.5 259t76.5 206l-2 10q-10 -8 -35 -8q-43 0 -110 26q-25 10 -80.5 38t-92 40t-77.5 12q-33 0 -55.5 -19.5t-22.5 -39.5 q0 -8 33.5 -41t33.5 -66q0 -66 -69 -65q-78 0 -78 94q0 80 70.5 152.5t207.5 72.5q86 0 310 -106q8 49 39.5 93t76.5 44q78 0 78 -61q0 -57 -127 -148q-59 -365 -59 -473q0 -33 19.5 -43t76.5 -14l-6 -55l-111 -11l-61 -377q-113 -705 -502 -704q-78 0 -139 36t-61 91z" />
<glyph unicode="K" horiz-adv-x="1331" d="M47 57l66 9q63 6 91.5 28.5t37.5 69.5l202 1059l-2 -2q3 16 4 29q0 27 -14 42q-20 23 -82 29l-69 6q-4 8 -1 31.5t7 30.5q184 -4 264 -5q63 0 252 5q6 -14 4 -35t-8 -27l-66 -6q-115 -10 -129 -100l-92 -478q92 4 178 84l410 379q59 55 59 84q0 27 -47 33l-41 4 q-16 0 -12 16l6 41l6 5q188 -4 232 -5q8 0 196 5l6 -5l-8 -41q-4 -16 -24 -16q-53 -6 -86 -14t-85.5 -37t-105.5 -78l-342 -326q-88 -80 -94 -104q-2 -23 14 -53l336 -559q49 -82 137 -99l13 -2q18 0 14 -16l-6 -41l-8 -4q-188 4 -207 4q-59 0 -142 -4l-2 4l2 12 q0 6 4.5 28.5t4.5 37.5q0 45 -19 82l-248 426q-47 80 -153 80l-97 -500q-3 -16 -3 -30q0 -27 14 -42q20 -23 82 -26l69 -9q4 -8 1 -31.5t-7 -29.5q-184 4 -264 4q-63 0 -252 -4q-5 11 -5 25q0 27 9 36z" />
<glyph unicode="L" horiz-adv-x="1052" d="M33 -4l8 41q4 16 20 16l60 4q63 4 85.5 21.5t33.5 73.5l204 1079q2 10 2 26q0 59 -96 68l-51 4q-16 0 -12 17l6 40l6 5q188 -4 252 -5q70 0 258 5l4 -5l-8 -40q-4 -16 -19 -17l-53 -4q-63 -6 -91 -25.5t-36 -64.5l-198 -1045q-2 -10 -2 -26q0 -80 79 -80h230v-4 q104 0 176 73.5t131 206.5l57 -10q-86 -221 -121 -358q-184 4 -237 4h-428q-68 0 -256 -4z" />
<glyph unicode="M" horiz-adv-x="1679" d="M31 -4l8 41q4 16 22 16l54 4q72 6 104 123l295 1051q6 25 6 43q0 43 -67 49l-56 4q-10 0 -14 4t-2 10l8 43l4 5l297 -3l205 -1093q2 -29 10 -29q6 0 23 31l633 1094h268l4 -5l-10 -43q-2 -14 -25 -14l-53 -4q-86 -8 -94 -90l-127 -1049q-4 -33 -4 -47q0 -70 59 -76l55 -4 q10 -2 15.5 -5t3.5 -11l-8 -41l-5 -4q-188 4 -225 4q-25 0 -217 -4l-4 4l10 41q4 16 21 16l53 4q74 8 90 125l127 959h-4l-666 -1139q-14 -23 -30 -22q-23 0 -29 22l-203 1116h-4l-262 -942q-8 -25 -8 -55q0 -61 53 -68l51 -4q20 0 17 -16l-7 -41l-6 -4q-119 4 -184 4 q-55 0 -178 -4z" />
<glyph unicode="N" horiz-adv-x="1390" d="M18 0l9 39q4 18 30 18l52 4q57 6 90.5 42t42.5 85l188 996q-2 47 -33.5 93t-77.5 52q-8 2 -14 3t-10 5t-4 9l6 40l8 5h273l505 -955q63 -119 80 -119q14 0 25 66l155 815q4 20 5 33q0 86 -88 94l-50 4q-10 0 -19 5t-7 12l8 40l4 5q188 -4 231 -5q31 0 220 5l2 -5l-7 -40 q-4 -16 -18 -17l-57 -4q-109 -8 -131 -127l-219 -1155q-14 -68 -56 -68q-39 0 -71 54l-521 948q-37 70 -55 70q-23 0 -39 -105l-143 -756q-4 -20 -4 -30q0 -86 90 -95l53 -4q16 0 12 -16l-8 -41l-4 -4q-188 4 -219 4q-41 0 -229 -4z" />
<glyph unicode="O" horiz-adv-x="1394" d="M182 504q0 70 17 164q59 317 273 532t478 215q231 0 378 -149.5t147 -399.5q0 -80 -15 -159q-61 -326 -272 -528t-496 -202q-227 0 -368.5 142.5t-141.5 384.5zM375 522q0 -219 106.5 -345t263.5 -126q176 0 322.5 167t200.5 450q20 111 20 215q0 223 -101.5 340.5 t-275.5 117.5h2q-156 0 -308 -162.5t-212 -476.5q-18 -96 -18 -180z" />
<glyph unicode="P" horiz-adv-x="1042" d="M33 0l8 41q4 16 20 16l52 4q61 6 89.5 27t37.5 66l204 1081q2 6 2 18q0 35 -22.5 51.5t-48.5 18.5l-78 4q-14 0 -10 12l8 45l6 5q147 -4 254 -5q45 0 143.5 10.5t120.5 10.5q209 0 294 -87t85 -206q0 -37 -6 -68q-14 -76 -50 -146.5t-98.5 -139t-167 -110.5t-235.5 -42 q-92 0 -147 23l-91 -475q-2 -12 -2 -29q0 -57 95 -64l71 -4q18 0 15 -16l-11 -41l-4 -4q-184 4 -272 4q-111 0 -258 -4zM506 688q35 -10 139 -10q301 0 365 326q12 66 12 112q0 217 -231 217q-100 0 -136.5 -23.5t-46.5 -74.5z" />
<glyph unicode="Q" horiz-adv-x="1394" d="M182 500q0 70 17 162q59 319 272 534t479 215q231 0 378 -149.5t147 -399.5q0 -80 -15 -160q-53 -281 -222 -472t-407 -240q-127 -27 -303 -146q29 4 39 4q117 0 281 -88t246 -88q117 0 190 80l31 -24q-145 -176 -322 -177q-88 0 -168 32t-129 70t-113.5 69.5 t-125.5 31.5q-33 0 -82 -30.5t-88 -96.5l-70 43v-6q68 82 175.5 168t221.5 143q-197 25 -314.5 164.5t-117.5 360.5zM375 516q0 -219 106.5 -345t263.5 -126q176 0 322.5 166t200.5 448q20 115 20 215q0 223 -101.5 342t-275.5 119h2q-156 0 -308 -162.5t-212 -476.5 q-18 -94 -18 -180z" />
<glyph unicode="R" horiz-adv-x="1159" d="M33 2l8 41q4 16 20 16l52 7q63 4 90.5 24.5t36.5 67.5l204 1079q2 6 2 18q0 63 -71 70l-78 4q-14 0 -10 12l8 45l6 5q188 -4 252 -5q43 0 138 10.5t118 10.5q238 0 326 -109q63 -78 63 -186q0 -41 -8 -80q-29 -150 -133.5 -243t-202.5 -125l168 -451q31 -84 64.5 -125 t95.5 -41l-6 -51q-31 -14 -89 -14q-158 0 -229 190l-141 375q-16 41 -62.5 61.5t-160.5 20.5l-91 -471q-4 -25 -4 -29q0 -33 22.5 -46t74.5 -17l51 -7q16 0 12 -16l-6 -41l-6 -4q-188 4 -254 4q-68 0 -256 -4zM506 698h100q164 0 268.5 72t139.5 258q10 57 10 92 q0 213 -227 213q-100 0 -139.5 -23.5t-49.5 -74.5z" />
<glyph unicode="S" horiz-adv-x="948" d="M106 10q18 125 27 344l64 6q2 -305 284 -305q115 0 188.5 67.5t98.5 196.5q8 41 8 80q0 90 -44 140.5t-126 87.5q-143 61 -226 139t-83 207q0 33 6 69q31 162 168 267.5t279 105.5q109 0 181.5 -26.5t98.5 -30.5l-2 2q-2 -35 -9 -127t-7 -152l-66 -12q-6 63 -15 104 t-31.5 84t-69 64.5t-115.5 21.5q-96 0 -172 -69.5t-94 -169.5q-4 -33 -5 -43q0 -160 222 -250q131 -55 207.5 -130t76.5 -204q0 -53 -6 -82q-31 -166 -177 -292t-318 -126q-90 0 -189 16.5t-154 16.5z" />
<glyph unicode="T" horiz-adv-x="1136" d="M221 1114q59 147 107 332q31 0 53 -10v-17q0 -33 35 -33l844 -2q47 0 55 50q14 8 53 8q-31 -158 -37 -330q-25 -10 -63 -10q-2 127 -21.5 162.5t-97.5 35.5h-133q-55 0 -80 -18t-33 -72l-198 -1048q-3 -16 -4 -30q0 -27 14 -41q20 -22 82 -25l69 -9q4 -8 1 -31.5 t-7 -29.5q-184 4 -264 4q-63 0 -252 -4q-6 14 -4 34.5t8 26.5l66 9q63 6 92 28.5t37 69.5l198 1055q4 19 4 33q0 23 -10 33q-16 17 -76 18h-163q-84 0 -123 -36t-92 -163q-44 0 -60 10z" />
<glyph unicode="U" horiz-adv-x="1325" d="M252 1343l6 41l8 5q184 -4 252 -5q72 0 256 5l4 -5l-8 -41q-4 -16 -18 -16l-52 -4q-115 -10 -131 -94l-123 -654q-25 -135 -24 -206q0 -121 59 -197q80 -106 217 -106q98 0 175 32.5t124 81.5t83 125t53.5 139.5t33.5 149.5l119 629q4 25 4 30q0 63 -94 72l-53 4 q-16 0 -13 17l9 40l4 5q188 -4 219 -5q33 0 221 5l4 -5l-8 -40q-4 -16 -18 -17l-54 -4q-111 -10 -129 -98l-112 -592q-31 -156 -73 -266.5t-112.5 -203.5t-181.5 -140.5t-260 -47.5l-4 -4q-66 0 -126 16.5t-120.5 55.5t-97.5 118t-37 189q0 76 16 152l138 723q4 20 4 26 q0 61 -95 70l-51 4q-14 0 -14 16z" />
<glyph unicode="V" horiz-adv-x="1247" d="M254 1346l8 40l6 5q184 -4 213 -5q59 0 248 5l4 -5l-8 -40q-2 -12 -18 -17l-37 -4q-61 -8 -84 -21.5t-23 -46.5q0 -4 1 -12t1 -14l135 -959h11l491 942l-4 -2q20 35 21 60q0 49 -86 55l-31 2q-18 0 -15 17l11 40l4 5q184 -4 217 -5q27 0 186 5l2 -5l-6 -40q0 -16 -18 -17 q-78 -4 -120 -39t-79 -102l-629 -1163q-25 -51 -55 -52q-29 0 -39 52l-168 1171q-12 76 -32.5 101.5t-92.5 31.5q-14 1 -14 17z" />
<glyph unicode="W" horiz-adv-x="1792" d="M309 1343v41l6 5q109 -2 189 -3l233 3l2 -5v-38q0 -16 -20 -17h-49q-51 0 -58 -43q-2 -8 2 -55l86 -762l25 -229l98 225l226 485q74 162 125 162q57 0 65 -68l68 -600l22 -206l111 225l352 760q16 37 16 63q0 43 -53 43h-47q-12 0 -12 14v41l6 5q113 -2 199 -3l178 3 l2 -3v-40q0 -16 -25 -17h-33q-94 0 -145 -108l-565 -1196q-27 -51 -62 -52q-18 0 -35.5 15.5t-19.5 38.5l-84 761q-10 61 -18 62q-6 0 -33 -53l-356 -770q-27 -53 -62 -54q-47 0 -53 54l-144 1181q-6 47 -29.5 84t-64.5 37h-18q-25 0 -25 14z" />
<glyph unicode="X" horiz-adv-x="1312" d="M8 -2l8 43q2 14 25 14q55 2 110.5 35t82 58.5t69.5 72.5l350 404q27 27 31 49v12q0 23 -20 53l-205 441q-61 133 -150 149q-29 8 -28 14l4 43l6 7q160 -4 207 -4q55 0 243 4q0 -6 2 -7l-6 -40q-2 -14 -12 -15l-68 -4q-47 -2 -47 -33q0 -20 21 -61l168 -379q14 -25 18 -25 q8 0 31 27l330 377q45 51 45 70q0 23 -37 24l-58 4q-14 0 -12 15l8 43l4 4q164 -4 199 -4q33 0 197 4l4 -4l-8 -43q0 -14 -23 -15q-82 -2 -133 -35.5t-113 -105.5l-333 -381q-37 -43 -41 -66v-12q0 -18 22 -59l223 -453q78 -154 181 -162q14 0 14 -14l-8 -43l-6 -4 q-160 4 -211 4q-61 0 -250 -4l-6 4l8 43q4 14 14 14l43 4q66 8 66 31q0 14 -23 64l-188 403q-12 25 -25 25q-10 0 -35 -31l-340 -389q-37 -43 -37 -72q0 -27 52 -33l37 -4q10 0 10 -14l-8 -43l-7 -4q-188 4 -225 4q-47 0 -170 -4v4z" />
<glyph unicode="Y" horiz-adv-x="1153" d="M256 1358q-1 8 -1 13q0 12 3 18q119 -4 219 -5q59 0 223 5q4 -6 2 -30t-6 -32l-69 -6q-49 -6 -55.5 -23.5t12.5 -58.5l176 -518h8l332 518q28 45 27 62q0 17 -40 22l-65 6q-4 6 -2 30.5t6 31.5q160 -4 191 -5q47 0 165 5q2 -3 2 -10.5t-2 -19.5q-4 -24 -8 -32l-53 -4 q-51 -4 -80 -28.5t-65 -82.5l-365 -546q-16 -23 -31 -93l-78 -411v-6q-3 -16 -3 -30q0 -27 14 -42q20 -23 82 -29l69 -6q4 -8 1 -31.5t-7 -29.5q-184 4 -264 4q-63 0 -252 -4q-6 14 -4 34.5t8 26.5l66 6q63 8 91.5 31t37.5 70l73 393q6 31 7 53q0 18 -7 41l-192 526 q-33 90 -54.5 117t-72.5 35l-31 4q-6 8 -8 31z" />
<glyph unicode="Z" horiz-adv-x="1208" d="M86 27q0 25 27 55l999 1163q18 23 23 39q6 16 -17 16h-463q-102 0 -157.5 -60t-118.5 -196l-60 13q63 168 113 358q31 -2 69 -15.5t89 -13.5h643q33 4 77 13.5t54 9.5q41 0 41 -16q0 -41 -70 -121l-962 -1116q-23 -33 -25 -43q-2 -14 8.5 -21.5t36.5 -7.5h467 q106 0 174 72.5t129 210.5l62 -13q-80 -195 -121 -358q-201 4 -254 4h-731q-33 0 -33 27z" />
<glyph unicode="[" horiz-adv-x="698" d="M111 -430l325 1911h449l-15 -92h-307l-293 -1725h305l-16 -94h-448z" />
<glyph unicode="\" horiz-adv-x="669" d="M281 1501h92l276 -1603h-92z" />
<glyph unicode="]" horiz-adv-x="698" d="M-6 -430l14 94h307l295 1725h-305l14 92h449l-328 -1911h-446z" />
<glyph unicode="^" horiz-adv-x="1060" d="M354 711l369 620h86l147 -620h-90l-123 503l-299 -503h-90z" />
<glyph unicode="_" horiz-adv-x="995" d="M-45 -315l14 90h979l-16 -90h-977z" />
<glyph unicode="`" horiz-adv-x="802" d="M438 1366l8 20l21 13q20 12 32.5 17t37 12.5t51.5 7.5q18 0 28 -6l99 -256q6 -18 6 -31t-2 -19q-4 -23 -33 -22q-18 0 -53 41z" />
<glyph unicode="a" horiz-adv-x="995" d="M160 256q0 233 173 438t343 205q53 0 164 -12v-2q16 -4 143 -4l-141 -637q-20 -96 -21 -115q0 -29 25 -29q35 0 115 109q29 0 47 -31q-90 -199 -263 -198q-84 0 -83 92q0 45 20 112l27 86l-4 4q-199 -295 -347 -294q-198 0 -198 276zM324 289q0 -197 90 -197 q49 0 148.5 109.5t174.5 247.5q51 131 72 348q-61 39 -127 39q-133 0 -245.5 -186.5t-112.5 -360.5z" />
<glyph unicode="b" horiz-adv-x="978" d="M207 217l211 936q14 63 14 102q0 53 -43 58l-63 4q-10 0 -11 10l7 49q178 12 286 54q25 0 25 -21l-49 -215l-115 -506l4 -2l64 72q20 23 66 63.5t92 59t96 18.5q129 0 172 -61.5t43 -182.5q0 -150 -114 -323.5t-261 -276.5q-111 -76 -215 -75q-131 0 -182 67 q-35 47 -34 110q0 28 7 60zM375 270q-17 -72 -17 -120q0 -99 70 -99q127 0 269.5 178.5t142.5 386.5q0 186 -109 187q-20 0 -40.5 -6t-43.5 -23l-39 -29q-16 -12 -42.5 -40.5l-38.5 -41.5l-42 -51q-31 -37 -41 -47z" />
<glyph unicode="c" horiz-adv-x="796" d="M170 303q0 248 140.5 421t322.5 173q131 0 182 -61.5t51 -139.5q0 -92 -106 -92q-25 0 -40 19.5t-15 46.5q0 29 10 43q10 16 10 39q0 45 -27.5 63.5t-58.5 18.5q-125 0 -213 -132.5t-88 -353.5q0 -135 51 -201q41 -55 103 -55q129 0 231 115q33 0 45 -39 q-96 -104 -166 -146t-174 -42v-3q-125 0 -197 99q-61 88 -61 227z" />
<glyph unicode="d" horiz-adv-x="1001" d="M164 272q0 233 165 429t335 196q55 0 99 -31.5t62 -81.5h2l76 367q16 72 17 102q0 53 -43 58l-64 4q-10 0 -10 10l6 49q178 12 287 53q25 0 24 -20l-51 -215l-217 -948q-20 -96 -21 -115q0 -29 25 -29q35 0 115 109q29 0 47 -31q-90 -199 -262 -198q-84 0 -84 92 q0 31 20 112l15 54l-9 2q-94 -137 -170.5 -200t-154.5 -63q-84 0 -133.5 53.5t-62.5 112.5t-13 129zM328 305q0 -233 80 -233q57 0 138 90t159 233q94 172 94 250q0 59 -37 118.5t-92 59.5q-90 0 -171 -85t-126 -203.5t-45 -229.5z" />
<glyph unicode="e" horiz-adv-x="831" d="M170 291q0 80 18.5 163t59.5 163.5t99.5 143t144.5 100.5t186 38q203 0 203 -143q0 -29 -3.5 -47.5t-17.5 -53t-49 -64.5t-91 -63.5t-153.5 -64.5t-224.5 -55q-2 -16 -2 -70q0 -131 40 -183.5t116 -52.5q74 0 133 32t145 120q33 0 47 -33q-188 -242 -399 -241 q-252 0 -252 311zM356 485q92 12 170 38t144.5 87.5t66.5 147.5v-2q0 43 -24.5 60.5t-81.5 17.5q-189 -1 -275 -349z" />
<glyph unicode="f" horiz-adv-x="643" d="M-164 -391q0 31 19.5 52.5t58.5 21.5q53 0 96 -58q0 -2 4 -9t6.5 -8t5.5 -7.5t5 -7.5t6 -5t8 -5t9 -2t12 -1q55 0 94 62q72 109 135 606l6 41q18 131 84 510l-176 -2q-12 0 -12 4q0 10 8 35q8 33 57 34l135 7q63 303 162 419q57 68 136 99.5t134 31.5q106 0 171 -44 t65 -107q0 -23 -18.5 -45.5t-59.5 -22.5q-76 0 -94 103q-10 53 -78 53q-35 0 -85 -40t-85 -124q-43 -106 -61 -203l-23 -116h225q14 0 15 -11l-10 -45q-6 -25 -54 -24h-190l-6 -35q-39 -219 -97 -498q-106 -520 -182 -624q-92 -129 -237 -129q-96 0 -142.5 27.5t-46.5 66.5z " />
<glyph unicode="g" horiz-adv-x="976" d="M14 -279q0 143 277 295q-53 31 -53 99q0 51 33.5 114.5t76.5 108.5q-94 113 -94 242q0 135 79 227t240 92q127 0 201 -86q94 86 203 86q35 0 57.5 -20.5t22.5 -49t-18.5 -48t-45.5 -19.5q-35 0 -57 35q-12 20 -31 20q-12 0 -44 -15.5t-52 -35.5q41 -59 41 -170 q0 -150 -87 -238t-224 -88q-84 0 -140 35q-47 -88 -47 -125q0 -29 15.5 -48t49.5 -33.5t66 -22.5l89 -22q56 -13 94 -25q209 -61 208 -234q0 -283 -466 -282q-94 0 -177.5 16t-150 65t-66.5 127zM152 -231q0 -88 86 -138.5t254 -50.5q125 0 187 47t62 113q0 53 -37.5 91 t-125.5 79q-125 57 -248 84q-178 -129 -178 -225zM406 578q0 -246 143 -246q150 0 149 264q0 109 -34.5 175.5t-98.5 66.5q-94 0 -126.5 -66.5t-32.5 -193.5z" />
<glyph unicode="h" horiz-adv-x="1062" d="M180 33q0 12 11.5 54t15.5 58l223 1006q14 63 14 102q0 53 -43 58l-63 4q-10 0 -10 10l6 49q178 12 287 53q25 0 24 -20l-49 -215l-125 -555q131 154 222 208t179 54q135 0 136 -164q0 -39 -27 -155l-78 -326q-23 -98 -22 -117q0 -35 20 -35q16 0 55 30t78 73 q35 0 47 -35q-150 -190 -284 -190q-84 0 -84 67q0 49 35 189l77 327q20 88 21 137q0 45 -17.5 60.5t-54.5 15.5q-53 0 -144 -80t-192 -209l-78 -340l-2 -4q-4 -14 -9 -45.5t-9 -48t-13.5 -36t-24.5 -29t-38 -9.5q-84 1 -84 58z" />
<glyph unicode="i" horiz-adv-x="565" d="M219 45q0 29 35 188l96 422q18 86 19 105q0 39 -37 41l-82 6q-23 35 -2 57q209 27 254 27q41 0 41 -43q0 -14 -41 -193l-92 -403q-23 -98 -23 -117q0 -35 21 -35q16 0 55 30t78 73q35 0 47 -35q-150 -190 -285 -191q-84 0 -84 68zM412 1165q0 39 29.5 69t68.5 30 t68.5 -30t29.5 -69t-29.5 -68.5t-68.5 -29.5t-68.5 29.5t-29.5 68.5z" />
<glyph unicode="j" horiz-adv-x="530" d="M-160 -305q0 31 18.5 47t41.5 16q55 0 89 -44t56 -44q37 0 79 48.5t73 164.5q20 84 53 249t47 228l63 297q18 86 19 105q0 37 -37 41l-82 6q-23 35 -2 57q209 27 254 27q41 0 41 -43q0 -14 -6 -44t-17.5 -75t-17.5 -76l-35 -178q-41 -209 -80 -352t-94 -272t-129 -192.5 t-166 -63.5q-72 0 -120 25.5t-48 72.5zM422 1167q0 41 28.5 70t69.5 29t69.5 -29t28.5 -70t-28.5 -69.5t-69.5 -28.5t-69.5 28.5t-28.5 69.5z" />
<glyph unicode="k" horiz-adv-x="995" d="M156 35q0 6 26 112l226 1004q14 63 14 102q0 53 -43 58l-64 4q-10 0 -10 10l6 49q178 12 287 53q25 0 25 -20l-52 -215l-147 -637q49 0 121 63l82 70q246 209 338 209q100 0 100 -72q0 -43 -34 -72.5t-60 -29.5q-37 0 -63.5 14.5t-51.5 14.5q-55 0 -197 -127l-106 -95v-8 q47 -12 65.5 -32.5t47.5 -77.5q10 -20 44.5 -103.5t67.5 -146.5t51 -74q10 -4 23 -4q39 0 106 98q23 0 46 -26q-102 -178 -207 -179q-61 0 -105.5 48.5t-97.5 162.5q-18 41 -49 134.5t-51 128.5q-18 33 -41 32q-29 0 -45 -6l-74 -332q-2 -12 -8.5 -44.5t-10.5 -48t-13 -36 t-24.5 -30t-37.5 -9.5q-84 1 -84 58z" />
<glyph unicode="l" horiz-adv-x="544" d="M188 72q0 41 29 172l203 909q14 63 14 102q0 53 -43 58l-63 4q-10 0 -11 10l7 49q178 12 286 54q25 0 25 -21l-49 -215l-211 -934q-27 -119 -27 -129q0 -29 25 -29q20 0 71.5 36t94.5 87q31 0 45 -35q-121 -211 -310 -210q-45 0 -65.5 27.5t-20.5 64.5z" />
<glyph unicode="m" horiz-adv-x="1603" d="M229 35q0 6 27 112l117 510l2 -4q18 86 18 105q0 37 -37 41l-82 6q-23 35 -2 57q209 27 254 27q41 0 41 -43q0 -14 -7 -44t-20.5 -75t-19.5 -76l-4 -18l4 -2q205 264 402 264q119 0 118 -178q0 -53 -8 -96q109 135 194 204.5t183 69.5q53 0 89 -44t36 -134 q0 -72 -21 -150l-96 -364q-10 -37 -10 -82q0 -23 14 -23q59 0 144 133q39 0 45 -28q-94 -227 -303 -228q-23 0 -44.5 19.5t-21.5 48.5q0 35 37 186l80 322q18 72 18 145q0 43 -14 59.5t-45 16.5q-51 0 -123 -66.5t-197 -240.5l-77 -322q-4 -14 -9.5 -45.5t-9.5 -48t-13 -36 t-24.5 -29t-38.5 -9.5q-84 0 -84 58q0 6 27 112l98 416q16 72 17 137q0 45 -11.5 60.5t-42.5 15.5q-133 0 -340 -299l-81 -330q-4 -14 -9.5 -45.5t-9.5 -48t-13 -36t-24.5 -29t-38.5 -9.5q-84 1 -84 58z" />
<glyph unicode="n" horiz-adv-x="1060" d="M184 35q0 6 27 112l115 510q18 86 18 105q0 37 -37 41l-82 6q-23 35 -2 57q209 27 258 27q41 0 41 -43q0 -14 -7 -44t-20.5 -75t-19.5 -76l-4 -18l2 -2q135 158 216 211t167 53q135 0 135 -164q0 -39 -26 -155l-78 -326l2 -2q-23 -98 -23 -117q0 -35 21 -35q16 0 55 30 t78 73q35 0 47 -35q-150 -190 -291 -191q-84 0 -84 68q0 49 35 188l78 328q27 113 26 139q0 45 -17 59.5t-54 14.5q-94 0 -316 -289l-77 -340q-4 -14 -9.5 -45.5t-9.5 -48t-13 -36t-24.5 -29t-38.5 -9.5q-88 1 -88 58z" />
<glyph unicode="o" horiz-adv-x="915" d="M158 332q0 96 31.5 193.5t91 182.5t159 138t222.5 53q289 0 288 -332q0 -176 -90 -327.5t-227 -221.5q-76 -39 -187 -38q-92 0 -153.5 37.5t-88 99t-35.5 112t-9 103.5h-2zM328 348v2q0 -145 55 -221t113 -76q125 0 198 129q86 152 86 373q0 113 -37 184q-25 47 -50 69.5 t-68 22.5q-82 0 -143.5 -48t-93.5 -125.5t-46 -154.5t-14 -155z" />
<glyph unicode="p" horiz-adv-x="1001" d="M-39 -444q0 12 21 16l38 6q92 14 109 92l211 940q-102 -84 -147 -143q-51 0 -64 43q70 88 236 207l26 121q2 12 8.5 46t10.5 48t13 35.5t24.5 30t37.5 8.5q86 0 86 -56q0 -4 -26 -123q121 72 235 72q262 0 262 -307q0 -84 -37.5 -187.5t-102 -199.5t-167 -160.5 t-217.5 -64.5q-82 0 -145 67l-90 -377q-8 -33 4 -52t26.5 -24.5t36.5 -7.5l39 -6q12 -2 12 -16v-41l-4 -4q-139 4 -219 4l-213 -10l-4 4v39zM391 137q63 -88 152 -88q94 0 175 101.5t118.5 217t37.5 191.5q0 246 -159 246q-80 0 -189 -70z" />
<glyph unicode="q" horiz-adv-x="1005" d="M166 301q0 127 52 241.5t132 190.5t172 121t174 45q119 0 197 -108l59 83q27 39 64 39q23 0 22 -20q0 -10 -4 -31l-274 -1192q-8 -33 4 -52t26.5 -24.5t36.5 -7.5l39 -6q12 -2 13 -16v-41l-5 -4q-139 4 -219 4l-215 -10l-4 4v39q0 12 21 16l39 6q49 8 73.5 28.5 t34.5 63.5l135 533l-6 2q-162 -225 -327 -225q-131 0 -185.5 92t-54.5 229zM338 324q0 -100 27.5 -179t83.5 -79q59 0 163.5 102t139.5 201q29 84 53 183t24 124q0 63 -34.5 106t-89.5 43q-152 0 -259.5 -155.5t-107.5 -345.5z" />
<glyph unicode="r" horiz-adv-x="731" d="M182 33q0 14 4 31.5t11.5 42t11.5 40.5l113 510q14 68 14 105t-37 41l-82 6q-23 35 -2 57q209 27 246 27q43 0 43 -51q0 -35 -35 -187l-16 -71l8 -6q68 145 151.5 231t159.5 86q53 0 80 -29.5t27 -66.5q0 -43 -27 -79t-66 -36q-33 0 -69 43q-20 25 -43 25 q-57 0 -260 -369l-60 -240q-4 -14 -10 -47t-11 -48t-14.5 -35.5t-23.5 -29t-35 -8.5q-78 1 -78 58z" />
<glyph unicode="s" horiz-adv-x="722" d="M135 121q0 23 19.5 46t60.5 23q39 0 63.5 -30.5t30.5 -69.5q10 -51 78 -51q178 4 178 149q0 104 -135 189q-190 117 -190 262q0 98 80.5 177t211.5 79q88 0 155 -48t67 -102q0 -68 -78 -67q-33 0 -58.5 31.5t-31.5 68.5q-10 53 -86 53q-63 0 -96 -40.5t-33 -96.5 q0 -84 88 -137q145 -88 202.5 -161.5t57.5 -153.5q0 -115 -90 -188.5t-248 -73.5l-2 -13q-104 0 -174 46.5t-70 107.5z" />
<glyph unicode="t" horiz-adv-x="628" d="M209 74q0 53 29 168l131 557h-144q-12 0 -12 4q0 10 8 35q8 33 58 34l108 7l25 102q4 16 9 47t9 47.5t13.5 35.5t23.5 28.5t35 9.5q82 0 82 -55q0 -4 -27 -123l-20 -92h202q10 -8 11 -23q0 -8 -4 -19q-9 -30 -27 -38h-201l-127 -539q-20 -82 -20 -129q0 -29 26 -29 q51 0 164 127q37 0 45 -39q-61 -104 -144 -157t-153 -53q-100 0 -100 94z" />
<glyph unicode="u" horiz-adv-x="1067" d="M174 709q150 190 309 190q74 0 74 -68q0 -16 -43 -188l-88 -334q-18 -72 -18 -131q0 -76 61 -76q72 0 150.5 94.5t203.5 309.5l60 225q4 16 12 57t13 58.5t23.5 35t45.5 17.5q86 0 86 -55q0 -4 -27 -123l-114 -467q-23 -98 -23 -117q0 -35 21 -35q16 0 55 30t78 73 q35 0 47 -35q-150 -190 -285 -190q-76 0 -76 67q0 66 35 189l23 79l-6 4q-125 -182 -211 -260.5t-197 -78.5q-59 0 -98 40.5t-39 122.5q0 61 20 138l90 344q27 98 27 116q0 35 -21 35q-16 0 -60 -29.5t-81 -72.5q-35 0 -47 35z" />
<glyph unicode="v" horiz-adv-x="927" d="M174 653q45 133 122 189.5t153 56.5q39 0 55 -45q4 -12 20 -192l33 -377l2 -105l62 78l182 256q61 84 61 166q0 27 -22.5 69t-22.5 78q0 31 22.5 51.5t53.5 20.5q41 0 68.5 -34t27.5 -87q0 -117 -129 -299l-319 -450q-39 -53 -66 -54q-33 0 -37 50l-51 557 q-14 168 -24 182q-6 10 -21 10q-35 0 -115 -149q-32 -1 -55 28z" />
<glyph unicode="w" horiz-adv-x="1382" d="M170 653q45 133 122 189.5t152 56.5q39 0 56 -45q6 -16 20 -192l33 -375l4 -94l51 88l219 385q25 45 50 45q53 0 65 -52l94 -395l19 -102l209 348q57 94 57 170q0 18 -26.5 63t-26.5 86q0 70 73 70q45 0 74 -34t29 -85q0 -100 -121 -305l-270 -455q-29 -45 -64 -45 q-29 0 -39 43l-123 517l-290 -506q-33 -53 -68 -54q-12 0 -25.5 16.5t-15.5 35.5l-43 555q-12 170 -25 186q-8 8 -20 8q-35 0 -115 -151q-32 -1 -55 28z" />
<glyph unicode="x" horiz-adv-x="972" d="M88 57q0 33 21.5 55.5t56.5 22.5q31 0 59 -12q25 -12 56 -12q33 0 57 39l176 266l-106 338q-14 45 -62 45q-25 0 -60.5 -16.5t-37.5 -16.5q-10 0 -18.5 10t-8.5 23q0 20 15 37q109 63 233 63q35 0 51.5 -26.5t44.5 -120.5l58 -181l102 148h-4q74 104 132 142t138 38 q39 0 71 -22.5t32 -59.5q0 -35 -21.5 -61.5t-44.5 -26.5q-43 0 -67 21q-27 20 -62 20q-57 0 -96 -55l-156 -230l105 -329q25 -76 49 -76q43 0 108 84q35 0 49 -39q-86 -145 -225 -145q-49 0 -72.5 24.5t-44.5 89.5l-73 234l-127 -189q-61 -92 -107.5 -125.5t-101.5 -33.5 q-41 0 -80 20t-39 57z" />
<glyph unicode="y" horiz-adv-x="972" d="M27 -383q0 35 25.5 63.5t90.5 28.5q23 0 47 -20q23 -18 48 -19q29 0 99.5 55.5t125.5 147.5l67 111q-51 422 -124 747h4q-6 27 -28 41t-44 14q-25 0 -62.5 -15t-39.5 -15q-10 0 -18.5 12t-8.5 25q0 20 14 36q109 63 234 64q39 0 60.5 -32t41.5 -113q61 -240 82 -570l8 -2 l207 354q47 80 47 144q0 18 -22.5 61t-22.5 82q0 35 22.5 58.5t55.5 23.5q41 0 73.5 -35t32.5 -86q0 -88 -118 -282l-389 -639q-92 -152 -198 -237t-187 -85q-39 0 -81 19.5t-42 62.5z" />
<glyph unicode="z" horiz-adv-x="892" d="M111 12q14 47 127 172l493 543q-20 -2 -65 -2q-27 0 -103 9t-127 9q-72 0 -105.5 -22.5t-66.5 -91.5q-39 0 -55 16q27 94 87 174t112 80q76 0 217 -27q150 -29 161 -28q53 0 111 65l57 -32q-4 -8 -112 -138q-68 -84 -263.5 -293.5t-220.5 -238.5q104 0 173 -36t110 -36 q35 0 59.5 7.5t61.5 38t74 89.5q33 0 51 -20q-70 -158 -126 -215.5t-126 -57.5q-90 0 -176 52q-86 53 -156 53q-18 0 -52 -28.5t-65 -80.5q-23 2 -47 13q-18 3 -28 26z" />
<glyph unicode="{" horiz-adv-x="569" d="M172 524l2 11q145 41 182 262l72 405q31 178 100 250q74 74 244 78l-6 -31q-66 -18 -117 -88q-45 -61 -65 -192l-68 -390q-25 -141 -65.5 -202.5t-126.5 -96.5q102 -47 102 -176q0 -55 -16 -149l-62 -352q-10 -72 -10 -115q0 -51 10 -86q29 -70 86 -88l-4 -31 q-178 4 -219 78q-25 45 -25 125q0 68 15 147l65 377q10 61 10 100q0 137 -104 164z" />
<glyph unicode="|" horiz-adv-x="419" d="M82 -477l319 1812h91l-320 -1812h-90z" />
<glyph unicode="}" horiz-adv-x="569" d="M-18 -467l6 31q70 20 116 88q45 66 68 190l64 389q25 141 66.5 204t127.5 97q-102 45 -102 175q0 37 16 151l59 352q12 68 12.5 117t-12.5 84q-29 72 -86 88l7 31q178 -4 219 -78q23 -43 22 -125q0 -66 -14 -149l-64 -373q-8 -39 -8 -105q0 -135 103 -161v-13 q-154 -43 -187 -258l-69 -407q-27 -174 -101 -250q-71 -74 -243 -78z" />
<glyph unicode="~" horiz-adv-x="919" d="M129 428q39 102 128 182t179 80q47 0 140.5 -66.5t138.5 -66.5q53 0 118.5 34t108.5 103l33 -12q-47 -100 -110.5 -159.5t-103.5 -73t-75 -13.5q-55 0 -142 66.5t-141 66.5q-57 0 -130.5 -41t-118.5 -106z" />
<glyph unicode="&#xa1;" horiz-adv-x="464" d="M61 -365q0 12 5 41q14 76 59 203t63 193q29 98 51.5 184l34 133t13.5 53q10 41 37 41q23 0 22 -20v-4q0 -18 -6 -79t-16.5 -152t-14.5 -156q-4 -55 -4 -138v-92q0 -98 -12 -166q-12 -76 -54 -112.5t-85 -36.5q-39 0 -66 27.5t-27 80.5zM270 786q0 12 2 21q8 45 45 76.5 t82 31.5q41 0 67 -25.5t26 -66.5q0 -12 -3 -16q-8 -45 -44.5 -78t-82.5 -33q-39 0 -65.5 25.5t-26.5 64.5z" />
<glyph unicode="&#xa2;" d="M190 449q0 240 131.5 409.5t305.5 183.5l30 154l70 -2l-31 -154q106 -10 148.5 -68.5t42.5 -129.5q0 -92 -107 -92q-25 0 -40 19t-15 46q0 29 10 43q10 16 10 39q0 61 -61 80l-143 -737q115 12 202 110q33 0 45 -39q-80 -86 -137 -128t-131 -54l-31 -156h-69l29 150 q-125 0 -197 98q-62 89 -62 228zM358 496q0 -135 52 -201q27 -37 63 -49l141 731q-109 -25 -182.5 -153.5t-73.5 -327.5z" />
<glyph unicode="&#xa3;" d="M35 14q14 61 119 113q14 10 41 33q131 115 182 387l10 53h-135l16 82h135l5 16q33 127 83 213t142 162q125 106 278 107q47 0 96.5 -22.5t41.5 -67.5q-16 -78 -97 -78q-31 0 -59 37q-45 45 -88 45q-70 0 -137.5 -86t-92.5 -211l-22 -115h266l-14 -82h-268l-2 -10 q-61 -311 -207 -408l-13 -8h21h-4q129 0 207 -57q49 -39 108 -39q49 0 111.5 24.5t105.5 71.5l33 -27q-94 -172 -303 -172q-80 0 -182 66q-84 53 -142 53q-86 0 -96 -53q-6 -37 -35.5 -56.5t-60.5 -19.5q-20 0 -33.5 15.5t-9.5 33.5z" />
<glyph unicode="&#xa4;" d="M106 299l125 88q-47 76 -47 162q0 29 6 63q25 129 121 226l-90 84l90 79l74 -102q115 72 233 72q121 0 209 -76l115 113l66 -84l-129 -90q43 -68 43 -154q0 -33 -7 -68q-23 -125 -112 -221l90 -90l-88 -78l-76 107q-113 -76 -237 -76q-123 0 -209 74l-107 -111zM309 555 q0 -94 53.5 -154.5t145.5 -60.5q104 0 185 80t100 192q4 18 4 56q0 94 -53.5 155.5t-137.5 61.5q-104 0 -187 -80t-104 -191q-6 -30 -6 -59z" />
<glyph unicode="&#xa5;" d="M150 260l16 80h268l25 129h-271l17 82h258l-137 475q-14 49 -33 71.5t-57 22.5h-15q-18 6 -16 17l6 37l4 4q35 -6 186 -7q131 0 179 7l2 -4l-7 -35q-4 -18 -18 -19h-27q-49 0 -55 -26q-2 -20 10 -64l123 -436l277 436q31 47 33 66q4 14 -7.5 20t-38.5 6h-30q-14 0 -11 15 l9 37l2 4q49 -6 159 -7q88 0 148 7l4 -4l-6 -35q-4 -16 -23 -17h-14q-82 0 -141 -96l-303 -475h268l-16 -82h-293l-25 -129h295l-16 -80h-293l-23 -113q-10 -47 12.5 -68.5t81.5 -21.5h56q16 0 12 -16l-6 -39l-6 -4q-176 4 -256 4l-267 -4l-2 4l7 39q4 16 20 16h53 q111 0 129 90l23 113h-270z" />
<glyph unicode="&#xa6;" horiz-adv-x="419" d="M92 -412l131 742h101l-131 -742h-101zM279 639l131 741h100l-131 -741h-100z" />
<glyph unicode="&#xa7;" horiz-adv-x="968" d="M166 -174q0 39 21.5 71.5t70.5 32.5q61 0 66 -84q4 -68 24.5 -102.5t81.5 -34.5q84 0 147.5 62.5t63.5 152.5q0 111 -139 195q-6 4 -46 27l-53 31q-12 7 -46.5 31.5t-48.5 39.5l-38 42q-25 28 -34 51.5t-18 56t-9 67.5q0 86 49 190.5t182 196.5l2 -6q-57 80 -57 168 q0 139 97.5 234t271.5 95q123 0 192.5 -55t69.5 -123q0 -104 -86 -104q-68 0 -72 84q-4 68 -26.5 102.5t-83.5 34.5q-86 0 -146.5 -52t-60.5 -140q0 -129 141 -216q6 -4 46 -27l52 -31q12 -7 47 -31.5t49 -39.5l37 -42q25 -28 34 -51t18.5 -56t9.5 -68q0 -227 -230 -385 q51 -68 52 -147q0 -154 -109.5 -252t-271.5 -98q-123 0 -186.5 56t-63.5 124zM344 578q0 -51 16.5 -92.5t61.5 -82.5t66 -56l87 -60q80 -53 130 -99h-3q133 92 134 226q0 51 -16.5 92t-61.5 82t-67 56l-87 61q-80 53 -123 100q-45 -33 -69.5 -56.5t-46 -68.5t-21.5 -102z " />
<glyph unicode="&#xa8;" horiz-adv-x="768" d="M317 1157q0 45 35 77t76 32q33 0 55.5 -21.5t22.5 -54.5q0 -47 -36 -79t-75 -32q-35 0 -56.5 21.5t-21.5 56.5zM647 1157q0 47 35 79t76 32q33 0 55.5 -22.5t22.5 -55.5q0 -45 -35 -77t-76 -32q-33 0 -55.5 21.5t-22.5 54.5z" />
<glyph unicode="&#xa9;" horiz-adv-x="1296" d="M70 626.5q0 239.5 170 408.5t409.5 169t408.5 -169t169 -408.5t-169 -409.5t-408.5 -170t-409.5 170t-170 409.5zM133 627q0 -213 150.5 -363.5t365.5 -150.5q213 0 363.5 150.5t150.5 363.5t-150.5 363.5t-363.5 150.5q-215 0 -365.5 -150.5t-150.5 -363.5zM344 629 q0 119 86 212t223 93q80 0 133.5 -14.5t77.5 -14.5l25 -160l-55 -8q-8 43 -14.5 63.5t-24 45t-52 35t-88.5 10.5q-74 0 -135 -61.5t-61 -204.5q0 -109 53 -182.5t154 -73.5q115 0 186 104l43 -29q-35 -55 -96.5 -93t-139.5 -38q-141 0 -228 93.5t-87 222.5z" />
<glyph unicode="&#xaa;" horiz-adv-x="565" d="M250 842q0 10 4 35q29 123 238 176l118 30q10 41 11 82q0 88 -74 88q-106 0 -117 -55q-4 -16 -4 -20v-7q2 -2 2 -8q0 -10 -2 -16q-4 -14 -19.5 -28.5t-39.5 -14.5q-41 0 -41 37q0 2 1 7t1 7q12 57 89 103.5t142 46.5q160 0 160 -150q0 -43 -10 -84l-35 -153 q-14 -59 -15 -91q0 -27 15 -26q10 0 24 10l11 -33q-45 -45 -99 -45q-31 0 -47 21.5t-16 50.5q0 6 2 8q-61 -47 -98 -63.5t-82 -16.5q-53 0 -86 30t-33 79zM352 856q0 -57 70 -57q49 0 137 67l39 162q-127 -33 -179 -64.5t-65 -80.5q-2 -11 -2 -27z" />
<glyph unicode="&#xab;" horiz-adv-x="950" d="M184 424l6 33l50 32q162 109 407 345l47 -50q-207 -238 -340 -344q94 -117 195 -344l-70 -49q-84 135 -135 206t-125 138q-23 23 -35 33zM520 424l6 33l49 32q162 109 408 345l45 -50q-207 -238 -340 -344q94 -117 195 -344l-68 -49q-84 135 -135 206t-125 138 q-23 23 -35 33z" />
<glyph unicode="&#xac;" horiz-adv-x="1146" d="M178 731l17 90h1048l-96 -549h-109l80 459h-940z" />
<glyph unicode="&#xad;" horiz-adv-x="716" d="M158 512q2 4 2 6q4 25 25.5 50.5t37.5 25.5h469q23 0 23 -25v-12q-4 -18 -26.5 -46t-41.5 -28h-465q-24 0 -24 29z" />
<glyph unicode="&#xae;" horiz-adv-x="1296" d="M70 626.5q0 239.5 170 408.5t409.5 169t408.5 -169t169 -408.5t-169 -409.5t-408.5 -170t-409.5 170t-170 409.5zM133 627q0 -213 150.5 -363.5t365.5 -150.5q213 0 363.5 150.5t150.5 363.5t-150.5 363.5t-363.5 150.5q-215 0 -365.5 -150.5t-150.5 -363.5zM424 342v25 q0 10 20 10h25q16 0 16 16v457q0 23 -8 22l-33 -2q-20 2 -20 13v22q72 10 235 10q104 0 149.5 -47t45.5 -106q0 -96 -109 -152l-8 -4l99 -168q37 -63 82 -63v-27q-27 -8 -48 -8q-90 0 -127 78l-98 162q-10 8 -55 8v-195q0 -16 14 -16h25q23 0 22 -12v-23l-114 4zM590 631 q33 0 54.5 3t49 14t43 40t15.5 74q0 53 -27 86t-78 33q-27 0 -57 -7v-243z" />
<glyph unicode="&#xaf;" horiz-adv-x="813" d="M315 1106q0 4 2 8q4 20 20.5 40t35.5 20h499q25 0 25 -23v-6q-4 -18 -22.5 -40t-36.5 -22h-502q-21 0 -21 23z" />
<glyph unicode="&#xb0;" horiz-adv-x="546" d="M281 1178q0 12 4 36q14 84 84.5 143.5t154.5 59.5q74 0 122 -47t48 -121q0 -23 -2 -35q-16 -84 -85.5 -144t-153.5 -60q-76 0 -124 47t-48 121zM348 1184q0 -49 31 -83t84 -34q59 0 104 44t58 101q0 4 1 13.5t1 13.5q0 49 -29 86t-84 37q-61 0 -106.5 -45t-55.5 -105 q-4 -20 -4 -28z" />
<glyph unicode="&#xb1;" horiz-adv-x="1079" d="M141 37l19 100h809l-19 -100h-809zM240 598l18 100h354l64 357h100l-61 -357h352l-16 -100h-355l-61 -354h-103l64 354h-356z" />
<glyph unicode="&#xb2;" horiz-adv-x="628" d="M238 745q20 113 235 261q90 61 129 107t53 124q4 20 4 31q0 47 -27.5 69.5t-60.5 22.5q-113 0 -120 -60q-2 -10 -1 -25t-1 -24q-4 -23 -26 -36t-38 -13q-18 0 -32.5 12.5t-14.5 28.5q0 6 2 8q10 53 75.5 105.5t174.5 52.5q80 0 135 -31.5t55 -101.5q0 -23 -4 -37 q-12 -66 -66.5 -121t-162.5 -123q-154 -96 -170 -184h166q70 0 143 137l47 -10q-41 -90 -74 -193h-421z" />
<glyph unicode="&#xb3;" horiz-adv-x="628" d="M236 805q0 18 20 31.5t39 13.5q27 0 47 -29q23 -37 94 -37q49 0 110.5 38t80.5 130q2 12 2 31q0 100 -137 100q-10 0 -43 -4l6 49q72 10 120 49.5t60 100.5q0 4 1 11t1 11q0 59 -70 60q-39 0 -78.5 -18.5t-48.5 -53.5q-14 -59 -63 -59q-41 0 -41 37q6 41 77.5 92 t188.5 51q72 0 112 -25.5t40 -72.5q0 -14 -2 -23q-16 -82 -131 -139q51 -6 92 -42t41 -101q0 -12 -4 -37q-20 -104 -120 -170t-224 -66q-59 0 -114.5 21.5t-55.5 50.5z" />
<glyph unicode="&#xb4;" horiz-adv-x="698" d="M383 1132.5q0 22.5 20 49.5l209 258q12 4 31 4q61 0 92 -37q8 -8 13 -10v-23l-275 -223q-49 -41 -65 -41q-25 0 -25 22.5z" />
<glyph unicode="&#xb5;" horiz-adv-x="993" d="M14 -375q0 41 49.5 169t63.5 190q8 31 20.5 129t26.5 161l102 457q4 14 9.5 46t9.5 48.5t13 36t24.5 28.5t38.5 9q86 0 86 -55q0 -4 -27 -123l-96 -420q-51 -219 88 -219q68 0 150.5 103.5t209.5 320.5l60 225q4 16 12 57t13 58.5t23.5 35t45.5 17.5q86 0 86 -55 q0 -4 -27 -123l-114 -467q-23 -98 -23 -117q0 -35 21 -35q16 0 55 30t78 73q35 0 47 -35q-150 -190 -285 -190q-76 0 -76 67q0 66 35 189l23 79l-6 4q-125 -182 -211 -260.5t-197 -78.5q-57 0 -86 47q-25 0 -29 -19q-14 -59 -14 -153q0 -23 1 -64t1 -59q0 -119 -37 -165 t-84 -46q-25 0 -52.5 29.5t-27.5 74.5z" />
<glyph unicode="&#xb6;" horiz-adv-x="1232" d="M205 788q0 59 8 111q35 195 163 309.5t329 114.5q90 0 202.5 -5t128.5 -5l144 6l227 4l-8 -43q-4 -14 -15 -14h-61q-51 0 -70.5 -26t-31.5 -101l-252 -1434q-8 -41 -8 -72q0 -33 14 -44t51 -11h61q12 0 9 -14l-9 -43h-671l8 43q2 14 14 14h60q51 0 69.5 24.5t32.5 104.5 l133 758q-53 -25 -162 -25q-49 0 -96 9.5t-97 35t-87 63.5t-61.5 100t-24.5 140zM715 -356q0 -68 43 -68t60.5 28.5t29.5 98.5l254 1436q6 43 6 67q0 35 -11.5 45.5t-33.5 10.5q-31 0 -51.5 -21.5t-26.5 -44t-12 -63.5l-252 -1426q-6 -30 -6 -63z" />
<glyph unicode="&#xb7;" horiz-adv-x="518" d="M242 520q0 4 1 10.5t1 10.5q10 43 49 76.5t84 33.5q37 0 64.5 -27.5t27.5 -66.5q0 -2 -1 -7t-1 -9q-8 -45 -46 -78t-83 -33t-70.5 26.5t-25.5 63.5z" />
<glyph unicode="&#xb8;" horiz-adv-x="1107" d="M346 -336l29 37q59 -20 114 -20q57 0 101.5 27.5t44.5 74.5q0 25 -20.5 39t-51.5 14q-43 0 -94 -12l-10 12l121 178h69l-76 -118q25 6 54 6q53 0 87 -24.5t34 -72.5q0 -76 -75 -126t-181 -50q-72 0 -146 35z" />
<glyph unicode="&#xb9;" horiz-adv-x="628" d="M285 745l8 43q6 10 16 11h74q25 0 48.5 21.5t29.5 53.5l59 312q4 27 6 42t1 25.5t-5 14.5t-14 4q-47 0 -123 -33l-8 55q135 47 260 115h33l-105 -535q-6 -33 4.5 -54t32.5 -21h57q12 0 11 -11l-8 -43q-106 2 -177 3z" />
<glyph unicode="&#xba;" horiz-adv-x="714" d="M252 879q27 131 116 205.5t220 74.5q141 0 193.5 -76.5t29.5 -191.5q-23 -113 -112 -191.5t-226 -78.5q-115 0 -178 73.5t-43 184.5zM373 899q-16 -86 15.5 -153.5t117.5 -67.5q57 0 110.5 41t71.5 139q23 121 -11 185.5t-112 64.5q-74 0 -125 -60.5t-67 -148.5z" />
<glyph unicode="&#xbb;" horiz-adv-x="950" d="M125 96q207 238 340 344q-94 117 -195 344l68 50q84 -135 135 -206t125 -139q23 -23 35 -32l-6 -33l-49 -33q-162 -109 -408 -344zM459 96q207 238 340 344q-94 117 -195 344l70 50q84 -135 135 -206t125 -139q23 -23 35 -32l-6 -33l-50 -33q-162 -109 -407 -344z" />
<glyph unicode="&#xbc;" horiz-adv-x="1351" d="M129 -111l1200 1342l82 -17l-1198 -1341zM258 645l8 43q4 8 17 8h73q25 0 47.5 21.5t28.5 54.5l62 311q12 51 9 69.5t-22 18.5q-37 0 -125 -32l-8 55q147 49 260 115h33l-102 -537q-6 -33 4 -54.5t32 -21.5h58q10 0 10 -10l-8 -41q-109 2 -176 2zM791 59l403 449l55 -21 l-195 -226q-126 -142 -136 -155h186l29 156q2 16 22 37q43 43 62 43q20 0 22 -12q2 -4 0 -8l-43 -216h113l-21 -69h-104l-21 -103q-6 -31 1 -41t34 -10h33q8 0 8 -10l-6 -41q-88 2 -143 2l-125 -2l8 43q0 8 10 8h31q29 0 39 9.5t16 39.5l21 105h-295z" />
<glyph unicode="&#xbd;" horiz-adv-x="1351" d="M129 -111l1200 1342l82 -17l-1198 -1341zM262 645l10 43q0 8 17 8h71q25 0 48.5 21.5t29.5 54.5l62 311q10 51 7 69.5t-22 18.5q-35 0 -123 -32l-8 55q147 49 260 115h33l-104 -537q-6 -33 5 -54.5t32 -21.5h57q12 0 10 -10l-8 -41q-106 2 -174 2zM795 -162 q20 113 235 260q90 61 130 107.5t54 124.5q12 63 -18.5 93t-67.5 30q-106 0 -120 -60q-2 -6 -1 -24.5t1 -24.5q-6 -23 -28 -36t-40 -13t-31.5 14.5t-11.5 34.5q10 53 76.5 105.5t175.5 52.5q88 0 145.5 -40t40.5 -128q-12 -68 -67.5 -123t-161.5 -123q-156 -96 -172 -184 h166q68 0 145 139l47 -12q-47 -102 -75 -193h-422z" />
<glyph unicode="&#xbe;" horiz-adv-x="1351" d="M129 -111l1200 1342l82 -17l-1198 -1341zM213 705q2 14 20.5 27t36.5 13q27 0 47 -28q23 -37 97 -37q27 0 60.5 11t74.5 52t53 107q14 76 -32 102.5t-103 26.5q-27 0 -41 -4l4 49q72 10 120 49t60 101q16 82 -67 81q-37 0 -78 -18t-47 -53q-20 -59 -66 -60q-41 0 -41 37 q10 41 80 92.5t187 51.5q80 0 119.5 -32t29.5 -87q-14 -82 -131 -142q59 -6 102 -52t27 -128q-20 -102 -119.5 -167.5t-224.5 -65.5q-63 0 -118.5 21.5t-49.5 52.5zM801 66l401 446l58 -20l-334 -381h186l31 157q4 23 20 35q43 43 62 43q20 0 22 -10q2 -4 0 -8l-41 -217h113 l-21 -70h-106l-21 -102q-6 -29 1.5 -40.5t35.5 -11.5h31q12 0 8 -8l-6 -41q-88 2 -141 2l-127 -2l8 41q0 8 10 8h31q29 0 39 9.5t16 42.5l21 102h-295z" />
<glyph unicode="&#xbf;" horiz-adv-x="829" d="M43 -211q0 31 6 64q12 76 63.5 143t92.5 99t119 85q98 63 125 103q53 74 65 149l16 90q2 20 29 21q25 0 19 -21l-17 -94q-10 -59 -21.5 -100t-55.5 -107.5t-115 -122.5q-145 -117 -166 -237q-4 -37 -4 -54q0 -86 46 -144t120 -58q86 0 148 34.5t71 81.5q6 35 -4 54 q-8 18 -5 49q6 33 34 52.5t61 19.5q70 0 69 -66q0 -2 -1 -10t-1 -13q-18 -102 -135 -184q-109 -80 -268 -80q-137 0 -214 66.5t-77 179.5zM494 795q0 4 1 10t1 8q10 45 47 77t82 32q39 0 65.5 -26t26.5 -62q0 -4 -1 -11.5t-1 -9.5q-8 -45 -46 -76.5t-83 -31.5 q-39 0 -65.5 25.5t-26.5 64.5z" />
<glyph unicode="&#xc0;" horiz-adv-x="1392" d="M4 0l8 41q4 16 19 16q72 4 120 36t103 126l659 1118q25 45 42.5 61.5t39.5 16.5q20 0 27.5 -15.5t13.5 -49.5l193 -1166q8 -63 36.5 -90.5t88.5 -34.5l20 -2q20 0 17 -16l-9 -41l-4 -4q-143 4 -233 4q-117 0 -268 -4l-3 4l9 41q6 16 18 16l57 4q102 8 103 74q0 12 -2 21 l-51 362h-418q-59 0 -78 -37l-176 -311h-2q-14 -23 -15 -49q0 -53 78 -60l56 -4q16 0 12 -16l-6 -41l-6 -4q-143 4 -260 4q-35 0 -187 -4zM592 625q0 -16 47 -17h348l-84 576h-4l-303 -547q-4 -8 -4 -12zM829 1669l183 96l213 -180q23 -18 22 -37q0 -41 -39 -41 q-31 0 -84 27z" />
<glyph unicode="&#xc1;" horiz-adv-x="1392" d="M4 0l8 41q4 16 19 16q72 4 120 36t103 126l659 1118q25 45 42.5 61.5t39.5 16.5q20 0 27.5 -15.5t13.5 -49.5l193 -1166q8 -63 36.5 -90.5t88.5 -34.5l20 -2q20 0 17 -16l-9 -41l-4 -4q-143 4 -233 4q-117 0 -268 -4l-3 4l9 41q6 16 18 16l57 4q102 8 103 74q0 12 -2 21 l-51 362h-418q-59 0 -78 -37l-176 -311h-2q-14 -23 -15 -49q0 -53 78 -60l56 -4q16 0 12 -16l-6 -41l-6 -4q-143 4 -260 4q-35 0 -187 -4zM592 625q0 -16 47 -17h348l-84 576h-4l-303 -547q-4 -8 -4 -12zM801 1532q0 27 43 53l295 180l135 -96l-352 -135q-70 -27 -97 -27 q-24 0 -24 25z" />
<glyph unicode="&#xc2;" horiz-adv-x="1392" d="M4 0l8 41q4 16 19 16q72 4 120 36t103 126l659 1118q25 45 42.5 61.5t39.5 16.5q20 0 27.5 -15.5t13.5 -49.5l193 -1166q8 -63 36.5 -90.5t88.5 -34.5l20 -2q20 0 17 -16l-9 -41l-4 -4q-143 4 -233 4q-117 0 -268 -4l-3 4l9 41q6 16 18 16l57 4q102 8 103 74q0 12 -2 21 l-51 362h-418q-59 0 -78 -37l-176 -311h-2q-14 -23 -15 -49q0 -53 78 -60l56 -4q16 0 12 -16l-6 -41l-6 -4q-143 4 -260 4q-35 0 -187 -4zM592 625q0 -16 47 -17h348l-84 576h-4l-303 -547q-4 -8 -4 -12zM774 1552q131 90 254 203h90q61 -109 164 -203l-43 -45 q-115 59 -192 133q-121 -78 -252 -133z" />
<glyph unicode="&#xc3;" horiz-adv-x="1392" d="M4 0l8 41q4 16 19 16q72 4 120 36t103 126l659 1118q25 45 42.5 61.5t39.5 16.5q20 0 27.5 -15.5t13.5 -49.5l193 -1166q8 -63 36.5 -90.5t88.5 -34.5l20 -2q20 0 17 -16l-9 -41l-4 -4q-143 4 -233 4q-117 0 -268 -4l-3 4l9 41q6 16 18 16l57 4q102 8 103 74q0 12 -2 21 l-51 362h-418q-59 0 -78 -37l-176 -311h-2q-14 -23 -15 -49q0 -53 78 -60l56 -4q16 0 12 -16l-6 -41l-6 -4q-143 4 -260 4q-35 0 -187 -4zM592 625q0 -16 47 -17h348l-84 576h-4l-303 -547q-4 -8 -4 -12zM696 1520q80 193 205 192q68 0 137 -61q55 -47 101 -47h-2 q35 0 63.5 23.5t63.5 88.5l49 -12q-78 -195 -221 -195q-45 0 -121 56q-66 49 -105 49q-72 0 -123 -105z" />
<glyph unicode="&#xc4;" horiz-adv-x="1392" d="M4 0l8 41q4 16 19 16q72 4 120 36t103 126l659 1118q25 45 42.5 61.5t39.5 16.5q20 0 27.5 -15.5t13.5 -49.5l193 -1166q8 -63 36.5 -90.5t88.5 -34.5l20 -2q20 0 17 -16l-9 -41l-4 -4q-143 4 -233 4q-117 0 -268 -4l-3 4l9 41q6 16 18 16l57 4q102 8 103 74q0 12 -2 21 l-51 362h-418q-59 0 -78 -37l-176 -311h-2q-14 -23 -15 -49q0 -53 78 -60l56 -4q16 0 12 -16l-6 -41l-6 -4q-143 4 -260 4q-35 0 -187 -4zM592 625q0 -16 47 -17h348l-84 576h-4l-303 -547q-4 -8 -4 -12zM651 1518q0 43 30 73.5t71 30.5t70.5 -30.5t29.5 -73.5 q0 -41 -29.5 -72t-70.5 -31t-71 31t-30 72zM1147 1518q0 43 29.5 73.5t70.5 30.5t71 -30.5t30 -73.5q0 -41 -30 -72t-71 -31t-70.5 31t-29.5 72z" />
<glyph unicode="&#xc5;" horiz-adv-x="1392" d="M4 2l8 41q4 16 19 16q72 4 120 36t103 126l659 1118q12 20 19 29q-59 12 -92 61.5t-21 112.5l-2 2q14 74 77.5 126t137.5 52t117 -52t29 -126q-10 -55 -52.5 -101t-97.5 -67q4 -8 6 -24l193 -1166q10 -61 37.5 -89.5t87.5 -35.5l20 -2q20 0 17 -16l-9 -41l-4 -4 q-147 4 -233 4q-117 0 -269 -4l-2 4l9 41q6 16 18 16l57 7q102 6 103 71q0 14 -2 21l-51 362h-418q-59 0 -78 -37l-176 -311q-14 -27 -15 -49q0 -55 78 -57l56 -7q16 0 12 -16l-6 -41l-6 -4q-143 4 -260 4q-35 0 -187 -4zM594 625q0 -16 47 -17h348l-84 576h-4l-303 -547 q-4 -8 -4 -12zM895 1544q-10 -49 11.5 -85t66.5 -36q47 0 84 36t47 85t-13.5 85t-68.5 36q-47 0 -82 -36t-45 -85z" />
<glyph unicode="&#xc6;" horiz-adv-x="1732" d="M4 0l8 41q4 16 23 16l47 4q55 6 80.5 27t77.5 94l718 1059q23 39 7.5 59.5t-47.5 24.5l-62 4q-16 0 -12 14l8 43l4 3l352 -3h154h444q-14 -164 -18 -329l-59 -13q-8 59 -12.5 86t-16.5 67t-29.5 57.5t-48.5 31.5t-76 14h-200q-70 0 -91 -94l-81 -426h204q51 0 76 22.5 t43 71.5l27 66q4 16 18 16h43q6 0 6 -8q-45 -147 -55 -205q-8 -41 -15.5 -117.5t-9.5 -86.5l-4 -9h-45q-14 0 -14 17l2 65q2 49 -17.5 72t-68.5 23h-205l-102 -547q-12 -76 59 -76h260q106 0 176 74.5t131 212.5l60 -13q-80 -199 -119 -358h-680l-258 -4l-4 4l8 39 q4 18 19 18l53 4q61 6 90 29t39 70l78 411h-357l-288 -426q-27 -41 -32 -55t5 -19t49 -10l57 -4q10 0 11 -12l-8 -45l-3 -4q-135 4 -215 4l-182 -4zM666 655h317l111 582q10 43 -2 49z" />
<glyph unicode="&#xc7;" horiz-adv-x="1286" d="M188 518q0 82 15 160q59 311 290.5 524t487.5 213q109 0 188.5 -22.5t134 -47t97.5 -26.5q-14 -141 -19 -334l-59 -8q-33 358 -379 358q-63 0 -143 -36.5t-164 -106.5t-153.5 -195t-98.5 -278q-16 -82 -16 -180q0 -203 89 -336t265 -133q141 0 261 54t249 179 q29 0 39 -33q-225 -256 -496 -284l-69 -127q25 6 53 6q55 0 89 -29t34 -78q0 -82 -78 -134t-178 -52q-78 0 -148 37q6 33 31 55q76 -31 115 -31q57 0 91 30t34 79q0 51 -56 51h4q-55 0 -96 -12l-10 12l110 184q-256 2 -385 156t-129 385z" />
<glyph unicode="&#xc8;" horiz-adv-x="1099" d="M23 0l8 43q4 14 18 14l62 4q59 4 85.5 26t34.5 69l203 1073q4 20 4 28q0 61 -90 68l-57 4q-16 0 -12 14l8 43l4 5q188 -4 252 -5h508q49 0 96 9q8 0 8 -6l2 -3q0 -135 -16 -311l-60 -10q-14 127 -49 180t-137 53h-209q-76 0 -88 -71l-84 -453h254q51 0 77.5 21.5 t39.5 68.5l16 54q4 18 19 18h43l6 -8q-33 -127 -43 -195q-18 -94 -27 -186l-10 -6h-45q-16 0 -10 16l4 53v21q0 35 -19.5 48t-68.5 13h-254l-103 -538q-2 -10 -2 -23q0 -47 62 -47h272q197 0 324 283l61 -13l-143 -358q-158 4 -254 4h-430q-68 0 -256 -4zM582 1661l180 96 l213 -180q25 -20 24 -37q0 -12 -10 -26.5t-31 -14.5q-25 0 -84 25z" />
<glyph unicode="&#xc9;" horiz-adv-x="1099" d="M23 0l8 43q4 14 18 14l62 4q59 4 85.5 26t34.5 69l203 1073q4 20 4 28q0 61 -90 68l-57 4q-16 0 -12 14l8 43l4 5q188 -4 252 -5h508q49 0 96 9q8 0 8 -6l2 -3q0 -135 -16 -311l-60 -10q-14 127 -49 180t-137 53h-209q-76 0 -88 -71l-84 -453h254q51 0 77.5 21.5 t39.5 68.5l16 54q4 18 19 18h43l6 -8q-33 -127 -43 -195q-18 -94 -27 -186l-10 -6h-45q-16 0 -10 16l4 53v21q0 35 -19.5 48t-68.5 13h-254l-103 -538q-2 -10 -2 -23q0 -47 62 -47h272q197 0 324 283l61 -13l-143 -358q-158 4 -254 4h-430q-68 0 -256 -4zM551 1518 q0 29 45 55l295 180l135 -96l-354 -137q-66 -25 -94 -25q-27 0 -27 23z" />
<glyph unicode="&#xca;" horiz-adv-x="1099" d="M23 0l8 43q4 14 18 14l62 4q59 4 85.5 26t34.5 69l203 1073q4 20 4 28q0 61 -90 68l-57 4q-16 0 -12 14l8 43l4 5q188 -4 252 -5h508q49 0 96 9q8 0 8 -6l2 -3q0 -135 -16 -311l-60 -10q-14 127 -49 180t-137 53h-209q-76 0 -88 -71l-84 -453h254q51 0 77.5 21.5 t39.5 68.5l16 54q4 18 19 18h43l6 -8q-33 -127 -43 -195q-18 -94 -27 -186l-10 -6h-45q-16 0 -10 16l4 53v21q0 35 -19.5 48t-68.5 13h-254l-103 -538q-2 -10 -2 -23q0 -47 62 -47h272q197 0 324 283l61 -13l-143 -358q-158 4 -254 4h-430q-68 0 -256 -4zM588 1540 q119 80 252 203h90q61 -109 164 -203l-43 -45q-115 59 -193 133q-127 -80 -252 -133z" />
<glyph unicode="&#xcb;" horiz-adv-x="1099" d="M23 0l8 43q4 14 18 14l62 4q59 4 85.5 26t34.5 69l203 1073q4 20 4 28q0 61 -90 68l-57 4q-16 0 -12 14l8 43l4 5q188 -4 252 -5h508q49 0 96 9q8 0 8 -6l2 -3q0 -135 -16 -311l-60 -10q-14 127 -49 180t-137 53h-209q-76 0 -88 -71l-84 -453h254q51 0 77.5 21.5 t39.5 68.5l16 54q4 18 19 18h43l6 -8q-33 -127 -43 -195q-18 -94 -27 -186l-10 -6h-45q-16 0 -10 16l4 53v21q0 35 -19.5 48t-68.5 13h-254l-103 -538q-2 -10 -2 -23q0 -47 62 -47h272q197 0 324 283l61 -13l-143 -358q-158 4 -254 4h-430q-68 0 -256 -4zM571 1577q0 2 2 7 t2 9q8 41 42 69t73 28q35 0 55.5 -21.5t20.5 -54.5q0 -4 -1 -11.5t-1 -9.5q-8 -41 -41 -68.5t-72 -27.5q-33 0 -56.5 23.5t-23.5 56.5zM969 1579q0 10 2 16q8 39 40.5 68t71.5 29q35 0 56.5 -21.5t21.5 -54.5q0 -16 -2 -21q-6 -41 -39 -69.5t-71 -28.5q-35 0 -57.5 23.5 t-22.5 58.5z" />
<glyph unicode="&#xcc;" horiz-adv-x="585" d="M39 30.5q2 20.5 8 26.5l66 9q63 6 91.5 28.5t37.5 69.5l202 1059q10 49 -10 71.5t-82 28.5l-69 6q-4 8 -1 31.5t7 30.5q184 -4 264 -5q63 0 252 5q6 -14 4 -35t-8 -27l-66 -6q-115 -10 -129 -100l-203 -1059q-10 -49 10.5 -71.5t82.5 -26.5l69 -9q4 -8 1 -31.5t-7 -29.5 q-184 4 -264 4q-63 0 -252 -4q-6 14 -4 34.5zM440 1659l183 96l213 -180q23 -23 22 -37q0 -41 -39 -41q-29 0 -84 25z" />
<glyph unicode="&#xcd;" horiz-adv-x="585" d="M39 30.5q2 20.5 8 26.5l66 9q63 6 91.5 28.5t37.5 69.5l202 1059q10 49 -10 71.5t-82 28.5l-69 6q-4 8 -1 31.5t7 30.5q184 -4 264 -5q63 0 252 5q6 -14 4 -35t-8 -27l-66 -6q-115 -10 -129 -100l-203 -1059q-10 -49 10.5 -71.5t82.5 -26.5l69 -9q4 -8 1 -31.5t-7 -29.5 q-184 4 -264 4q-63 0 -252 -4q-6 14 -4 34.5zM412 1520q0 29 43 55l295 180l135 -96l-353 -137q-66 -25 -96 -25q-24 0 -24 23z" />
<glyph unicode="&#xce;" horiz-adv-x="585" d="M39 30.5q2 20.5 8 26.5l66 9q63 6 91.5 28.5t37.5 69.5l202 1059q10 49 -10 71.5t-82 28.5l-69 6q-4 8 -1 31.5t7 30.5q184 -4 264 -5q63 0 252 5q6 -14 4 -35t-8 -27l-66 -6q-115 -10 -129 -100l-203 -1059q-10 -49 10.5 -71.5t82.5 -26.5l69 -9q4 -8 1 -31.5t-7 -29.5 q-184 4 -264 4q-63 0 -252 -4q-6 14 -4 34.5zM324 1542q121 80 254 203h88q68 -117 165 -203l-43 -45q-121 63 -192 133q-123 -78 -254 -133z" />
<glyph unicode="&#xcf;" horiz-adv-x="585" d="M39 30.5q2 20.5 8 26.5l66 9q63 6 91.5 28.5t37.5 69.5l202 1059q10 49 -10 71.5t-82 28.5l-69 6q-4 8 -1 31.5t7 30.5q184 -4 264 -5q63 0 252 5q6 -14 4 -35t-8 -27l-66 -6q-115 -10 -129 -100l-203 -1059q-10 -49 10.5 -71.5t82.5 -26.5l69 -9q4 -8 1 -31.5t-7 -29.5 q-184 4 -264 4q-63 0 -252 -4q-6 14 -4 34.5zM305 1579q0 2 1 7t1 9q8 39 42 68t73 29q35 0 56.5 -21.5t21.5 -54.5q0 -4 -1 -11.5t-1 -9.5q-8 -39 -41 -67.5t-72 -28.5q-35 0 -57.5 22.5t-22.5 57.5zM702 1581q0 10 3 16q8 39 40.5 68t71.5 29q33 0 55.5 -21.5t22.5 -54.5 q0 -16 -2 -21q-8 -41 -41 -69.5t-72 -28.5q-33 0 -55.5 23.5t-22.5 58.5z" />
<glyph unicode="&#xd0;" horiz-adv-x="1392" d="M31 -2l6 39l-4 -2q4 18 20 18l60 4q55 4 84.5 25.5t38.5 73.5l88 456h-138l17 84h137l100 531q4 14 4 37q0 31 -19 42t-73 15l-53 4q-18 0 -14 16l6 41l6 4q188 -4 252 -4q35 0 146.5 2t181.5 2q250 0 409.5 -165.5t159.5 -415.5q0 -72 -12 -146q-29 -152 -93.5 -271.5 t-143.5 -192t-177 -119.5t-187.5 -64.5t-181.5 -17.5q-119 0 -228.5 2t-131.5 2q-68 0 -256 -4zM397 127q0 -35 41 -47t166 -12q532 0 635 540q18 98 18 197q0 223 -111.5 368.5t-354.5 145.5q-84 0 -129.5 -16.5t-55.5 -67.5l-100 -535h266l-16 -84h-264l-89 -458l-2 -2 q-4 -25 -4 -29z" />
<glyph unicode="&#xd1;" horiz-adv-x="1390" d="M18 0l9 39q4 18 30 18l52 4q57 6 90.5 42t42.5 85l188 996q-2 47 -33.5 93t-77.5 52q-8 2 -14 3t-10 5t-4 9l6 40l8 5h273l505 -955q63 -119 80 -119q14 0 25 66l155 815q4 20 5 33q0 86 -88 94l-50 4q-10 0 -19 5t-7 12l8 40l4 5q188 -4 231 -5q31 0 220 5l2 -5l-7 -40 q-4 -16 -18 -17l-57 -4q-109 -8 -131 -127l-219 -1155q-14 -68 -56 -68q-39 0 -71 54l-521 948q-37 70 -55 70q-23 0 -39 -105l-143 -756q-4 -20 -4 -30q0 -86 90 -95l53 -4q16 0 12 -16l-8 -41l-4 -4q-188 4 -219 4q-41 0 -229 -4zM756 1507q43 98 91 145.5t113.5 47.5 t139.5 -62q55 -47 98 -47h-2q37 0 65.5 23.5t63.5 89.5l47 -14q-74 -193 -219 -193q-45 0 -121 55q-63 47 -104 47q-72 0 -123 -102z" />
<glyph unicode="&#xd2;" horiz-adv-x="1394" d="M182 504q0 70 17 164q59 317 273 532t478 215q231 0 378 -149.5t147 -399.5q0 -80 -15 -159q-61 -326 -272 -528t-496 -202q-227 0 -368.5 142.5t-141.5 384.5zM375 522q0 -219 106.5 -345t263.5 -126q176 0 322.5 167t200.5 450q20 111 20 215q0 223 -101.5 340.5 t-275.5 117.5h2q-156 0 -308 -162.5t-212 -476.5q-18 -96 -18 -180zM805 1659l180 96l213 -180q25 -23 25 -37q0 -41 -41 -41q-27 0 -82 25z" />
<glyph unicode="&#xd3;" horiz-adv-x="1394" d="M182 504q0 70 17 164q59 317 273 532t478 215q231 0 378 -149.5t147 -399.5q0 -80 -15 -159q-61 -326 -272 -528t-496 -202q-227 0 -368.5 142.5t-141.5 384.5zM375 522q0 -219 106.5 -345t263.5 -126q176 0 322.5 167t200.5 450q20 111 20 215q0 223 -101.5 340.5 t-275.5 117.5h2q-156 0 -308 -162.5t-212 -476.5q-18 -96 -18 -180zM772 1520q0 29 45 55l295 180l135 -96l-352 -137q-68 -25 -96 -25q-27 0 -27 23z" />
<glyph unicode="&#xd4;" horiz-adv-x="1394" d="M182 504q0 70 17 164q59 317 273 532t478 215q231 0 378 -149.5t147 -399.5q0 -80 -15 -159q-61 -326 -272 -528t-496 -202q-227 0 -368.5 142.5t-141.5 384.5zM375 522q0 -219 106.5 -345t263.5 -126q176 0 322.5 167t200.5 450q20 111 20 215q0 223 -101.5 340.5 t-275.5 117.5h2q-156 0 -308 -162.5t-212 -476.5q-18 -96 -18 -180zM748 1542q121 80 253 203h89q68 -117 165 -203l-43 -45q-121 63 -192 133q-123 -78 -254 -133z" />
<glyph unicode="&#xd5;" horiz-adv-x="1394" d="M182 504q0 70 17 164q59 317 273 532t478 215q231 0 378 -149.5t147 -399.5q0 -80 -15 -159q-61 -326 -272 -528t-496 -202q-227 0 -368.5 142.5t-141.5 384.5zM375 522q0 -219 106.5 -345t263.5 -126q176 0 322.5 167t200.5 450q20 111 20 215q0 223 -101.5 340.5 t-275.5 117.5h2q-156 0 -308 -162.5t-212 -476.5q-18 -96 -18 -180zM670 1509q84 193 204 193q66 0 140 -62q55 -47 100 -47h-2q35 0 63.5 23.5t63.5 89.5l47 -14q-74 -193 -219 -193q-45 0 -121 55q-63 47 -104 48q-74 0 -123 -103z" />
<glyph unicode="&#xd6;" horiz-adv-x="1394" d="M182 504q0 70 17 164q59 317 273 532t478 215q231 0 378 -149.5t147 -399.5q0 -80 -15 -159q-61 -326 -272 -528t-496 -202q-227 0 -368.5 142.5t-141.5 384.5zM375 522q0 -219 106.5 -345t263.5 -126q176 0 322.5 167t200.5 450q20 111 20 215q0 223 -101.5 340.5 t-275.5 117.5h2q-156 0 -308 -162.5t-212 -476.5q-18 -96 -18 -180zM438 1518q0 43 30 73.5t71 30.5t70.5 -30.5t29.5 -73.5q0 -41 -29.5 -72t-70.5 -31t-71 31t-30 72zM1292 1518q0 43 30 73.5t71 30.5t70.5 -30.5t29.5 -73.5q0 -41 -29.5 -72t-70.5 -31t-71 31t-30 72z " />
<glyph unicode="&#xd7;" horiz-adv-x="1079" d="M256 221l295 250l-207 252l84 72l207 -252l297 252l57 -72l-295 -252l205 -250l-84 -71l-205 249l-295 -249z" />
<glyph unicode="&#xd8;" horiz-adv-x="1394" d="M141 -39l164 174q-125 141 -125 369q0 70 17 164q59 317 273 532t478 215q248 0 393 -164l177 191l47 -56l-183 -196q88 -133 88 -324q0 -80 -14 -159q-61 -326 -272 -528t-496 -202q-199 0 -330 107l-161 -176zM371 522q0 -150 51 -262l815 877q-94 203 -328 202v2 q-156 0 -308 -162.5t-212 -476.5q-18 -96 -18 -180zM465 195q106 -143 280 -144q176 0 322.5 167t200.5 450q20 111 20 215q0 102 -20 178z" />
<glyph unicode="&#xd9;" horiz-adv-x="1325" d="M252 1343l6 41l8 5q184 -4 252 -5q72 0 256 5l4 -5l-8 -41q-4 -16 -18 -16l-52 -4q-115 -10 -131 -94l-123 -654q-25 -135 -24 -206q0 -121 59 -197q80 -106 217 -106q98 0 175 32.5t124 81.5t83 125t53.5 139.5t33.5 149.5l119 629q4 25 4 30q0 63 -94 72l-53 4 q-16 0 -13 17l9 40l4 5q188 -4 219 -5q33 0 221 5l4 -5l-8 -40q-4 -16 -18 -17l-54 -4q-111 -10 -129 -98l-112 -592q-31 -156 -73 -266.5t-112.5 -203.5t-181.5 -140.5t-260 -47.5l-4 -4q-66 0 -126 16.5t-120.5 55.5t-97.5 118t-37 189q0 76 16 152l138 723q4 20 4 26 q0 61 -95 70l-51 4q-14 0 -14 16zM805 1653l180 98l213 -180q25 -23 25 -37q0 -41 -41 -41q-27 0 -82 25z" />
<glyph unicode="&#xda;" horiz-adv-x="1325" d="M252 1343l6 41l8 5q184 -4 252 -5q72 0 256 5l4 -5l-8 -41q-4 -16 -18 -16l-52 -4q-115 -10 -131 -94l-123 -654q-25 -135 -24 -206q0 -121 59 -197q80 -106 217 -106q98 0 175 32.5t124 81.5t83 125t53.5 139.5t33.5 149.5l119 629q4 25 4 30q0 63 -94 72l-53 4 q-16 0 -13 17l9 40l4 5q188 -4 219 -5q33 0 221 5l4 -5l-8 -40q-4 -16 -18 -17l-54 -4q-111 -10 -129 -98l-112 -592q-31 -156 -73 -266.5t-112.5 -203.5t-181.5 -140.5t-260 -47.5l-4 -4q-66 0 -126 16.5t-120.5 55.5t-97.5 118t-37 189q0 76 16 152l138 723q4 20 4 26 q0 61 -95 70l-51 4q-14 0 -14 16zM774 1516q0 29 45 55l295 180l135 -98l-352 -135q-68 -25 -96 -25q-27 0 -27 23z" />
<glyph unicode="&#xdb;" horiz-adv-x="1325" d="M252 1343l6 41l8 5q184 -4 252 -5q72 0 256 5l4 -5l-8 -41q-4 -16 -18 -16l-52 -4q-115 -10 -131 -94l-123 -654q-25 -135 -24 -206q0 -121 59 -197q80 -106 217 -106q98 0 175 32.5t124 81.5t83 125t53.5 139.5t33.5 149.5l119 629q4 25 4 30q0 63 -94 72l-53 4 q-16 0 -13 17l9 40l4 5q188 -4 219 -5q33 0 221 5l4 -5l-8 -40q-4 -16 -18 -17l-54 -4q-111 -10 -129 -98l-112 -592q-31 -156 -73 -266.5t-112.5 -203.5t-181.5 -140.5t-260 -47.5l-4 -4q-66 0 -126 16.5t-120.5 55.5t-97.5 118t-37 189q0 76 16 152l138 723q4 20 4 26 q0 61 -95 70l-51 4q-14 0 -14 16zM750 1538q115 76 254 201h88q70 -117 165 -201l-43 -45q-121 63 -192 133q-111 -74 -254 -133z" />
<glyph unicode="&#xdc;" horiz-adv-x="1325" d="M261.5 283.5q-17.5 93.5 10.5 224.5l134 702q10 57 -25 85t-94 34q-8 0 -12.5 5t-2.5 14l9 38l4 5q143 -4 233 -5q45 0 95.5 2.5t72.5 2.5q23 2 16 -31q-4 -25 -32 -31q-86 -25 -109 -135l-117 -616q-27 -94 -24.5 -211t59.5 -193q78 -106 217 -106q119 0 207 46 t138.5 131t77 163.5t46.5 187.5l107 565q27 152 -51 168q-33 6 -27 29q4 35 39 33q25 0 64.5 -2.5t62.5 -2.5q51 0 203 5l2 -5l-6 -38q-4 -16 -56 -19q-57 -4 -91 -45t-44 -94l-104 -555q-29 -156 -71 -266.5t-112.5 -203.5t-181.5 -140.5t-262 -47.5h-2q-59 0 -113.5 13.5 t-115 47.5t-94 93t-51 152.5zM723 1520q0 43 28.5 72.5t69.5 29.5t70 -29.5t29 -72.5q0 -41 -29 -71t-70 -30t-69.5 30t-28.5 71zM1024 1520q0 43 28.5 72.5t69.5 29.5t70 -29.5t29 -72.5q0 -41 -29 -71t-70 -30t-69.5 30t-28.5 71z" />
<glyph unicode="&#xdd;" horiz-adv-x="1153" d="M256 1357.5q-2 22.5 2 31.5q119 -4 219 -5q59 0 223 5q4 -6 2 -30t-6 -32l-69 -6q-49 -6 -55.5 -23.5t12.5 -58.5l176 -518h8l332 518q29 47 27.5 63.5t-40.5 20.5l-65 6q-4 6 -2 30.5t6 31.5q160 -4 191 -5q47 0 165 5q4 -6 0 -30t-8 -32l-53 -4q-51 -4 -80 -28.5 t-65 -82.5l-365 -546q-16 -23 -31 -93l-78 -411v-6q-10 -49 10.5 -72t82.5 -29l69 -6q4 -8 1 -31.5t-7 -29.5q-184 4 -264 4q-63 0 -252 -4q-6 14 -4 34.5t8 26.5l66 6q63 8 91.5 31t37.5 70l73 393q6 31 7 53q0 18 -7 41l-192 526q-33 90 -54.5 117t-72.5 35l-31 4 q-6 8 -8 30.5zM823 1513q0 29 43 54l295 182l135 -98l-352 -135q-63 -25 -96 -25q-25 -1 -25 22z" />
<glyph unicode="&#xde;" horiz-adv-x="1026" d="M16 0l9 39q4 16 18 16l53 4q61 4 89 24.5t36 63.5l201 1031q8 45 -12.5 62t-79.5 22l-51 4q-16 0 -13 16l8 39l5 2q170 -2 247 -2l254 2l2 -2l-6 -39q-4 -16 -18 -16l-56 -4q-61 -4 -87.5 -22.5t-34.5 -61.5l-21 -115q70 4 176 4q104 0 180 -23.5t113 -62.5t59.5 -87 t18.5 -97l-8 -95q-12 -63 -49 -126.5t-98.5 -125t-163 -100.5t-226.5 -39q-109 0 -145 15l-35 -179q-8 -47 11.5 -65.5t76.5 -22.5l53 -4q16 0 13 -16l-9 -39l-4 -4q-170 4 -248 4l-254 -4zM426 385q27 -10 137 -10q297 0 361 327q33 166 -31 234t-172 68q-98 0 -178 -23z " />
<glyph unicode="&#xdf;" horiz-adv-x="1112" d="M-166 -387q0 27 18.5 46t53.5 19q55 0 86 -49q29 -47 55 -47q59 0 103 90q16 35 31.5 88.5t32.5 138.5l26 127l27.5 150.5t19.5 112.5q70 385 90 487q0 16 -4 19.5t-21 3.5h-84q-16 0 -16 14q0 20 14.5 43t46.5 23q84 0 109 98q125 453 491 453q129 0 192.5 -55.5 t63.5 -133.5q0 -193 -319 -399v-4q59 -47 93 -78t80 -82t67.5 -110.5t21.5 -125.5q0 -160 -121 -311t-295 -151q-172 0 -172 135t84 135q57 0 57.5 -41t-22 -73t-22.5 -44q0 -45 92 -45q74 0 142.5 121t68.5 246q0 211 -205 397l6 27q31 20 67.5 51t90 85t88.5 124.5 t35 142.5q0 123 -125 123q-61 0 -110.5 -28.5t-81.5 -67.5t-58.5 -107.5t-41 -121t-32.5 -134.5l-31 -139l2 2l-70 -341q-48 -237 -73 -343.5t-72 -243.5t-98 -211q-84 -115 -209 -114q-94 0 -133 29.5t-39 68.5z" />
<glyph unicode="&#xe0;" horiz-adv-x="995" d="M160 256q0 233 173 438t343 205q53 0 164 -12v-2q16 -4 143 -4l-141 -637q-20 -96 -21 -115q0 -29 25 -29q35 0 115 109q29 0 47 -31q-90 -199 -263 -198q-84 0 -83 92q0 45 20 112l27 86l-4 4q-199 -295 -347 -294q-198 0 -198 276zM324 289q0 -197 90 -197 q49 0 148.5 109.5t174.5 247.5q51 131 72 348q-61 39 -127 39q-133 0 -245.5 -186.5t-112.5 -360.5zM582 1307l8 22q70 47 143 47q14 0 31 -4l88 -258q8 -25 4 -49q-4 -23 -35 -23q-16 0 -51 41z" />
<glyph unicode="&#xe1;" horiz-adv-x="995" d="M160 256q0 233 173 438t343 205q53 0 164 -12v-2q16 -4 143 -4l-141 -637q-20 -96 -21 -115q0 -29 25 -29q35 0 115 109q29 0 47 -31q-90 -199 -263 -198q-84 0 -83 92q0 45 20 112l27 86l-4 4q-199 -295 -347 -294q-198 0 -198 276zM324 289q0 -197 90 -197 q49 0 148.5 109.5t174.5 247.5q51 131 72 348q-61 39 -127 39q-133 0 -245.5 -186.5t-112.5 -360.5zM514 1061q4 20 35 57l205 244h2q12 4 28 4q61 0 103 -47l2 -23l-281 -223q-47 -39 -69 -39q-10 0 -18.5 8.5t-6.5 18.5z" />
<glyph unicode="&#xe2;" horiz-adv-x="995" d="M160 256q0 233 173 438t343 205q53 0 164 -12v-2q16 -4 143 -4l-141 -637q-20 -96 -21 -115q0 -29 25 -29q35 0 115 109q29 0 47 -31q-90 -199 -263 -198q-84 0 -83 92q0 45 20 112l27 86l-4 4q-199 -295 -347 -294q-198 0 -198 276zM324 289q0 -197 90 -197 q49 0 148.5 109.5t174.5 247.5q51 131 72 348q-61 39 -127 39q-133 0 -245.5 -186.5t-112.5 -360.5zM416 1071q184 168 264 264h102q43 -106 154 -264l-49 -29q-123 109 -180 185q-109 -92 -256 -185z" />
<glyph unicode="&#xe3;" horiz-adv-x="995" d="M160 256q0 233 173 438t343 205q53 0 164 -12v-2q16 -4 143 -4l-141 -637q-20 -96 -21 -115q0 -29 25 -29q35 0 115 109q29 0 47 -31q-90 -199 -263 -198q-84 0 -83 92q0 45 20 112l27 86l-4 4q-199 -295 -347 -294q-198 0 -198 276zM324 289q0 -197 90 -197 q49 0 148.5 109.5t174.5 247.5q51 131 72 348q-61 39 -127 39q-133 0 -245.5 -186.5t-112.5 -360.5zM377 1075q80 182 201 182q66 0 135 -57q53 -45 98 -45h-2q68 0 125 107l47 -13q-74 -184 -215 -184q-51 0 -119 53q-59 45 -102 45q-70 0 -121 -98z" />
<glyph unicode="&#xe4;" horiz-adv-x="995" d="M160 256q0 233 173 438t343 205q53 0 164 -12v-2q16 -4 143 -4l-141 -637q-20 -96 -21 -115q0 -29 25 -29q35 0 115 109q29 0 47 -31q-90 -199 -263 -198q-84 0 -83 92q0 45 20 112l27 86l-4 4q-199 -295 -347 -294q-198 0 -198 276zM324 289q0 -197 90 -197 q49 0 148.5 109.5t174.5 247.5q51 131 72 348q-61 39 -127 39q-133 0 -245.5 -186.5t-112.5 -360.5zM469 1171.5q0 38.5 27.5 66.5t66.5 28t66.5 -28t27.5 -66.5t-27.5 -66.5t-66.5 -28t-66.5 28t-27.5 66.5zM797 1171.5q0 38.5 27.5 66.5t66.5 28t66.5 -28t27.5 -66.5 t-27.5 -66.5t-66.5 -28t-66.5 28t-27.5 66.5z" />
<glyph unicode="&#xe5;" horiz-adv-x="995" d="M160 256q0 233 173 438t343 205q53 0 164 -12v-2q16 -4 143 -4l-141 -637q-20 -96 -21 -115q0 -29 25 -29q35 0 115 109q29 0 47 -31q-90 -199 -263 -198q-84 0 -83 92q0 45 20 112l27 86l-4 4q-199 -295 -347 -294q-198 0 -198 276zM324 289q0 -197 90 -197 q49 0 148.5 109.5t174.5 247.5q51 131 72 348q-61 39 -127 39q-133 0 -245.5 -186.5t-112.5 -360.5zM522 1212h2q14 70 77 120t134.5 50t114.5 -49t29 -121q-14 -70 -77 -120t-136 -50q-72 0 -115 50t-29 120zM600 1212q-10 -45 11.5 -79.5t66.5 -34.5t81 34.5t46 79.5 q10 49 -12.5 82t-67.5 33q-47 0 -81 -34t-44 -81z" />
<glyph unicode="&#xe6;" horiz-adv-x="1406" d="M123 166q0 305 606 346q25 117 25 172l-2 -2q0 88 -44 122t-92 34q-70 0 -133 -29t-63 -94q0 -6 1 -15.5t1 -13.5q0 -37 -28.5 -62.5t-69.5 -25.5q-66 0 -66 61q0 96 119 168t262 72q203 0 250 -143q137 143 323 143q143 0 212 -57.5t69 -124.5q0 -63 -38 -110.5t-94 -74 t-147.5 -46t-168 -26.5t-183.5 -14q-12 -57 -12 -112q0 -117 56.5 -185.5t152.5 -68.5q139 0 264 113l29 -21q-66 -86 -157 -139t-189 -53q-199 0 -283 141q-59 -63 -147.5 -102t-172.5 -39q-137 0 -208.5 50t-71.5 136zM272 180q0 -117 152 -117q133 0 213 142 q31 55 74 233v-2q-59 -4 -119 -15t-140.5 -37t-130 -78t-49.5 -126zM881 514q104 6 168.5 13.5t137.5 26.5t108.5 57t35.5 96q0 47 -38 82.5t-101 35.5q-100 0 -184 -88t-127 -223z" />
<glyph unicode="&#xe7;" horiz-adv-x="796" d="M176 305q0 248 140.5 421t322.5 173q131 0 182 -61.5t51 -139.5q0 -92 -106 -92q-25 0 -40 19.5t-15 46.5q0 29 10 43q10 16 10 39q0 45 -27.5 63.5t-58.5 18.5q-125 0 -213 -132.5t-88 -353.5q0 -135 51 -200q41 -55 103 -56q129 0 231 115q33 0 45 -39 q-78 -84 -134 -126t-126 -56l-68 -115q25 6 54 6q53 0 87 -27.5t34 -72.5q0 -80 -77 -129t-175 -49q-72 0 -146 34q6 33 29 54q72 -29 113 -29q55 0 88.5 28.5t33.5 73.5q0 49 -55 50h6q-53 0 -94 -13l-10 13l104 168h-4q-125 0 -196 98q-62 88 -62 227z" />
<glyph unicode="&#xe8;" horiz-adv-x="831" d="M170 291q0 80 18.5 163t59.5 163.5t99.5 143t144.5 100.5t186 38q203 0 203 -143q0 -29 -3.5 -47.5t-17.5 -53t-49 -64.5t-91 -63.5t-153.5 -64.5t-224.5 -55q-2 -16 -2 -70q0 -131 40 -183.5t116 -52.5q74 0 133 32t145 120q33 0 47 -33q-188 -242 -399 -241 q-252 0 -252 311zM356 485q92 12 170 38t144.5 87.5t66.5 147.5v-2q0 43 -24.5 60.5t-81.5 17.5q-189 -1 -275 -349zM506 1307l8 22q72 47 143 47q14 0 31 -4l88 -258q8 -25 4 -49q-4 -23 -35 -23q-16 0 -51 41z" />
<glyph unicode="&#xe9;" horiz-adv-x="831" d="M170 291q0 80 18.5 163t59.5 163.5t99.5 143t144.5 100.5t186 38q203 0 203 -143q0 -29 -3.5 -47.5t-17.5 -53t-49 -64.5t-91 -63.5t-153.5 -64.5t-224.5 -55q-2 -16 -2 -70q0 -131 40 -183.5t116 -52.5q74 0 133 32t145 120q33 0 47 -33q-188 -242 -399 -241 q-252 0 -252 311zM356 485q92 12 170 38t144.5 87.5t66.5 147.5v-2q0 43 -24.5 60.5t-81.5 17.5q-189 -1 -275 -349zM524 1061q4 20 35 57l205 244h2q12 4 29 4q61 0 102 -47l2 -23l-281 -223q-47 -39 -69 -39q-10 0 -18.5 8.5t-6.5 18.5z" />
<glyph unicode="&#xea;" horiz-adv-x="831" d="M170 291q0 80 18.5 163t59.5 163.5t99.5 143t144.5 100.5t186 38q203 0 203 -143q0 -29 -3.5 -47.5t-17.5 -53t-49 -64.5t-91 -63.5t-153.5 -64.5t-224.5 -55q-2 -16 -2 -70q0 -131 40 -183.5t116 -52.5q74 0 133 32t145 120q33 0 47 -33q-188 -242 -399 -241 q-252 0 -252 311zM350 1071q184 168 264 264h103q43 -106 153 -264l-49 -29q-123 109 -180 185q-109 -92 -256 -185zM356 485q92 12 170 38t144.5 87.5t66.5 147.5v-2q0 43 -24.5 60.5t-81.5 17.5q-189 -1 -275 -349z" />
<glyph unicode="&#xeb;" horiz-adv-x="831" d="M170 291q0 80 18.5 163t59.5 163.5t99.5 143t144.5 100.5t186 38q203 0 203 -143q0 -29 -3.5 -47.5t-17.5 -53t-49 -64.5t-91 -63.5t-153.5 -64.5t-224.5 -55q-2 -16 -2 -70q0 -131 40 -183.5t116 -52.5q74 0 133 32t145 120q33 0 47 -33q-188 -242 -399 -241 q-252 0 -252 311zM356 485q92 12 170 38t144.5 87.5t66.5 147.5v-2q0 43 -24.5 60.5t-81.5 17.5q-189 -1 -275 -349zM397 1171.5q0 38.5 28 66.5t66.5 28t66.5 -28t28 -66.5t-28 -66.5t-66.5 -28t-66.5 28t-28 66.5zM725 1171.5q0 38.5 27.5 66.5t66.5 28t66.5 -28 t27.5 -66.5t-27.5 -66.5t-66.5 -28t-66.5 28t-27.5 66.5z" />
<glyph unicode="&#xec;" horiz-adv-x="565" d="M219 45q0 29 35 188l96 422q18 86 19 105q0 39 -37 41l-82 6q-23 35 -2 57q209 27 254 27q41 0 41 -43q0 -14 -41 -193l-92 -403q-23 -98 -23 -117q0 -35 21 -35q16 0 55 30t78 73q35 0 47 -35q-150 -190 -285 -191q-84 0 -84 68zM254 1307l8 22q70 47 144 47q14 0 30 -4 l88 -258q8 -25 4 -49q-4 -23 -34 -23q-16 0 -52 41z" />
<glyph unicode="&#xed;" horiz-adv-x="565" d="M219 45q0 29 35 188l96 422q18 86 19 105q0 39 -37 41l-82 6q-23 35 -2 57q209 27 254 27q41 0 41 -43q0 -14 -41 -193l-92 -403q-23 -98 -23 -117q0 -35 21 -35q16 0 55 30t78 73q35 0 47 -35q-150 -190 -285 -191q-84 0 -84 68zM385 1090q4 20 35 57l205 244h2 q12 4 28 4q61 0 103 -47l2 -23l-281 -223q-47 -39 -69 -39q-10 0 -18.5 8.5t-6.5 18.5z" />
<glyph unicode="&#xee;" horiz-adv-x="565" d="M209 1071q184 168 264 264h102q43 -106 154 -264l-49 -29q-123 109 -180 185q-109 -92 -256 -185zM219 45q0 29 35 188l96 422q18 86 19 105q0 39 -37 41l-82 6q-23 35 -2 57q209 27 254 27q41 0 41 -43q0 -14 -41 -193l-92 -403q-23 -98 -23 -117q0 -35 21 -35 q16 0 55 30t78 73q35 0 47 -35q-150 -190 -285 -191q-84 0 -84 68z" />
<glyph unicode="&#xef;" horiz-adv-x="565" d="M219 45q0 29 35 188l96 422q18 86 19 105q0 39 -37 41l-82 6q-23 35 -2 57q209 27 254 27q41 0 41 -43q0 -14 -41 -193l-92 -403q-23 -98 -23 -117q0 -35 21 -35q16 0 55 30t78 73q35 0 47 -35q-150 -190 -285 -191q-84 0 -84 68zM236 1171.5q0 38.5 27.5 66.5t66.5 28 t66.5 -28t27.5 -66.5t-27.5 -66.5t-66.5 -28t-66.5 28t-27.5 66.5zM563 1171.5q0 38.5 27.5 66.5t66.5 28t67 -28t28 -66.5t-28 -66.5t-67 -28t-66.5 28t-27.5 66.5z" />
<glyph unicode="&#xf0;" horiz-adv-x="978" d="M154 305q0 63 14 121q29 125 92.5 223.5t142 150.5t154.5 78.5t143 26.5q88 0 152 -28q-31 164 -115 307l-258 -150l-28 66l247 143l-24 35q-37 53 -111 119l41 43q106 -66 184 -144l252 146l29 -66l-229 -135l28 -35q170 -207 170 -504q0 -109 -26 -217 q-57 -246 -216 -378t-345 -132q-147 0 -222 94.5t-75 235.5zM317 322q0 -121 51.5 -194t135.5 -73q94 0 189 90.5t147 311.5q29 127 28 245q0 6 -1 17.5t-1 15.5q-53 98 -184 99q-74 0 -136.5 -35t-103.5 -94.5t-66.5 -119t-39.5 -124.5q-19 -73 -19 -139z" />
<glyph unicode="&#xf1;" horiz-adv-x="1060" d="M184 35q0 6 27 112l115 510q18 86 18 105q0 37 -37 41l-82 6q-23 35 -2 57q209 27 258 27q41 0 41 -43q0 -14 -7 -44t-20.5 -75t-19.5 -76l-4 -18l2 -2q135 158 216 211t167 53q135 0 135 -164q0 -39 -26 -155l-78 -326l2 -2q-23 -98 -23 -117q0 -35 21 -35q16 0 55 30 t78 73q35 0 47 -35q-150 -190 -291 -191q-84 0 -84 68q0 49 35 188l78 328q27 113 26 139q0 45 -17 59.5t-54 14.5q-94 0 -316 -289l-77 -340q-4 -14 -9.5 -45.5t-9.5 -48t-13 -36t-24.5 -29t-38.5 -9.5q-88 1 -88 58zM463 1085q80 182 201 183q66 0 135 -58q53 -45 98 -45 h-2q68 0 125 107l47 -12q-74 -184 -215 -185q-51 0 -119 53q-59 45 -102 46q-70 0 -121 -99z" />
<glyph unicode="&#xf2;" horiz-adv-x="915" d="M156 332q0 96 31.5 193.5t91 182.5t159 138t221.5 53q289 0 289 -332q0 -176 -90 -327.5t-227 -221.5q-76 -39 -187 -38q-92 0 -153.5 37.5t-88 99t-35.5 112t-9 103.5h-2zM326 348v2q0 -145 55 -221t113 -76q125 0 198 129q86 152 86 373q0 113 -37 184q-45 92 -118 92 q-82 0 -143.5 -48t-93.5 -125.5t-46 -154.5t-14 -155zM547 1309l8 22q72 47 143 47q14 0 31 -4l88 -258q8 -25 4 -49q-4 -23 -35 -23q-16 0 -51 41z" />
<glyph unicode="&#xf3;" horiz-adv-x="915" d="M160 332q0 96 31.5 193.5t91 182.5t159 138t222.5 53q289 0 288 -332q0 -176 -90 -327.5t-227 -221.5q-76 -39 -186 -38q-92 0 -154 37.5t-88.5 99t-35.5 112t-9 103.5h-2zM330 348v2q0 -145 55 -221t113 -76q125 0 198 129q86 152 86 373q0 113 -37 184q-45 92 -118 92 q-82 0 -143.5 -48t-93.5 -125.5t-46 -154.5t-14 -155zM461 1063q4 20 35 57l204 244h2q12 4 29 4q61 0 103 -47l2 -23l-281 -223q-47 -39 -70 -39q-10 0 -18 8.5t-6 18.5z" />
<glyph unicode="&#xf4;" horiz-adv-x="915" d="M160 332q0 96 31.5 193.5t91 182.5t159 138t222.5 53q289 0 288 -332q0 -176 -90 -327.5t-227 -221.5q-76 -39 -186 -38q-92 0 -154 37.5t-88.5 99t-35.5 112t-9 103.5h-2zM330 348v2q0 -145 55 -221t113 -76q125 0 198 129q86 152 86 373q0 113 -37 184q-45 92 -118 92 q-82 0 -143.5 -48t-93.5 -125.5t-46 -154.5t-14 -155zM375 1073q184 168 264 264h102h2q43 -106 154 -264l-49 -29q-123 109 -180 185q-113 -94 -258 -185z" />
<glyph unicode="&#xf5;" horiz-adv-x="915" d="M156 332q0 96 31.5 193.5t91 182.5t159 138t221.5 53q289 0 289 -332q0 -176 -90 -327.5t-227 -221.5q-76 -39 -187 -38q-92 0 -153.5 37.5t-88 99t-35.5 112t-9 103.5h-2zM326 348v2q0 -145 55 -221t113 -76q125 0 198 129q86 152 86 373q0 113 -37 184q-45 92 -118 92 q-82 0 -143.5 -48t-93.5 -125.5t-46 -154.5t-14 -155zM326 1087q80 182 200 183q66 0 136 -58q53 -45 98 -45h-2q68 0 125 107l47 -12q-74 -184 -215 -185q-51 0 -119 53q-59 45 -102 46q-70 0 -121 -99z" />
<glyph unicode="&#xf6;" horiz-adv-x="915" d="M158 332q0 96 31.5 193.5t91 182.5t159 138t222.5 53q289 0 288 -332q0 -176 -90 -327.5t-227 -221.5q-76 -39 -187 -38q-92 0 -153.5 37.5t-88 99t-35.5 112t-9 103.5h-2zM328 348v2q0 -145 55 -221t113 -76q125 0 198 129q86 152 86 373q0 113 -37 184q-25 47 -50 69.5 t-68 22.5q-82 0 -143.5 -48t-93.5 -125.5t-46 -154.5t-14 -155zM387 1175.5q0 38.5 27.5 66.5t66.5 28t66.5 -28t27.5 -66.5t-27.5 -66.5t-66.5 -28t-66.5 28t-27.5 66.5zM715 1175.5q0 38.5 27.5 66.5t66.5 28t66.5 -28t27.5 -66.5t-27.5 -66.5t-66.5 -28t-66.5 28 t-27.5 66.5z" />
<glyph unicode="&#xf7;" horiz-adv-x="1079" d="M238 449l24 100h809l-22 -100h-811zM471 147q0 47 39 85t88 38q35 0 57.5 -21.5t22.5 -55.5q0 -51 -40 -87t-87 -36q-35 0 -57.5 21t-22.5 56zM618 813q0 47 39 86t88 39q35 0 57.5 -22.5t22.5 -57.5q0 -49 -40 -86t-87 -37q-37 0 -58.5 21.5t-21.5 56.5z" />
<glyph unicode="&#xf8;" horiz-adv-x="915" d="M121 -43l100 121q-68 90 -67 254q0 96 31.5 193.5t91 182.5t159 138t222 53t190.5 -55l108 133l66 -49l-121 -150q43 -78 43 -211q0 -176 -90 -327.5t-227 -221.5q-76 -39 -187 -38q-94 0 -155 38l-97 -116zM326 348q0 -72 16 -127l410 500h-4l-7 18q-45 92 -118 92 q-82 0 -143.5 -48t-93.5 -125.5t-46 -154.5t-14 -155zM381 131q53 -80 117 -80q125 0 198 129q86 152 86 373q0 20 -4 65z" />
<glyph unicode="&#xf9;" horiz-adv-x="1067" d="M172 709q150 190 309 190q74 0 74 -68q0 -16 -43 -188l-88 -334q-18 -72 -18 -131q0 -76 61 -76q72 0 150.5 94.5t203.5 309.5l60 225q4 16 12 57t13 58.5t23.5 35t45.5 17.5q86 0 86 -55q0 -4 -27 -123l-114 -467q-23 -98 -23 -117q0 -35 21 -35q16 0 55 30t78 73 q35 0 47 -35q-150 -190 -285 -190q-76 0 -76 67q0 66 35 189l23 79l-7 4q-125 -182 -210.5 -260.5t-196.5 -78.5q-59 0 -98 40.5t-39 122.5q0 61 20 138l90 344q27 98 27 116q0 35 -21 35q-16 0 -60 -29.5t-81 -72.5q-35 0 -47 35zM561 1309l8 22q70 47 144 47q14 0 30 -4 l88 -258q8 -25 5 -49q-4 -23 -35 -23q-16 0 -51 41z" />
<glyph unicode="&#xfa;" horiz-adv-x="1067" d="M176 709q150 190 309 190q74 0 74 -68q0 -16 -43 -188l-88 -334q-18 -72 -18 -131q0 -76 61 -76q72 0 150.5 94.5t203.5 309.5l60 225q4 16 12 57t13 58.5t23.5 35t45.5 17.5q86 0 86 -55q0 -4 -27 -123l-114 -467q-23 -98 -23 -117q0 -35 21 -35q16 0 55 30t78 73 q35 0 47 -35q-150 -190 -285 -190q-76 0 -76 67q0 66 35 189l23 79l-6 4q-125 -182 -211 -260.5t-197 -78.5q-59 0 -98 40.5t-39 122.5q0 61 20 138l90 344q27 98 27 116q0 35 -20 35q-16 0 -60.5 -29.5t-81.5 -72.5q-35 0 -47 35zM631 1063q4 20 35 57l204 244h2q12 4 29 4 q61 0 103 -47l2 -23l-281 -223q-47 -39 -70 -39q-10 0 -18 8.5t-6 18.5z" />
<glyph unicode="&#xfb;" horiz-adv-x="1067" d="M174 709q150 190 309 190q74 0 74 -68q0 -16 -43 -188l-88 -334q-18 -72 -18 -131q0 -76 61 -76q72 0 150.5 94.5t203.5 309.5l60 225q4 16 12 57t13 58.5t23.5 35t45.5 17.5q86 0 86 -55q0 -4 -27 -123l-114 -467q-23 -98 -23 -117q0 -35 21 -35q16 0 55 30t78 73 q35 0 47 -35q-150 -190 -285 -190q-76 0 -76 67q0 66 35 189l23 79l-6 4q-125 -182 -211 -260.5t-197 -78.5q-59 0 -98 40.5t-39 122.5q0 61 20 138l90 344q27 98 27 116q0 35 -21 35q-16 0 -60 -29.5t-81 -72.5q-35 0 -47 35zM473 1073q184 168 264 264h103 q43 -106 153 -264l-49 -29q-123 109 -180 185q-109 -92 -256 -185z" />
<glyph unicode="&#xfc;" horiz-adv-x="1067" d="M174 709q150 190 309 190q74 0 74 -68q0 -16 -43 -188l-88 -334q-18 -72 -18 -131q0 -76 61 -76q72 0 150.5 94.5t203.5 309.5l60 225q4 16 12 57t13 58.5t23.5 35t45.5 17.5q86 0 86 -55q0 -4 -27 -123l-114 -467q-23 -98 -23 -117q0 -35 21 -35q16 0 55 30t78 73 q35 0 47 -35q-150 -190 -285 -190q-76 0 -76 67q0 66 35 189l23 79l-6 4q-125 -182 -211 -260.5t-197 -78.5q-59 0 -98 40.5t-39 122.5q0 61 20 138l90 344q27 98 27 116q0 35 -21 35q-16 0 -60 -29.5t-81 -72.5q-35 0 -47 35zM487 1173.5q0 38.5 28 66.5t67 28t66.5 -28 t27.5 -66.5t-27.5 -66.5t-66.5 -28t-67 28t-28 66.5zM815 1173.5q0 38.5 27.5 66.5t66.5 28t67 -28t28 -66.5t-28 -66.5t-67 -28t-66.5 28t-27.5 66.5z" />
<glyph unicode="&#xfd;" horiz-adv-x="972" d="M29 -383q0 -43 42 -62.5t81 -19.5q82 0 187 85t198 237l389 639q119 195 118 282q0 51 -32.5 86t-73.5 35q-33 0 -55.5 -23.5t-22.5 -58.5q0 -39 22.5 -82t22.5 -61q0 -63 -47 -144l-207 -354l-8 2q-20 330 -82 570q-20 82 -41.5 113.5t-60.5 31.5q-125 0 -234 -64 q-14 -16 -14 -36q0 -12 8 -24.5t19 -12.5q2 0 39.5 15t62.5 15q23 0 44.5 -14t27.5 -41h-4q74 -326 124 -747l-67 -111q-55 -92 -126 -147.5t-99 -55.5q-25 0 -47 19q-25 20 -48 20q-66 0 -91 -28.5t-25 -63.5zM637 1065q4 20 35 57l205 244h2q12 4 28 4q61 0 103 -47l2 -23 l-281 -223q-47 -39 -69 -39q-10 0 -18.5 8.5t-6.5 18.5z" />
<glyph unicode="&#xfe;" horiz-adv-x="1024" d="M-57 -446q0 12 20 16l39 6q90 14 107 94l223 969q-100 -80 -158 -162l-39 27q59 102 217 225l101 424q14 63 14 102q0 53 -43 58l-64 4q-10 0 -10 10l6 49q178 12 287 54q25 0 25 -21l-50 -215l-81 -367q125 72 264 72q123 0 198.5 -85t75.5 -222q0 -88 -40 -192.5 t-109.5 -199t-176 -157.5t-223.5 -63q-104 0 -172 67l-90 -377q-8 -33 4.5 -52t26.5 -24.5t37 -7.5l39 -6q12 -2 12 -16v-41l-4 -4q-139 4 -219 4l-213 -12l-4 4v39zM373 137q53 -86 155 -86q98 0 176 55.5t119 139.5t61.5 165t20.5 148q0 94 -40 169t-134 75 q-111 0 -217 -55z" />
<glyph unicode="&#xff;" horiz-adv-x="972" d="M27 -383q0 -43 42 -62.5t81 -19.5q82 0 187 85t198 237l389 639q119 195 118 282q0 51 -32.5 86t-73.5 35q-33 0 -55.5 -23.5t-22.5 -58.5q0 -39 22.5 -82t22.5 -61q0 -63 -47 -144l-207 -354l-8 2q-20 330 -82 570q-20 82 -41.5 113.5t-60.5 31.5q-125 0 -234 -64 q-14 -16 -14 -36q0 -12 8 -24.5t19 -12.5q2 0 39.5 15t62.5 15q23 0 44 -14t28 -41h-4q74 -326 124 -747l-67 -111q-55 -92 -126 -147.5t-99 -55.5q-25 0 -48 19q-25 20 -47 20q-66 0 -91 -28.5t-25 -63.5zM481 1173.5q0 38.5 28 66.5t66.5 28t66.5 -28t28 -66.5t-28 -66.5 t-66.5 -28t-66.5 28t-28 66.5zM809 1173.5q0 38.5 27.5 66.5t66.5 28t66.5 -28t27.5 -66.5t-27.5 -66.5t-66.5 -28t-66.5 28t-27.5 66.5z" />
<glyph unicode="&#x152;" horiz-adv-x="1697" d="M211 684q57 305 246.5 506t460.5 199q137 -2 227 -3h155h515l-27 -299l-55 -6q4 80 -35 149.5t-111 69.5h-307q-72 0 -86 -67l-82 -447h211q49 0 72.5 22.5t46.5 74.5l26 63q4 16 17 17h45q8 0 4 -9q-6 -27 -26.5 -95t-28.5 -109q-8 -43 -14.5 -117t-8.5 -88l-4 -6h-47 q-14 0 -14 14l2 65q4 96 -84 97h-211l-105 -559q-8 -41 7.5 -56.5t50.5 -15.5h315q164 0 270 270l52 -10l-117 -344h-690l-207 -4q-272 -6 -396 190.5t-67 497.5zM397 702q-59 -313 30 -472.5t259 -159.5h25q59 0 83.5 19.5t34.5 66.5l205 1079q8 47 -10 63.5t-78 16.5h-72 q-160 0 -289 -145.5t-188 -467.5z" />
<glyph unicode="&#x153;" horiz-adv-x="1443" d="M158 330q0 96 30.5 192t89 181t156.5 138.5t221 53.5q211 0 265 -176q143 178 364 178q203 0 203 -143q0 -29 -3 -47.5t-17.5 -53.5t-49.5 -64.5t-91 -63t-153.5 -64.5t-224.5 -55q-2 -16 -2 -70q0 -131 40 -183.5t116 -52.5q74 0 133 32t145 120q33 0 47 -33 q-188 -242 -399 -242q-188 0 -235 168q-139 -168 -334 -168q-82 0 -143.5 39t-93.5 98.5t-47 115t-15 102.5zM330 346q0 -299 157 -299q82 0 141.5 58.5t88 145.5t41 162.5t12.5 137.5q0 59 -4 97t-17.5 84t-46 68.5t-84.5 22.5q-84 0 -144 -47t-89 -124t-42 -152.5 t-13 -153.5zM963 485q92 12 169.5 38t144 87.5t66.5 147.5v-2q0 43 -24.5 60.5t-81.5 17.5q-188 -1 -274 -349z" />
<glyph unicode="&#x178;" horiz-adv-x="1153" d="M256 1357.5q-2 22.5 2 31.5q119 -4 219 -5q59 0 223 5q4 -6 2 -30t-6 -32l-69 -6q-49 -6 -55.5 -23.5t12.5 -58.5l176 -518h8l332 518q29 47 27.5 63.5t-40.5 20.5l-65 6q-4 6 -2 30.5t6 31.5q160 -4 191 -5q47 0 165 5q4 -6 0 -30t-8 -32l-53 -4q-51 -4 -80 -28.5 t-65 -82.5l-365 -546q-16 -23 -31 -93l-78 -411v-6q-10 -49 10.5 -72t82.5 -29l69 -6q4 -8 1 -31.5t-7 -29.5q-184 4 -264 4q-63 0 -252 -4q-6 14 -4 34.5t8 26.5l66 6q63 8 91.5 31t37.5 70l73 393q6 31 7 53q0 18 -7 41l-192 526q-33 90 -54.5 117t-72.5 35l-31 4 q-6 8 -8 30.5zM637 1593q0 49 36 82t77 33q35 0 57 -22.5t22 -57.5q0 -49 -35.5 -83t-76.5 -34q-35 0 -57.5 23.5t-22.5 58.5zM973 1593q0 49 35.5 83t76.5 34q35 0 57.5 -23.5t22.5 -58.5q0 -49 -34.5 -82t-77.5 -33q-33 0 -56.5 23.5t-23.5 56.5z" />
<glyph unicode="&#x2c6;" horiz-adv-x="714" d="M328 1104q184 168 264 264h102h2q43 -106 154 -264l-49 -29q-123 109 -180 185q-113 -94 -259 -185z" />
<glyph unicode="&#x2dc;" horiz-adv-x="598" d="M252 1186q80 182 201 182q66 0 135 -57q53 -45 98 -45h-2q68 0 125 106l47 -12q-74 -184 -215 -184q-51 0 -119 53q-59 45 -102 45q-70 0 -121 -98z" />
<glyph unicode="&#x2000;" horiz-adv-x="882" />
<glyph unicode="&#x2001;" horiz-adv-x="1765" />
<glyph unicode="&#x2002;" horiz-adv-x="882" />
<glyph unicode="&#x2003;" horiz-adv-x="1765" />
<glyph unicode="&#x2004;" horiz-adv-x="587" />
<glyph unicode="&#x2005;" horiz-adv-x="440" />
<glyph unicode="&#x2006;" horiz-adv-x="292" />
<glyph unicode="&#x2007;" horiz-adv-x="292" />
<glyph unicode="&#x2008;" horiz-adv-x="219" />
<glyph unicode="&#x2009;" horiz-adv-x="352" />
<glyph unicode="&#x200a;" horiz-adv-x="96" />
<glyph unicode="&#x2010;" horiz-adv-x="681" d="M158 512q2 4 2 6q4 25 25.5 50.5t37.5 25.5h469q23 0 23 -25v-12q-4 -18 -26.5 -46t-41.5 -28h-465q-24 0 -24 29z" />
<glyph unicode="&#x2011;" horiz-adv-x="681" d="M158 512q2 4 2 6q4 25 25.5 50.5t37.5 25.5h469q23 0 23 -25v-12q-4 -18 -26.5 -46t-41.5 -28h-465q-24 0 -24 29z" />
<glyph unicode="&#x2012;" horiz-adv-x="681" d="M158 512q2 4 2 6q4 25 25.5 50.5t37.5 25.5h469q23 0 23 -25v-12q-4 -18 -26.5 -46t-41.5 -28h-465q-24 0 -24 29z" />
<glyph unicode="&#x2013;" horiz-adv-x="1093" d="M176 487l19 101h933l-18 -101h-934z" />
<glyph unicode="&#x2014;" horiz-adv-x="2953" d="M156 487l18 101h2671l-21 -101h-2668z" />
<glyph unicode="&#x2018;" horiz-adv-x="548" d="M424 1153q0 63 22.5 125.5t92 125t180.5 83.5q25 -18 18 -47q-80 -18 -146.5 -75.5t-66.5 -102.5q0 -16 10.5 -27.5t21.5 -16t32 -10.5q70 -18 69 -84h-2q0 -45 -35.5 -73.5t-85 -28.5t-80 36t-30.5 95z" />
<glyph unicode="&#x2019;" horiz-adv-x="548" d="M334 1012q80 18 147.5 75.5t67.5 102.5q0 16 -10.5 27.5t-21.5 15.5t-32 10q-70 18 -69 84q0 45 35.5 74t85 29t80 -36t30.5 -96q0 -63 -22.5 -125.5t-92 -125t-180.5 -82.5q-24 18 -18 47z" />
<glyph unicode="&#x201a;" horiz-adv-x="548" d="M96 -223q80 18 147.5 75.5t67.5 102.5q0 16 -10 27.5t-21.5 15.5t-31.5 10q-70 18 -70 84q0 45 36 74t85 29t80 -36t31 -96q0 -63 -22.5 -125.5t-92.5 -125t-180 -82.5q-25 18 -19 47z" />
<glyph unicode="&#x201c;" horiz-adv-x="768" d="M338 1153q0 63 22.5 125.5t92 125t180.5 83.5q25 -18 18 -47q-80 -18 -146.5 -75.5t-66.5 -102.5q0 -16 10.5 -27.5t21.5 -16t32 -10.5q70 -18 69 -84h-2q0 -45 -35.5 -73.5t-85 -28.5t-80 36t-30.5 95zM692 1153q0 63 22.5 125.5t92.5 125t180 83.5q25 -18 19 -47 q-80 -18 -146.5 -75.5t-66.5 -102.5q0 -16 10 -27.5t21.5 -16t31.5 -10.5q70 -18 70 -84h-2q0 -45 -36 -73.5t-85 -28.5t-80 36t-31 95z" />
<glyph unicode="&#x201d;" horiz-adv-x="768" d="M301 1012q80 18 147.5 75.5t67.5 102.5q0 16 -10 27.5t-21.5 15.5t-31.5 10q-70 18 -70 84q0 45 36 74t85 29t79.5 -36t30.5 -96q0 -63 -22.5 -125.5t-92 -125t-180.5 -82.5q-24 18 -18 47zM657 1012q80 18 147.5 75.5t67.5 102.5q0 16 -10 27.5t-21.5 15.5t-31.5 10 q-70 18 -70 84q0 45 36 74t85 29t80 -36t31 -96q0 -63 -22.5 -125.5t-92.5 -125t-180 -82.5q-25 18 -19 47z" />
<glyph unicode="&#x201e;" horiz-adv-x="768" d="M27 -225q80 18 147.5 75.5t67.5 102.5q0 16 -10.5 27.5t-21.5 15.5t-32 10q-70 18 -69 84q0 45 35.5 74t85 29t80 -36t30.5 -96q0 -63 -22.5 -125.5t-92 -125t-180.5 -82.5q-24 18 -18 47zM383 -225q80 18 147.5 75.5t67.5 102.5q0 16 -10 27.5t-21.5 15.5t-31.5 10 q-70 18 -70 84q0 45 36 74t85 29t79.5 -36t30.5 -96q0 -63 -22.5 -125.5t-92 -125t-180.5 -82.5q-24 18 -18 47z" />
<glyph unicode="&#x2022;" horiz-adv-x="718" d="M242 583.5q0 28.5 6 59.5q12 49 45 96q41 57 76 82q43 35 92 56q49 20 104 20q57 0 99 -20q45 -25 67 -58q27 -33 37 -82q4 -12 4 -40.5t-6 -59.5q-14 -57 -43 -100q-31 -47 -76 -82q-41 -35 -94 -58q-53 -18 -107 -18q-55 0 -96 20q-45 25 -69 58q-29 39 -35 84 q-4 14 -4 42.5z" />
<glyph unicode="&#x2026;" horiz-adv-x="3172" d="M252 72q0 45 37 84t90 39q41 0 67.5 -26t26.5 -65q0 -47 -38 -87t-89 -40q-39 0 -66.5 28t-27.5 67zM1286 72q0 45 37 84t90 39q41 0 67.5 -26t26.5 -65q0 -47 -37.5 -87t-89.5 -40q-41 0 -67.5 28t-26.5 67zM2322 72q0 45 37 84t90 39q41 0 68 -26t27 -65q0 -47 -38 -87 t-89 -40q-41 0 -68 28t-27 67z" />
<glyph unicode="&#x202f;" horiz-adv-x="352" />
<glyph unicode="&#x2039;" horiz-adv-x="727" d="M217 401l16 80q250 152 527 400l-21 -111q-195 -213 -350 -330q115 -109 221 -327l-20 -111q-191 286 -373 399z" />
<glyph unicode="&#x203a;" horiz-adv-x="727" d="M139 0l23 111q176 201 350 329q-113 106 -223 328l22 111q186 -281 371 -400l-14 -80q-250 -149 -529 -399z" />
<glyph unicode="&#x205f;" horiz-adv-x="440" />
<glyph unicode="&#x20ac;" d="M90 457l4 18l49 51h76l6 43l13 62h-86l4 20l49 49h51q72 229 216 363.5t319 134.5q57 0 141 -16.5t110 -14.5q-18 -111 -18 -299l-63 -10q-6 123 -46.5 195.5t-142.5 72.5q-113 0 -206 -119.5t-144 -306.5h452l-49 -69h-419l-7 -37l-12 -68h385l-51 -69h-342 q-43 -395 205 -396q53 0 96 20.5t80 66t59.5 81t57.5 101.5l59 -15q-16 -43 -69.5 -154.5t-67.5 -154.5q-27 2 -111 -14.5t-141 -16.5q-178 0 -266 129t-70 353h-121z" />
<glyph unicode="&#x2122;" horiz-adv-x="1628" d="M256 1190l76 184l47 -16q-8 -23 -12 -23h479q-2 0 -2 23l53 16l2 -186l-47 -10q-4 68 -16.5 86t-44.5 18h-91q-29 0 -36 -43l-105 -541q-4 -25 7.5 -37t43.5 -12h31q10 0 6 -10l-4 -27l-2 -2q-129 2 -170 2l-168 -2l-2 2l4 27q4 10 12 10h31q63 0 72 49l104 543 q8 41 -20 41h-103q-33 0 -52 -18.5t-50 -85.5zM803 612l4 17q2 14 39 14h28q16 0 35 62l148 544v6l2 5q6 35 -12 34h-33q-33 0 -33 13l2 16l14 12h183l123 -542l323 542h170l4 -12l-4 -16q-2 -12 -37 -13h-30q-18 0 -25 -32l-2 -13l-60 -544q-8 -61 13 -62h28q18 0 27.5 -3 t7.5 -11l-2 -17l-12 -12q-90 4 -135 4l-135 -4l-11 12l2 17q2 14 39 14h29q14 0 23 47q0 2 1 7t1 8l43 403l-299 -498q-14 -20 -37 -20q-25 0 -31 20l-111 488q-47 -190 -104 -396q0 -2 -1 -6t-1 -6q-6 -47 4 -47h31q12 0 22 -4t8 -10l-2 -17l-8 -12q-80 4 -125 4l-96 -4z " />
<glyph unicode="&#xfb01;" horiz-adv-x="1146" d="M-162 -383q0 8 5 20.5t22.5 25.5t44.5 13q43 0 74 -30l20 -29q14 -20 27.5 -29.5t31.5 -9.5q37 0 84 45q39 39 71 200t65.5 402.5t54.5 341.5l47 232h-156q-12 0 -12 4q0 10 8 35q8 33 60 34l114 7q53 260 166 405.5t318 145.5q111 0 207 -77t96 -151q0 -49 -31 -80.5 t-68 -31.5q-39 0 -62.5 25.5t-23.5 68.5q0 63 -5 84.5t-31 56.5q-29 37 -103 37q-125 0 -198 -131q-23 -39 -41.5 -87t-28.5 -91l-17.5 -77t-12.5 -64.5t-5 -32.5h223q78 0 172.5 6t110.5 6q41 0 41 -43q0 -14 -41 -193l-92 -401q-23 -98 -23 -107q0 -35 21 -34 q18 0 57 24.5t76 67.5q35 0 47 -35q-150 -190 -285 -190q-84 0 -84 67q0 29 35 189l96 421q18 86 19 105l-2 -4q0 25 -56 35q-33 6 -112 6h-223l-7 -35q-147 -840 -219 -1018q-96 -236 -319 -235q-84 0 -120 33.5t-36 72.5z" />
<glyph unicode="&#xfb02;" horiz-adv-x="1107" d="M-188 -399q0 23 17 41t52 18q37 0 68 -43q29 -41 65 -41q39 0 78 39q43 43 102.5 269.5t86.5 404.5q29 190 49 280l51 232h-145q-10 0 -11 4q0 10 8 35q10 41 58 41h104q33 145 81 254.5t93 166t98.5 91t88.5 43t67 8.5q127 0 181 -60q113 18 178 46h45l-273 -1174 q-27 -119 -26 -139q0 -29 24 -29q31 0 125 113l41 -33q-137 -193 -264 -193q-86 0 -86 93q0 31 31 172l219 944q10 41 10 80v6q-16 -39 -67 -39q-72 0 -91 96q-6 33 -18 45t-45 12t-84 -43t-86 -129q-31 -74 -62 -202l-30 -129h225q14 0 14 -11l-10 -45q-6 -25 -53 -24h-195 l-8 -35l-62 -278q-40 -179 -63.5 -276t-59.5 -224t-72 -212t-79 -147q-90 -129 -207 -129q-92 0 -127.5 32t-35.5 69z" />
<glyph unicode="&#xfb03;" horiz-adv-x="1677" d="M-162 -383q0 16 16.5 36.5t53.5 20.5t69 -41q31 -43 66 -43q39 0 78 39t75.5 195t78.5 412t59 333l47 232h-145q-10 0 -11 4q0 10 8 35q2 14 16.5 27.5t39.5 13.5h106q8 43 18.5 87t46.5 128t83 145.5t130 109.5t185 48q49 0 135 -26.5t123 -65.5q117 123 299 123 q111 0 207 -77t96 -151q0 -49 -30.5 -80.5t-67.5 -31.5q-39 0 -62.5 25.5t-23.5 68.5q0 63 -5 84.5t-32 56.5q-29 37 -102 37q-125 0 -199 -131q-23 -39 -41 -87t-28.5 -91t-17.5 -77t-12 -64.5t-5 -32.5h223q78 0 172 6t110 6q41 0 41 -43q0 -14 -41 -193l-92 -401 q-23 -98 -22 -107q0 -35 20 -34q18 0 57 24.5t76 67.5q35 0 47 -35q-150 -190 -284 -190q-84 0 -84 67q0 29 35 189l96 421q18 86 18 105l-4 -2q0 25 -55 35q-33 6 -113 6h-223l-6 -35q-125 -719 -217 -944q-96 -236 -320 -236q-84 0 -119.5 34t-35.5 73q0 8 5 20.5 t22.5 25.5t43.5 13q43 0 74 -31l21 -28q14 -20 27.5 -29.5t31.5 -9.5q37 0 84 45q39 39 69.5 179t65.5 368.5t53 322.5l47 232h-98h-57h-234l-6 -35q-57 -326 -82.5 -460t-72 -320.5t-91.5 -268.5q-111 -203 -270 -202q-166 0 -166 102zM547 881h280v-7l105 7q37 180 96 301 q-23 14 -48.5 54t-58 67.5t-83.5 27.5q-25 0 -52.5 -10t-68.5 -39t-78 -99.5t-61 -172.5z" />
<glyph unicode="&#xfb04;" horiz-adv-x="1662" d="M-139 -395q0 16 16.5 36.5t53 20.5t69.5 -41q31 -43 66 -43q39 0 77 39q18 18 38 60t41 117l38 136q16 61 40 170l35 161l35 169q24 117 27 139l47 232h-145q-10 0 -10 4q0 10 8 35q2 14 16.5 27.5t38.5 13.5h107q8 47 17 87t44 128t79 146t126 107.5t184 49.5 q55 0 129 -36t99 -89q68 96 154.5 133t152.5 37q104 0 168 -47q55 6 123 33h45l-273 -1174q-20 -94 -20 -127q0 -27 24 -27q31 0 125 113l39 -33q-133 -193 -262 -192q-47 0 -67.5 27.5t-20.5 64.5t27 158l219 944q4 14 8 49q-51 10 -70 94q-14 57 -84 57q-37 0 -100 -44 t-98 -128q-27 -59 -62 -202l-30 -129h225q12 0 12 -11l-8 -45q-8 -25 -55 -24h-193l-6 -35q-57 -330 -140 -612.5t-157 -407.5q-104 -178 -246 -178q-164 0 -164 100q0 16 15.5 38t54.5 22q33 0 68 -43q31 -41 65 -41q41 0 78 37q88 88 242 888l45 232h-381l-8 -35 q-162 -690 -222 -875q-39 -121 -75 -186q-111 -203 -258 -203q-166 1 -166 103zM608 881h377q35 170 90 286h-4q-43 0 -63.5 29t-25.5 61.5t-27.5 61.5t-67.5 29q-23 0 -50.5 -12.5t-64.5 -45.5t-72.5 -105.5t-60.5 -174.5z" />
</font>
</defs>
</svg>
