<?xml version="1.0" standalone="no"?>
<!DOCTYPE svg PUBLIC "-//W3C//DTD SVG 1.1//EN" "http://www.w3.org/Graphics/SVG/1.1/DTD/svg11.dtd" >
<svg xmlns="http://www.w3.org/2000/svg">
<metadata>
This is a custom SVG webfont generated by Font Squirrel.
Copyright   : Linux Libertine by Philipp H Poll Open Font under Terms of following Free Software LicensesGPL General Public License with fontexception and OFL Open Font LicenseCreated with FontForge httpfontforgesfnet Sept 2003 2004 2005 2006 2007 2008
Designer    : Philipp H Poll
Foundry     : Philipp H Poll
Foundry URL : httplinuxlibertinesfnet
</metadata>
<defs>
<font id="webfonteFtrpqIk" horiz-adv-x="901" >
<font-face units-per-em="2048" ascent="1638" descent="-410" />
<missing-glyph horiz-adv-x="512" />
<glyph unicode=" "  horiz-adv-x="512" />
<glyph unicode="&#x09;" horiz-adv-x="512" />
<glyph unicode="&#xa0;" horiz-adv-x="512" />
<glyph unicode="!" horiz-adv-x="589" d="M186 88q0 45 32 77t77 32t76.5 -32t31.5 -77t-31.5 -76.5t-76.5 -31.5t-77 31.5t-32 76.5zM186 1198q0 76 33 113t76 37t75.5 -37t32.5 -113q0 -59 -7 -115.5t-20.5 -135.5t-21.5 -144q-12 -96 -18 -183.5t-8 -134.5t-4 -55q-4 -41 -29 -41t-29 27q-2 12 -6 77.5 t-11 152.5t-16 157q-6 63 -26.5 188t-20.5 207z" />
<glyph unicode="&#x22;" horiz-adv-x="688" d="M129 1217q0 37 30.5 69.5t73.5 32.5q72 0 72 -68l-67 -370l-56 -9q-53 327 -53 345zM387 1219q0 37 31 69.5t74 32.5q72 0 71 -68l-67 -370l-56 -9q-53 327 -53 345z" />
<glyph unicode="#" d="M51 373l15 102h182l35 223h-181l17 103h180l55 346h74l-57 -346h221l53 346h74l-55 -346h186l-16 -103h-185l-37 -223h185l-15 -102h-182l-57 -346h-74l53 346h-217l-57 -346h-72l55 346h-180zM319 475h222l34 223h-219z" />
<glyph unicode="$" d="M84 301l59 6q25 -98 93.5 -169.5t166.5 -86.5v492q-53 23 -80.5 37t-78.5 45.5t-79 63.5t-50.5 82t-22.5 108q0 123 93.5 199.5t217.5 90.5v115h70v-113q51 -2 126 -9t114 -7q4 -72 41 -293l-60 -8l-10 37q-55 197 -209 217v-436q344 -133 344 -353q0 -27 -5 -58.5 t-25.5 -81.5t-54.5 -89t-101.5 -70.5t-157.5 -37.5v-148h-69v146q-68 2 -137.5 23.5t-82.5 21.5v2q-14 0 -30.5 -11.5t-38.5 -11.5q0 68 -33 297zM225 897q0 -115 181 -199v410q-78 -10 -129.5 -66.5t-51.5 -144.5zM473 49q78 8 137.5 57.5t59.5 153.5q0 57 -17.5 102.5 t-50.5 75t-60.5 46t-66.5 30.5z" />
<glyph unicode="%" horiz-adv-x="1304" d="M117 844q0 135 81 230t191 95q41 0 81 -15t56 -36q111 -51 219 -51q82 0 173.5 26.5t134.5 84.5l65 -33l-839 -1170l-70 31l735 1024q-98 -39 -219 -39q-90 0 -164 43q6 -23 6 -51q0 -119 -72.5 -240.5t-189.5 -121.5q-88 0 -138 68.5t-50 154.5zM227 815 q0 -72 28 -101.5t62 -29.5q78 0 130.5 98.5t52.5 198.5q0 125 -88 125q-72 0 -128.5 -97.5t-56.5 -193.5zM774 201q0 127 81 225t194 98q74 0 125 -42t51 -144q0 -121 -72 -242t-188 -121q-88 0 -139.5 69t-51.5 157zM887 170q0 -131 90 -131q78 0 129 99.5t51 197.5 q0 49 -16.5 78.5t-33.5 38t-36 8.5q-72 0 -128 -97.5t-56 -193.5z" />
<glyph unicode="&#x26;" horiz-adv-x="1443" d="M88 319q0 123 89 230.5t290 220.5q-104 180 -105 289q0 100 86.5 183t229.5 83q109 0 185.5 -62.5t76.5 -158.5q0 -82 -86 -174t-219 -170l8 -17q37 -72 250 -360q84 125 158 262q39 72 41 104.5t-20.5 42t-84.5 13.5q-8 10 -8 34.5t8 32.5q82 -4 195 -4q90 0 172 4 q10 -8 10 -32.5t-10 -34.5q-94 -6 -129 -34t-105 -153q-106 -188 -182 -296l74 -103q45 -61 88 -95t69 -34q98 0 156 111q23 0 43 -21q-33 -100 -92 -150t-119 -50q-39 0 -67.5 6t-74.5 38.5t-93 92.5l-60 76q-156 -213 -381 -213q-178 0 -285.5 81.5t-107.5 257.5zM256 319 q0 -141 66.5 -206.5t173.5 -65.5q102 0 168.5 48t150.5 163l-184 255q-100 144 -119 179q-150 -82 -203 -168t-53 -205zM514 1063q0 -78 78 -225q96 63 151.5 136t55.5 130q0 70 -35 111.5t-96 41.5q-49 0 -101.5 -51t-52.5 -143z" />
<glyph unicode="'" horiz-adv-x="389" d="M109 1217q0 37 30.5 69.5t73.5 32.5q72 0 72 -68l-68 -370l-55 -9q-53 327 -53 345z" />
<glyph unicode="(" horiz-adv-x="610" d="M90 516h2q0 274 121 520t313 412q31 -2 41 -37q-307 -346 -307 -895q0 -545 307 -899q-10 -29 -43 -35q-121 104 -208 231.5t-129 228.5t-66.5 213t-27.5 162t-3 99z" />
<glyph unicode=")" horiz-adv-x="610" d="M43 -379q307 346 307 895q0 545 -307 899q10 29 43 35q121 -104 208 -231t129 -228.5t66.5 -213t27.5 -162t3 -99.5h-2q0 -274 -121 -520t-313 -412q-31 2 -41 37z" />
<glyph unicode="*" horiz-adv-x="755" d="M92 1204q0 25 16.5 43.5t51.5 18.5q39 0 99 -45t97 -60q-4 41 -25.5 101.5t-21.5 87.5q0 33 17.5 56.5t44.5 23.5q68 0 67 -72q0 -29 -18.5 -99.5t-20.5 -99.5q39 16 98.5 61.5t96.5 45.5t53.5 -20.5t16.5 -41.5q0 -76 -142 -76q-63 0 -112 -8q25 -27 71.5 -58.5 t72.5 -57t26 -62.5q0 -27 -18.5 -43t-41.5 -16q-35 0 -58.5 32.5t-47 93t-39.5 87.5q-14 -27 -39 -90.5t-47.5 -93t-57.5 -29.5q-27 0 -43 17.5t-16 39.5q0 39 26.5 65.5t73.5 56.5t72 58q-35 8 -86 8q-166 0 -166 76z" />
<glyph unicode="+" horiz-adv-x="1079" d="M135 426v100h352v357h105v-357h352v-100h-352v-356h-105v356h-352z" />
<glyph unicode="," horiz-adv-x="450" d="M88 -225q74 18 127 72.5t53 91.5q0 51 -73 63q-35 4 -63 25.5t-28 66.5q0 43 31 72t78 29v-2q61 0 98 -55.5t37 -147.5q0 -102 -71.5 -174t-170.5 -90q-18 18 -18 49z" />
<glyph unicode="-" horiz-adv-x="692" d="M82 496q0 29 16.5 56.5t34.5 27.5h449q29 0 28 -41q0 -20 -18.5 -51t-36.5 -31h-442q-31 0 -31 39z" />
<glyph unicode="." horiz-adv-x="512" d="M145 88q0 45 32 77t77 32t76.5 -32t31.5 -77t-31.5 -76.5t-76.5 -31.5t-77 31.5t-32 76.5z" />
<glyph unicode="/" horiz-adv-x="661" d="M31 -121l485 1444h84l-485 -1444h-84z" />
<glyph unicode="0" d="M76 569q0 276 111.5 445.5t263.5 169.5q135 0 235 -135q131 -172 131 -461q0 -307 -118.5 -459t-256.5 -152q-160 0 -263 175t-103 417zM244 549q0 -80 7 -152.5t25.5 -159.5t61.5 -139.5t106 -52.5q25 0 51.5 10.5t63.5 53.5t57 116q33 121 33 400q0 360 -112 456 q-33 31 -86 31q-207 0 -207 -563z" />
<glyph unicode="1" d="M180 979q285 133 402 205q14 0 14 -10q-6 -39 -6 -275v-649h-6q0 -123 31.5 -152.5t146.5 -34.5q8 -10 8 -34.5t-8 -32.5q-205 4 -250 4q-63 0 -264 -4q-10 8 -10 32.5t10 34.5q115 4 146.5 34t31.5 153v606q0 119 -39 119q-55 0 -176 -51q-23 16 -31 55z" />
<glyph unicode="2" d="M100 -4q0 96 43 182t179 219l143 142q160 158 160 342q0 125 -59.5 180t-129.5 55q-94 0 -133 -36t-39 -83q0 -10 7.5 -27.5t7.5 -19.5q8 -29 8 -39q0 -27 -32 -52t-58 -25q-31 0 -54.5 21.5t-23.5 51.5q0 100 90 188.5t240 88.5q135 0 240.5 -75t105.5 -220 q0 -100 -46.5 -171t-148.5 -169l-194 -189q-143 -143 -144 -233h344q51 0 82 41t55 143q37 8 56 -8q-4 -131 -47 -307q-90 4 -152 4h-338z" />
<glyph unicode="3" d="M92 109q0 23 25.5 45t56.5 22q49 0 84 -49q0 -2 8 -13.5t10.5 -14.5t10.5 -12t13 -13t15.5 -10.5t21.5 -9.5t26.5 -5t33.5 -2q31 0 67 14.5t78 46t68.5 99t26.5 158.5q0 254 -244 253q-51 0 -84 -4l-8 62q121 18 204 106t83 166q0 86 -46 127t-118 41v-2q-35 0 -72 -10 t-74.5 -46t-37.5 -93q0 -35 -19.5 -68t-56.5 -33q-33 0 -49.5 20.5t-16.5 45.5q0 29 18.5 66.5t57.5 81.5t115 74t176 30q135 0 203.5 -65.5t68.5 -141.5q0 -43 -8 -75t-54 -87t-132 -108l2 -5q106 -16 185 -90.5t79 -218.5q0 -186 -128 -298.5t-308 -112.5q-96 0 -188.5 37 t-92.5 92z" />
<glyph unicode="4" d="M47 393q0 2 4 6l539 762q14 23 28 23h54q8 0 11 -7.5t-1 -15.5l-516 -755h364v321q0 29 21 41q47 35 90 35q29 0 29 -64v-333h164l-3 -5q29 0 29 -30q0 -18 -18.5 -40t-36.5 -22h-137v-157q0 -14 1 -24.5t2 -19t7 -14.5t8 -11t11.5 -8t12.5 -5t17 -3t19.5 -2.5t25 -2.5 t25.5 -1q10 -8 10 -32.5t-10 -34.5q-123 4 -197 4q-104 0 -227 -4q-8 10 -8 34.5t8 32.5q6 0 26.5 1t26.5 2.5t22.5 3.5t22.5 5t18.5 7t17.5 11l11 15q6 8 8 20.5t2 27.5v157h-401q-68 0 -80 82z" />
<glyph unicode="5" d="M104 125q0 29 23 50.5t51 21.5q51 0 98 -64q2 -2 11.5 -14.5t11.5 -15.5t11 -14t14.5 -14t15.5 -10.5t18.5 -10.5t20.5 -5t27 -2q88 0 150 91t62 229q0 150 -61 222.5t-164 72.5q-121 0 -246 -48l66 560q113 -10 209 -11q135 0 319 21l13 -6l-31 -134q-100 -10 -203 -10 q-84 0 -227 17l-39 -324q74 31 190 31q158 0 252.5 -104.5t94.5 -252.5q0 -184 -116 -302.5t-294 -118.5q-90 0 -183.5 44t-93.5 101z" />
<glyph unicode="6" d="M82 449q0 262 180 469q164 188 426 264q23 -14 23 -49q-332 -123 -432 -469h-5q92 51 205 51q184 0 265 -92.5t81 -233.5q0 -92 -33.5 -181t-118.5 -160t-204 -71q-49 0 -97 10.5t-102.5 42t-94.5 82t-66.5 137.5t-26.5 200zM246 442q0 -397 248 -397q76 0 126 79t50 230 q0 43 -9.5 87t-32 94.5t-70.5 81t-116 30.5q-111 0 -182 -57v-2q-14 -74 -14 -146z" />
<glyph unicode="7" d="M98 874q37 227 39 310q0 6 8 6q10 -2 35 -14.5t62 -12.5h399q84 0 150 21l30 -23q-254 -618 -442 -1179l-133 -7l-15 13q154 344 437 1048h-338q-37 0 -62.5 -8t-56.5 -47t-51 -113z" />
<glyph unicode="8" d="M92 283q0 135 113 233q86 76 141 117l-35 20q-172 102 -172 262q0 115 91.5 192t236.5 77q139 0 218 -67.5t79 -176.5q0 -131 -219 -276l119 -78q150 -98 149 -273q0 -125 -99.5 -229t-275.5 -104q-158 0 -252 79t-94 224zM223 283q0 -119 69.5 -177.5t149.5 -58.5 q90 0 161 49t71 178q0 156 -168 258l-90 56q-109 -72 -151 -157t-42 -148zM276 952q0 -37 7.5 -64.5t39 -66.5t91.5 -76l59 -36q160 117 160 233q0 74 -43 124t-133 50q-84 0 -132.5 -47t-48.5 -117z" />
<glyph unicode="9" d="M63 772q0 92 34 181t119 160t204 71q49 0 97 -10.5t102.5 -42t94.5 -82t66.5 -137.5t26.5 -199q0 -262 -180 -469q-164 -188 -424 -264q-23 14 -23 49q334 123 434 469q-92 -51 -204 -52q-184 0 -265.5 92.5t-81.5 233.5zM223 807q0 -43 9.5 -87t32 -94.5t70.5 -81 t116 -30.5q106 0 182 59q14 74 14 146q0 397 -248 397q-76 0 -126 -78.5t-50 -230.5z" />
<glyph unicode=":" horiz-adv-x="524" d="M184 188q0 45 32 77t77 32t76.5 -32t31.5 -77t-31.5 -76.5t-76.5 -31.5t-77 31.5t-32 76.5zM184 727q0 45 32 77t77 32t76.5 -32t31.5 -77t-31.5 -77t-76.5 -32t-77 32t-32 77z" />
<glyph unicode=";" horiz-adv-x="524" d="M162 -225q74 18 127 72.5t53 91.5q0 51 -74 63q-35 4 -62.5 25.5t-27.5 66.5q0 43 31 72t78 29v-2q61 0 98 -55.5t37 -147.5q0 -102 -71.5 -174t-170.5 -90q-18 18 -18 49zM184 725q0 45 32 77t77 32t76.5 -32t31.5 -77t-31.5 -77t-76.5 -32t-77 32t-32 77z" />
<glyph unicode="&#x3c;" horiz-adv-x="997" d="M100 440q-27 47 0 99l799 288q20 -10 20.5 -44.5t-20.5 -57.5l-649 -236l649 -237q20 -23 20.5 -57.5t-20.5 -44.5z" />
<glyph unicode="=" horiz-adv-x="1079" d="M135 295v100h809v-100h-809zM135 551v100h809v-100h-809z" />
<glyph unicode="&#x3e;" horiz-adv-x="997" d="M80 190.5q0 34.5 20 57.5l650 235l-650 238q-20 23 -20 57.5t20 44.5l799 -291q27 -45 0 -98l-799 -289q-20 11 -20 45.5z" />
<glyph unicode="?" horiz-adv-x="890" d="M94 1085q0 98 105 185q96 80 254 80q156 0 250 -85t94 -225q0 -57 -18.5 -106t-59.5 -91t-67.5 -64.5t-78.5 -59.5q-86 -63 -106 -103q-29 -55 -29 -149v-90q0 -20 -35 -21q-33 0 -32 21v94q0 195 143 330q61 57 87 108.5t26 122.5q0 102 -54.5 176t-140.5 74 t-142.5 -31.5t-56.5 -79.5q0 -37 12.5 -53t12.5 -49t-24.5 -52.5t-55.5 -19.5q-33 0 -58.5 20.5t-25.5 67.5zM295 88q0 45 31.5 77t77 32t77 -32t31.5 -77t-31.5 -76.5t-77 -31.5t-77 31.5t-31.5 76.5z" />
<glyph unicode="@" horiz-adv-x="1832" d="M121 455q0 330 246.5 562t593.5 232q328 0 542.5 -192.5t214.5 -481.5q0 -94 -30.5 -181t-95 -165.5t-184.5 -127t-280 -48.5q-74 0 -73 84q0 33 30 129l-4 2q-63 -106 -138 -158.5t-134 -52.5q-72 0 -125 28t-77.5 70t-36 80.5t-11.5 75.5q0 211 152.5 369t324.5 158 q51 0 97.5 -25t60.5 -63l10 49l109 26l30 -10l-122 -528q-27 -119 -27 -135v-2q0 -25 23 -25q168 0 252.5 97t84.5 339q0 152 -59 274.5t-152.5 196.5t-198 114t-204.5 40q-121 0 -234.5 -42t-209 -123t-153.5 -218t-58 -311q0 -98 19.5 -196.5t69.5 -200t124.5 -178.5 t196.5 -126t274 -49q242 0 411 135l27 -37q-109 -82 -213 -124t-264 -42q-360 0 -584.5 223.5t-224.5 557.5zM709 330q0 -188 159 -189q53 0 121 77t115 190q61 147 61 237q0 57 -37.5 93t-95.5 36q-35 0 -89 -19.5t-95 -62.5q-139 -139 -139 -362z" />
<glyph unicode="A" horiz-adv-x="1452" d="M4 30.5q0 26.5 8 37.5q80 6 125 32.5t84 118.5l465 1118q16 43 31.5 60.5t38.5 17.5q20 0 31.5 -14.5t25.5 -50.5l428 -1166q18 -51 52 -76.5t57.5 -29.5t81.5 -8q10 -10 10 -36t-10 -36q-156 4 -240 4q-117 0 -272 -4q-10 10 -10.5 35.5t10.5 36.5q12 0 32.5 1t31.5 2 t26.5 2t24.5 3t19.5 6t14.5 10t8 14.5t2 20.5t-6 27l-127 362h-434q-37 0 -51.5 -7t-22.5 -30l-114 -311h-2q-2 -23 -6.5 -38t11 -26.5t24.5 -17.5t35 -10l39 -6q13 -2 40 -4q10 -10 10 -37t-10 -35q-152 4 -266 4q-31 0 -187 -4q-8 8 -8 34.5zM496 637q-3 -7 -4 -13 q0 -8 8 -11q12 -5 47 -5h364l-202 576h-4z" />
<glyph unicode="B" horiz-adv-x="1228" d="M29 30.5q0 26.5 10 37.5q117 4 149.5 35.5t32.5 158.5v862q0 129 -32.5 161t-149.5 36q-10 10 -10 34.5t10 35.5q209 -4 270 -5v-2q47 0 137.5 2.5t122.5 2.5q451 0 451 -330q0 -84 -57.5 -161t-141.5 -120v-4q147 -43 234.5 -137t87.5 -242q0 -76 -24.5 -141.5 t-81 -125.5t-164 -96t-257.5 -36q-104 0 -188 2t-117 2q-68 0 -272 -4q-10 8 -10 34.5zM399 209q0 -143 172 -143q219 0 298 75.5t79 210.5q0 158 -101.5 259.5t-303.5 101.5h-144v-504zM399 784h154q297 0 297 248q0 150 -81 217.5t-187 67.5q-90 0 -129 -10.5t-46.5 -25.5 t-7.5 -58v-439z" />
<glyph unicode="C" horiz-adv-x="1349" d="M78 678q0 346 221 555q193 182 449 182q113 0 202.5 -21.5t154 -46t101.5 -28.5q35 -229 45 -334q-25 -15 -47 -14q-12 0 -22 4q-104 360 -457 360q-184 0 -334 -190q-123 -156 -123 -426q0 -166 49.5 -309.5t161 -242.5t264.5 -99q147 0 261 54t225 179q31 0 47 -33 q-215 -291 -531 -291q-162 0 -292.5 60.5t-210.5 161t-122 223.5t-42 256z" />
<glyph unicode="D" horiz-adv-x="1464" d="M29 30.5q0 26.5 10 37.5q117 4 149.5 35.5t32.5 158.5v862q0 129 -32.5 161t-149.5 36q-10 10 -10 34.5t10 35.5q209 -4 270 -5q35 0 153 2.5t191 2.5q301 0 511 -214t210 -515q0 -152 -43 -272t-111.5 -192.5t-161.5 -119.5t-182.5 -64.5t-183.5 -17.5q-125 0 -241.5 2 t-139.5 2q-68 0 -272 -4q-10 8 -10 34.5zM399 178q0 -57 43 -82.5t185 -25.5q119 0 211 24.5t170.5 81.5t122 167t43.5 267q0 104 -18.5 201.5t-62.5 191t-111 163t-171 111.5t-236 42q-176 0 -176 -107v-1034z" />
<glyph unicode="E" horiz-adv-x="1146" d="M12 30.5q0 26.5 8 37.5q117 4 150 35.5t33 158.5v862q0 129 -33 161t-150 36q-8 10 -8 34.5t8 35.5l271 -5h532q55 0 103 9q8 0 8 -6q16 -66 45 -312q-24 -12 -49 -12q-9 0 -19 2q-41 129 -85 181t-152 52h-219q-35 0 -54.5 -26.5t-19.5 -67.5v-430h188q127 0 157 25.5 t34 120.5q10 10 34.5 10t34.5 -10q-4 -127 -4 -185q0 -37 4 -188q-10 -10 -34.5 -10t-34.5 10q-4 57 -13.5 82.5t-50.5 44t-127 18.5h-188v-518q0 -43 19.5 -67.5t54.5 -24.5h284q111 0 174.5 74.5t100.5 208.5q13 3 24 3q26 0 47 -16q-27 -176 -75 -358q-168 4 -269 4h-448 q-170 -2 -273 -4q-8 8 -8 34.5z" />
<glyph unicode="F" horiz-adv-x="997" d="M12 30.5q0 26.5 11 37.5q117 4 149.5 35.5t32.5 158.5v862q0 129 -33 161t-149 36q-10 10 -10.5 34.5t10.5 35.5l270 -5h532q51 0 101 9q6 0 6 -6q0 -4 9 -65l20 -134q10 -74 14 -113l-64 -10q-41 129 -85 181t-152 52h-219q-74 0 -74 -71v-453h194q125 0 155 25.5 t34 120.5q10 10 34.5 10t35.5 -10q-4 -127 -5 -185q0 -37 5 -188q-10 -10 -35 -10t-35 10q-2 45 -7 65.5t-22.5 42t-55.5 29.5t-104 8h-192v-432q0 -127 33 -158.5t147 -35.5q10 -10 10 -37t-10 -35q-209 4 -268 4q-68 0 -272 -4q-11 8 -11 34.5z" />
<glyph unicode="G" horiz-adv-x="1452" d="M68 659q0 227 106.5 403.5t268 264.5t345.5 88q143 0 275.5 -48t179.5 -48q18 -203 45 -332l-69 -12q-49 166 -151.5 263t-309.5 97q-213 0 -357.5 -177t-144.5 -456q0 -150 62.5 -294t196.5 -248.5t310 -104.5q195 0 303 105v319q0 59 -36.5 77.5t-135.5 27.5 q-10 10 -10 38.5t10 36.5q197 -4 261 -4q61 0 184 4q10 -8 10 -36.5t-10 -38.5q-49 -6 -71.5 -29t-22.5 -76v-239q0 -31 32 -62q-229 -201 -563 -201q-309 0 -508.5 198.5t-199.5 483.5z" />
<glyph unicode="H" horiz-adv-x="1525" d="M29 30.5q0 26.5 10 37.5q117 4 149.5 35.5t32.5 158.5v862q0 129 -32.5 161t-149.5 36q-10 10 -10 34.5t10 35.5q209 -4 270 -5q68 0 273 5q8 -10 8 -35t-8 -35q-117 -4 -150 -36t-33 -161v-344h715v344q0 127 -33.5 160t-148.5 37q-10 10 -10 34.5t10 35.5 q209 -4 270 -5q66 0 271 5q10 -10 10 -35t-10 -35q-115 -4 -149 -37t-34 -160v-862q0 -127 33 -158.5t150 -35.5q10 -10 10 -37t-10 -35q-209 4 -269 4q-68 0 -272 -4q-10 8 -10 34.5t10 37.5q117 4 149.5 35.5t32.5 158.5v428h-715v-428q0 -127 33 -158.5t150 -35.5 q8 -10 8 -37t-8 -35q-209 4 -271 4q-68 0 -272 -4q-10 8 -10 34.5z" />
<glyph unicode="I" horiz-adv-x="620" d="M29 30.5q0 26.5 10 37.5q117 4 149.5 35.5t32.5 158.5v862q0 129 -32.5 161t-149.5 36q-10 10 -10 34.5t10 35.5q209 -4 270 -5q68 0 273 5q8 -10 8 -35t-8 -35q-117 -4 -150 -36t-33 -161v-862q0 -127 33 -158.5t150 -35.5q8 -10 8 -37t-8 -35q-209 4 -271 4 q-68 0 -272 -4q-10 8 -10 34.5z" />
<glyph unicode="J" horiz-adv-x="649" d="M-141 -254q0 33 32.5 62.5t59.5 29.5q23 0 39 -8t23 -17.5t16.5 -24.5l13.5 -21q29 -39 74 -39q178 0 178 446v950q0 129 -36 161t-167 36q-10 10 -10 34.5t10 35.5q209 -4 291 -5q45 0 250 5q10 -10 10 -35t-10 -35q-100 -4 -130 -37t-30 -160v-903q0 -109 -18.5 -193.5 t-56.5 -143t-65.5 -89.5t-74.5 -71q-104 -94 -244 -95q-45 0 -100 33t-55 84z" />
<glyph unicode="K" horiz-adv-x="1331" d="M29 34.5q0 26.5 8 37.5q117 4 149.5 35.5t32.5 158.5v862q0 129 -32.5 161t-149.5 36q-8 10 -8 34.5t8 35.5q209 -4 270 -4q68 0 273 4q10 -10 10 -35t-10 -35q-117 -4 -150 -36t-33 -161v-378q90 10 158 84l352 378q18 20 29.5 37t16.5 28t0 18.5t-8 12.5t-18.5 8 t-22.5 3t-28.5 2t-27.5 2q-8 8 -8 34.5t8 35.5q197 -4 235 -4q2 0 199 4q8 -8 8 -35t-8 -35q-66 -8 -91.5 -12t-80.5 -32t-98 -77l-293 -325q-78 -88 -78 -105q0 -18 25 -53l458 -559q20 -25 42 -43.5t45.5 -27.5t36 -12t38.5 -7l25 -2q8 -10 8 -37t-8 -35q-197 4 -211 4 q-55 0 -142 -4q-10 0 -10 12q0 96 -41 150l-342 426q-61 78 -166 80v-402l-2 4q0 -127 33 -158.5t150 -35.5q10 -10 10 -37t-10 -35q-209 4 -271 4q-68 0 -272 -4q-8 8 -8 34.5z" />
<glyph unicode="L" horiz-adv-x="1099" d="M25 30.5q0 26.5 10 37.5q117 4 149.5 35.5t32.5 158.5v862q0 129 -32.5 161t-149.5 36q-10 10 -10 34.5t10 35.5q209 -4 270 -5q68 0 273 5q8 -10 8 -35t-8 -35q-117 -4 -150 -36t-33 -161v-934q0 -49 27 -77.5t72 -28.5h235q109 0 164 72.5t92 210.5q10 2 19 1 q28 0 51 -14q-20 -193 -54 -358q-193 4 -249 4h-445q-170 -2 -272 -4q-10 8 -10 34.5z" />
<glyph unicode="M" horiz-adv-x="1753" d="M29 30.5q0 26.5 10 37.5q86 8 116.5 49t41.5 143l84 887q3 38 3 67q0 60 -15 76q-22 25 -132 31q-10 10 -10 34.5t10 35.5l303 -5l428 -1091q12 -29 17 -29q6 0 20 31l443 1089l274 5q8 -10 8 -35t-8 -35q-102 -6 -126 -35q-19 -23 -19 -85q0 -16 2 -36l63 -905 q10 -133 31.5 -160.5t128.5 -31.5q10 -10 10 -37t-10 -35q-135 4 -227 4q-27 0 -224 -4q-10 8 -10 34.5t10 37.5q104 4 123 28q13 17 13 84q0 30 -3 70l-55 899h-4l-471 -1139q-8 -23 -29 -22q-25 0 -30 22l-435 1116h-4l-77 -862q-3 -29 -3 -53q0 -60 18 -91 q26 -44 122 -52q10 -10 10 -37t-10 -35q-127 4 -197 4q-53 0 -180 -4q-10 8 -10 34.5z" />
<glyph unicode="N" horiz-adv-x="1460" d="M20 30.5q0 26.5 11 37.5q82 8 114.5 21t50 57t17.5 141v897q-10 47 -56 90t-110 47q-10 10 -10 34.5t10 35.5l283 -5l717 -950l23 -32l21 -26q7 -9 15 -21.5t13 -17.5l10.5 -11t9.5 -8.5t8 -2.5q14 0 14 66v719q0 139 -31.5 173t-150.5 46q-8 10 -8 34.5t8 35.5 q209 -4 233 -5q29 0 234 5q8 -10 8 -35t-8 -35q-117 -12 -149.5 -47t-32.5 -172v-1057q0 -68 -47 -68q-45 0 -84 54l-730 948q-55 70 -71.5 70t-16.5 -105v-657q0 -98 17.5 -142.5t49.5 -56.5t116 -20q10 -10 10 -37t-10 -35q-209 4 -232 4q-31 0 -235 -4q-11 8 -11 34.5z " />
<glyph unicode="O" horiz-adv-x="1536" d="M102 668q0 317 181.5 532t459.5 215q281 0 476.5 -197.5t195.5 -510.5q0 -326 -181 -528t-478 -202q-276 0 -465 191t-189 500zM303 702q0 -295 147.5 -473t346.5 -178q184 0 300.5 167t116.5 450q0 324 -138 498.5t-359 174.5q-162 0 -288 -163t-126 -476z" />
<glyph unicode="P" horiz-adv-x="1110" d="M25 30.5q0 26.5 10 37.5q117 4 149.5 35.5t32.5 158.5v862q0 129 -32.5 161t-149.5 36q-10 10 -10 34.5t10 35.5q209 -4 270 -5q45 0 153.5 8.5t133.5 8.5q135 0 233.5 -37t145.5 -96.5t67.5 -114.5t20.5 -111q0 -74 -25.5 -146.5t-79 -140t-155 -109.5t-236.5 -42 q-106 0 -168 23v-367q0 -127 40 -157.5t173 -36.5q10 -10 10 -37t-10 -35q-209 4 -301 4q-68 0 -272 -4q-10 8 -10 34.5zM395 690q37 -10 158 -10q156 0 233.5 78t77.5 248q0 186 -78.5 254.5t-207.5 68.5q-182 0 -183 -137v-502z" />
<glyph unicode="Q" horiz-adv-x="1466" d="M80 668q0 317 181 532t460 215q281 0 476.5 -197.5t195.5 -510.5q0 -287 -145.5 -482.5t-393.5 -236.5q-139 -43 -272 -144q29 4 41 4q121 0 309 -88t274 -88q117 0 180 80l37 -24q-119 -176 -301 -177q-92 0 -181 32t-147.5 70t-132 69.5t-137.5 31.5q-33 0 -79 -30.5 t-72 -96.5l-82 43h2q53 80 149.5 167t204.5 147q-248 31 -407.5 215t-159.5 469zM281 702q0 -295 147 -473t346 -178q184 0 301 167t117 450q0 324 -138.5 498.5t-359.5 174.5q-162 0 -287.5 -163t-125.5 -476z" />
<glyph unicode="R" horiz-adv-x="1226" d="M25 30.5q0 26.5 8 37.5q117 4 149.5 35.5t32.5 158.5v862q0 129 -32.5 161t-149.5 36q-8 10 -8 34.5t8 35.5q209 -4 270 -5q43 0 140.5 8.5t119.5 8.5q125 0 210 -19.5t153 -85.5q111 -104 110 -268q0 -80 -29.5 -147.5t-76.5 -110.5t-90 -69.5t-82 -40.5l264 -451 q47 -82 92 -124t109 -42q8 -17 8 -31q0 -10 -4 -20q-33 -16 -88 -17q-158 0 -277 193l-223 375q-25 43 -74 62.5t-170 19.5v-365h-2q0 -127 33 -158.5t149 -35.5q10 -10 10.5 -37t-10.5 -35q-209 4 -270 4q-68 0 -272 -4q-8 8 -8 34.5zM393 698h101q170 0 260 71t90 259 q0 301 -279 301q-172 0 -172 -137v-494z" />
<glyph unicode="S" horiz-adv-x="1013" d="M57 352q22 11 42 11q13 0 26 -5q68 -303 367 -303q125 0 192.5 67.5t67.5 196.5q0 59 -17.5 108.5t-41 79.5t-65.5 57.5t-71 40.5t-80 33.5t-69 29.5q-301 133 -302 374q0 164 122 268.5t276 104.5q119 0 205 -26.5t116 -30.5v-2q27 -147 37 -279q-16 -12 -65 -12 q-39 129 -105.5 201.5t-204.5 72.5q-100 0 -165.5 -69.5t-65.5 -169.5q0 -59 27.5 -109.5t83 -87.5t93.5 -57.5t107.5 -48t75.5 -29.5q287 -127 287 -375q0 -166 -134 -292t-321 -126q-100 0 -208.5 26t-168.5 26q-31 132 -41 325z" />
<glyph unicode="T" horiz-adv-x="1226" d="M10 1114q27 129 47 332q8 1 16 1q27 0 50 -11q0 -49 45 -50h907q47 0 47 50q25 10 62 10q0 -164 28 -332q-20 -10 -69 -10q-27 129 -54.5 164t-111.5 35h-129q-55 0 -86 -38t-31 -96v-907h-4q0 -129 36 -159.5t167 -34.5q8 -10 8 -37t-8 -35q-209 4 -291 4q-88 0 -293 -4 q-10 8 -10 34.5t10 37.5q131 4 167 34.5t36 159.5v914q0 53 -32 90t-87 37h-164q-88 0 -120.5 -35t-63.5 -164q-45 0 -72 10z" />
<glyph unicode="U" horiz-adv-x="1380" d="M12 1355.5q0 24.5 8 35.5q209 -4 250 -5q76 0 281 5q10 -10 10 -35t-10 -35q-125 -4 -159 -36t-34 -161v-546q0 -88 5.5 -147.5t30 -134.5t71.5 -122q111 -106 250 -106q102 0 175 32.5t112.5 81.5t62 125t29 139.5t6.5 149.5v528q0 68 -6.5 104t-34 55.5t-54 24.5 t-98.5 13q-10 10 -10 34.5t10 35.5q209 -4 242 -5q8 0 213 5q10 -10 10 -35t-10 -35q-57 -8 -78.5 -13t-46.5 -24.5t-30 -55.5t-5 -104v-489q0 -154 -23.5 -266.5t-81 -204.5t-165 -139.5t-262.5 -47.5q-61 0 -123 12.5t-129.5 49.5t-117.5 93t-84 153.5t-34 222.5v616 q0 127 -30.5 160t-131.5 37q-8 10 -8 34.5z" />
<glyph unicode="V" horiz-adv-x="1361" d="M2 1353.5q0 24.5 8 35.5q197 -4 217 -5q57 0 254 5q10 -8 10.5 -35t-10.5 -35q-106 -12 -125 -44q-6 -11 -6 -28q0 -35 25 -98l332 -877h10l330 863q27 58 26 97q0 21 -7 36q-22 45 -130 53l-2 -2q-8 8 -8 34.5t8 35.5q197 -4 227 -5q16 0 185 5q10 -8 10 -35t-10 -35 q-49 -6 -83 -22.5t-57.5 -49.5t-34 -55.5t-30.5 -73.5l-432 -1095q-20 -51 -52 -52q-29 0 -47 52l-411 1099q-47 125 -75 157t-112 40q-10 10 -10 34.5z" />
<glyph unicode="W" horiz-adv-x="1931" d="M4 1355.5q0 24.5 8 35.5q168 -4 195 -5q100 0 235 5q8 -10 8.5 -35t-8.5 -35q-63 -4 -92 -22q-18 -11 -18 -35q0 -14 6 -33l313 -991h4l265 710q14 41 14 82q0 29 -10 60l-31 100q-41 121 -182 129q-10 10 -10.5 34.5t10.5 35.5l209 -5q57 0 254 5q10 -10 10 -35t-10 -35 q-23 -2 -35.5 -4t-32 -7t-28.5 -13.5t-16 -21.5t-6 -33.5t9 -49.5l301 -959h4l332 981q2 23 7 39.5t-9 28.5t-22.5 18.5t-32 10.5t-39 6t-41.5 4q-8 10 -8.5 34.5t8.5 35.5q168 -4 229 -5q27 0 182 5q10 -10 10.5 -35t-10.5 -35q-80 -4 -118.5 -37t-61.5 -94l-412 -1165 q-16 -51 -55 -52q-47 0 -65 54l-244 761q-20 61 -31 62q-6 0 -28 -53l-291 -770q-18 -53 -58 -54q-47 0 -65 54l-379 1169q-29 82 -54.5 101.5t-101.5 23.5q-8 10 -8 34.5z" />
<glyph unicode="X" horiz-adv-x="1368" d="M4 0v43q0 14 23 14q55 2 107 34t77 59.5t57 72.5l285 404q23 31 22 49q0 23 -30 63l-301 441q-90 133 -183 149q-35 6 -34 14l-7 39l7 7q168 -4 215 -5q59 0 256 5q2 -6 4 -7v-41q0 -14 -10 -14l-68 -4q-33 -2 -41 -14.5t0 -29.5t31 -50l248 -379q14 -25 26 -25 q8 0 27 27l268 377q31 40 31 63q0 27 -43 31l-62 4q-14 0 -14 14v43l4 5l207 -5q35 0 203 5l6 -5v-43q0 -14 -21 -14q-59 -2 -103 -23.5t-65.5 -45t-58.5 -72.5l-272 -381q-29 -37 -29 -66q0 -25 35 -69l321 -453q109 -154 224 -162q14 0 14 -14v-43l-4 -4q-168 4 -219 4 q-66 0 -263 -4l-6 4v43q0 14 13 14l43 4q65 9 64.5 26t-38.5 71l-276 403q-14 25 -29 25q-8 0 -31 -31l-276 -389q-28 -34 -28 -62q0 -36 61 -43l39 -4q12 0 12 -12v-43l-6 -4q-197 4 -234 4q-49 0 -176 -4z" />
<glyph unicode="Y" horiz-adv-x="1202" d="M2 1355.5q0 24.5 8 35.5q127 -4 213 -5q74 0 238 5q10 -10 10 -35t-10 -35q-16 0 -39 -1t-33 -1t-22.5 -2t-15.5 -5t-7 -8.5t-1 -14.5t8 -20.5t16 -29.5l262 -477q10 -18 16 -24.5t12.5 -2.5t16.5 23l250 481q10 18 14 31.5t2 23t-6 14.5t-17.5 7t-22.5 3t-31.5 2 t-37.5 1q-10 10 -10 34.5t10 33.5q84 -2 191 -3q111 0 172 3q10 -8 10 -33t-10 -35q-10 0 -36 -2t-32 -3t-23.5 -5t-24.5 -11l-19 -17q-12 -11 -22.5 -27.5t-22.5 -41.5l-269 -495q-31 -57 -32.5 -67.5t-1.5 -76.5v-313l-3 -2q0 -129 36 -159.5t167 -34.5q8 -10 8 -36 t-8 -36q-209 4 -291 4q-88 0 -292 -4q-10 10 -10.5 35.5t10.5 36.5q131 4 166.5 34.5t35.5 159.5v295q0 57 -6 75.5t-35 69.5l-274 476q-29 51 -48.5 79.5t-45 43t-35.5 16.5t-51 4q-10 2 -17 2q-10 10 -10 34.5z" />
<glyph unicode="Z" horiz-adv-x="1261" d="M86 33q0 25 16 49l813 1163q16 23 16.5 39t-20.5 16h-483q-106 0 -152.5 -60t-85.5 -196l-63 13q35 190 47 358q31 -2 72 -15.5t96 -13.5h672q35 4 78 13.5t53 9.5q47 0 47 -23q0 -43 -49 -114l-785 -1116q-16 -33 -16 -43q0 -29 53 -29h486q111 0 169 73.5t93 209.5 l65 -13q-41 -172 -57 -358q-209 4 -266 4h-760q-39 0 -39 33z" />
<glyph unicode="[" horiz-adv-x="743" d="M225 -416v1927h443q10 -8 10 -30.5t-10 -32.5q-113 -8 -169.5 -19.5t-88 -41t-37.5 -66.5t-6 -115v-1315q0 -63 4 -95t18 -62.5t49 -44t87.5 -23.5t142.5 -16q10 -10 10 -33t-10 -33h-443z" />
<glyph unicode="\" horiz-adv-x="600" d="M23 1501h92l481 -1603h-92z" />
<glyph unicode="]" horiz-adv-x="743" d="M66 -379.5q0 23.5 10 31.5q147 10 207.5 32.5t78 63.5t17.5 143v1315q0 78 -6 115t-39 66.5t-89.5 41t-168.5 21.5q-10 8 -10 30.5t10 32.5h442v-1927h-442q-10 11 -10 34.5z" />
<glyph unicode="^" horiz-adv-x="1060" d="M229 709l260 622h86l259 -622h-93l-211 505l-208 -505h-93z" />
<glyph unicode="_" horiz-adv-x="995" d="M8 -270.5q0 32.5 12 45.5h955q12 -12 12 -45t-12 -45h-955q-12 12 -12 44.5z" />
<glyph unicode="`" horiz-adv-x="802" d="M197 1366l4 23q63 47 133 47q14 0 31 -4l143 -258q12 -25 12 -50q0 -8 -9 -15t-22 -7q-16 0 -59 41z" />
<glyph unicode="a" horiz-adv-x="935" d="M74 201q0 102 93 181t245 116l176 43q12 4 12 24q0 266 -166 266q-68 0 -119 -21.5t-51 -64.5q0 -29 4 -40q6 -12 6 -37q0 -23 -24.5 -45.5t-65.5 -22.5q-72 0 -71 72q0 84 106.5 155.5t231.5 71.5q309 0 309 -346v-305q0 -59 3 -90t22.5 -57.5t56.5 -26.5q25 0 43 16 t20 16q6 0 16.5 -12t10.5 -22q0 -6 -21.5 -27.5t-64.5 -43t-88 -21.5q-123 0 -158 118h-4l-41 -32q-66 -53 -109 -69.5t-114 -16.5q-117 0 -187.5 53t-70.5 168zM244 209q0 -55 37.5 -100.5t109.5 -45.5t180 89q29 20 29 53v272l-162 -43q-194 -53 -194 -225z" />
<glyph unicode="b" horiz-adv-x="1024" d="M16 1374q182 14 287 56q27 0 27 -21q-8 -82 -8 -215v-377q0 -31 20 -10q102 92 229 92q141 0 252 -112.5t111 -290.5q0 -229 -141.5 -372.5t-311.5 -143.5q-119 0 -180 51q-31 25 -55 -6l-49 -50q-29 0 -45 25q8 39 8 145v1000q0 66 -3 98.5t-25.5 48t-35 16.5t-67.5 5 q-15 15 -16 38q0 11 3 23zM322 145q78 -96 147 -96q141 0 215 113.5t74 296.5q0 147 -66.5 248.5t-161.5 101.5q-100 0 -174 -66q-35 -29 -34 -86v-512z" />
<glyph unicode="c" horiz-adv-x="866" d="M76 426q0 207 129 340t291 133q145 0 229 -54t84 -140q0 -43 -32 -67t-68 -24q-70 0 -78 74q-4 45 -13.5 70.5t-42 49t-90.5 23.5q-102 0 -167.5 -97t-65.5 -263q0 -176 80 -283.5t194 -107.5q141 0 246 135q33 -4 43 -29q-72 -119 -151.5 -162.5t-182.5 -43.5 q-190 0 -297.5 121.5t-107.5 324.5z" />
<glyph unicode="d" horiz-adv-x="1036" d="M80 416q0 225 141 360q123 123 307 123q31 0 68 -9t63.5 -17.5t28.5 -8.5q18 0 19 19v262q0 66 -3.5 98.5t-26 48t-34.5 16.5t-68 5q-15 15 -15 38q0 11 3 23q182 14 287 56q27 0 27 -21q-8 -82 -9 -215v-928q0 -80 28 -110.5t122 -38.5q10 -10 10 -28.5t-10 -27.5 q-172 -20 -248 -81q-11 -3 -21 -3.5t-18 3.5q-23 72 -22 120q0 23 -25 2q-152 -123 -256 -122q-162 0 -255 120.5t-93 315.5zM256 453q0 -180 67.5 -278.5t157.5 -98.5q80 0 193 98q33 29 33 80v389q0 47 -6.5 66.5t-28.5 44.5q-63 74 -166 73q-121 0 -191 -102 q-59 -90 -59 -272z" />
<glyph unicode="e" horiz-adv-x="933" d="M78 434q0 229 132 367.5t286 138.5q352 0 352 -375q0 -37 -39 -37l-557 4q0 -178 67 -292q92 -156 228 -156q88 0 143 26.5t117 90.5q33 -2 43 -35q-141 -188 -354 -189q-203 0 -320 140q-98 114 -98 317zM258 606l379 6q31 0 31 31q0 123 -50.5 174t-121.5 51 q-27 0 -54.5 -8t-66.5 -30.5t-71 -80t-46 -143.5z" />
<glyph unicode="f" horiz-adv-x="634" d="M45 811v27q0 41 47 41h105v82q0 223 109.5 346t252.5 123q125 0 184 -44q66 -47 66 -104q0 -31 -28.5 -57.5t-55.5 -26.5q-53 0 -82 66q-20 53 -48 74.5t-75 21.5q-162 0 -162 -365v-116h222q16 0 16 -13v-41q0 -27 -47 -26h-191v-549q0 -123 27 -151.5t135 -35.5 q8 -10 8 -34.5t-8 -32.5q-176 4 -241 4q-43 0 -216 -4q-10 8 -10 32.5t10 34.5q88 6 111 35t23 152v549h-142q-10 0 -10 12z" />
<glyph unicode="g" horiz-adv-x="1024" d="M66 -254q0 147 167 248q-94 47 -94 158q0 55 24.5 113.5t65.5 92.5q-106 102 -106 230q0 137 104.5 224t245.5 87q127 0 213 -57q37 49 98.5 76.5t106.5 27.5q41 0 67.5 -21.5t26.5 -54.5q0 -31 -23.5 -54t-52.5 -23q-39 0 -57 36q-16 25 -41 25q-18 0 -44 -16.5 t-38 -32.5q88 -90 88 -213q0 -143 -101.5 -228t-244.5 -85q-113 0 -186 43q-37 -51 -37 -119q0 -59 39 -88t92 -29q31 0 61 4q123 10 138 10q217 0 299 -67q90 -74 90 -166q0 -106 -87 -189.5t-217.5 -124t-271.5 -40.5q-137 0 -231 55t-94 178zM207 -213q0 -92 86 -145.5 t160 -53.5q96 0 186 25t152.5 78t62.5 123q0 39 -22.5 65.5t-81.5 61.5q-63 35 -248 34q-10 0 -61.5 -3t-88.5 -3q-45 0 -82 11q-63 -76 -63 -193zM291 618q0 -57 6 -99t24.5 -86t58.5 -67.5t101 -23.5q172 0 172 229q0 127 -51 196t-147 69q-164 -1 -164 -218z" />
<glyph unicode="h" horiz-adv-x="1089" d="M29 28.5q0 24.5 10 32.5q94 6 118.5 35t24.5 152v895q0 66 -3 98.5t-25.5 48t-35 16.5t-67.5 5q-15 15 -15 38q0 11 3 23q182 14 287 55q27 0 26 -20q-8 -82 -8 -215l-2 -461q0 -25 18 0q150 166 336 166q117 0 170 -70q55 -72 56 -272v-305q0 -121 23.5 -149.5 t113.5 -37.5q8 -10 8 -34.5t-8 -32.5q-176 4 -217 4q-37 0 -209 -4q-8 8 -8 32.5t8 34.5q84 8 105.5 37t21.5 150v311q0 109 -25 158q-39 74 -108 74q-129 0 -250 -121q-35 -35 -35 -86l2 -338q2 -123 21.5 -151.5t101.5 -35.5q8 -8 8 -32.5t-8 -34.5q-172 4 -203 4 q-57 0 -225 -4q-10 10 -10 34.5z" />
<glyph unicode="i" horiz-adv-x="555" d="M49 28.5q0 24.5 8 34.5q98 8 123 36t25 151v399q0 86 -22.5 108.5t-108.5 30.5q-12 35 -4 58q193 25 282 59q27 0 27 -14q-8 -131 -8 -234v-407h-4q0 -123 24.5 -151.5t122.5 -35.5q10 -10 10 -34.5t-10 -32.5q-176 4 -227 4q-57 0 -230 -4q-8 8 -8 32.5zM180 1227 q0 37 35 67.5t72 30.5q39 0 68.5 -34t29.5 -72q0 -35 -33 -67t-73 -32q-37 0 -68 34t-31 73z" />
<glyph unicode="j" horiz-adv-x="557" d="M-98 -369q0 27 23.5 52.5t41.5 25.5q10 0 20.5 -3t17.5 -6t17 -10l13 -11q4 -3 12 -12t10 -11q23 -23 64 -23q70 0 90 135.5t20 387.5v493q0 86 -23.5 108.5t-109.5 30.5q-12 35 -4 58q195 25 281 59q27 0 26 -14q-8 -131 -8 -234v-432q0 -276 -38 -412.5t-115 -199.5 q-84 -70 -226 -70q-37 0 -74.5 23.5t-37.5 64.5zM203 1227q0 37 34.5 67.5t71.5 30.5q39 0 69 -34t30 -72q0 -35 -33 -67t-74 -32q-37 0 -67.5 34t-30.5 73z" />
<glyph unicode="k" horiz-adv-x="987" d="M29 28.5q0 24.5 10 34.5q90 6 113.5 35t23.5 152l-4 893q0 66 -3 98.5t-25.5 48t-35 16.5t-67.5 5q-15 15 -16 38q0 11 4 23q182 14 286 55q27 0 27 -20q-8 -82 -8 -215v-707q82 25 266 226q12 12 21.5 25.5t15.5 32.5t-11.5 32.5t-60.5 15.5q-8 10 -8 35t8 33 q152 -4 189 -4q27 0 178 4q10 -8 10 -33t-10 -35q-150 -6 -225 -90l-156 -172q-8 -8 -8 -20q0 -14 10 -29l240 -354q31 -47 70.5 -62.5t105.5 -23.5q10 -8 10 -33t-10 -35q-123 4 -168 4q-59 0 -142 -4q-8 0 -8 10v33q0 43 -47 111l-149 210q-31 43 -55.5 57.5t-61.5 14.5 v-184q0 -121 19.5 -150.5t86.5 -36.5q10 -10 10.5 -34.5t-10.5 -32.5q-176 4 -186 4q-47 0 -219 -4q-10 8 -10 32.5z" />
<glyph unicode="l" horiz-adv-x="540" d="M37 28.5q0 24.5 10 34.5q96 4 122 34t26 153v895q0 66 -3.5 98.5t-26 48t-34.5 16.5t-68 5q-15 15 -15 38q0 11 3 23q182 14 287 56q27 0 27 -21q-8 -82 -9 -215v-944q0 -123 26 -152.5t122 -34.5q8 -10 8 -34.5t-8 -32.5q-176 4 -228 4q-57 0 -229 -4q-10 8 -10 32.5z " />
<glyph unicode="m" horiz-adv-x="1597" d="M37 28.5q0 24.5 10 34.5q90 6 114.5 36t24.5 151v399q0 86 -22.5 108.5t-108.5 30.5q-12 35 -4 58q195 25 285 59q25 0 24 -16q-10 -94 -10 -156q0 -25 17 -6q2 4 4 6q158 166 299 166q78 0 134 -42t73 -107q4 -20 22 -2q143 152 326 151q125 0 170 -85t45 -241v-323 q0 -123 21.5 -151.5t109.5 -35.5q8 -10 8 -34.5t-8 -32.5q-176 4 -211 4q-37 0 -209 -4q-8 8 -8 32.5t8 34.5q84 6 105.5 36t21.5 151v360q0 182 -127 183q-135 0 -258 -136q2 -25 2 -82v-325q0 -123 20.5 -151.5t100.5 -35.5q8 -10 8 -34.5t-8 -32.5q-176 4 -201 4 q-37 0 -209 -4q-8 8 -8 32.5t8 34.5q86 6 106.5 35t20.5 152v356q0 186 -135 187q-84 0 -209 -121h-6q-35 -39 -35 -86v-336q0 -121 20.5 -149.5t102.5 -37.5q8 -10 8 -34.5t-8 -32.5q-172 4 -203 4q-53 0 -221 -4q-10 8 -10 32.5z" />
<glyph unicode="n" horiz-adv-x="1097" d="M45 28.5q0 24.5 8 34.5q96 8 120 36t24 151v399q0 86 -23.5 108.5t-110.5 30.5q-12 35 -4 58q197 27 283 59q25 0 25 -16q-10 -94 -11 -156q0 -27 21 0q86 96 161.5 131t161.5 35q117 0 170 -70q55 -74 56 -274v-305q0 -121 23.5 -149.5t113.5 -37.5q8 -10 8 -34.5 t-8 -32.5q-176 4 -217 4q-37 0 -209 -4q-8 8 -8 32.5t8 34.5q84 8 105.5 37t21.5 150v311q0 109 -25 158q-39 74 -108 74q-117 0 -238 -121q-35 -35 -35 -86v-336q0 -121 20.5 -149.5t102.5 -37.5q10 -10 10.5 -34.5t-10.5 -32.5q-172 4 -202 4q-57 0 -226 -4q-8 8 -8 32.5z " />
<glyph unicode="o" horiz-adv-x="1032" d="M84 420q0 203 116.5 341t317.5 138q115 0 201 -41t134 -109.5t71.5 -147.5t23.5 -163q0 -111 -43 -211t-145.5 -173.5t-245.5 -73.5q-203 0 -316.5 134t-113.5 306zM260 467q0 -63 16.5 -133t48 -135.5t91 -108.5t135.5 -43q90 0 155.5 71.5t65.5 254.5 q0 223 -71.5 340.5t-204.5 117.5q-119 0 -177.5 -106t-58.5 -258z" />
<glyph unicode="p" horiz-adv-x="1062" d="M8 -446.5q0 24.5 8 34.5q96 4 122 34t26 153v874q0 86 -23.5 108.5t-109.5 30.5q-12 35 -4 58q188 25 276 59q27 0 27 -14q-8 -57 -8 -131q0 -6 4 -9t8 -2t8 5q68 68 144.5 106.5t136.5 38.5q154 0 258 -125t104 -293q0 -240 -151 -387q-121 -115 -302 -114 q-100 0 -178 32q-14 8 -21 5t-7 -21v-221q0 -123 27.5 -152t140.5 -35q10 -10 10 -34.5t-10 -32.5q-176 4 -248 4q-57 0 -230 -4q-8 8 -8 32.5zM326 215q0 -53 8 -73.5t41 -49.5q49 -43 145 -43q82 0 141.5 34t90 92t44 119.5t13.5 131.5q0 168 -70.5 273.5t-173.5 105.5 q-92 0 -207 -119q-33 -33 -32 -90v-381z" />
<glyph unicode="q" horiz-adv-x="1030" d="M72 424q0 203 123.5 339t310.5 136q137 0 231 -59q18 -12 28.5 -7t31.5 33q29 39 43 39q31 0 30 -51v-1081q0 -123 25 -152t123 -33q10 -10 10 -34.5t-10 -32.5q-176 4 -227 4q-57 0 -230 -4q-8 8 -8 32.5t8 34.5q98 4 123 33t25 152v227q0 14 -2 20.5t-4.5 10.5t-10.5 1 t-15 -6t-24 -14q-55 -33 -157 -32q-203 0 -313.5 139t-110.5 305zM248 465q0 -111 28.5 -191.5t75.5 -122.5t95.5 -61.5t97.5 -19.5q84 0 135 26q18 10 23.5 21.5t5.5 40.5v471q0 72 -50 125q-68 76 -161 75q-119 0 -184.5 -100t-65.5 -264z" />
<glyph unicode="r" horiz-adv-x="761" d="M45 28.5q0 24.5 8 34.5q100 6 126 35t26 152v399q0 84 -24.5 107.5t-108.5 31.5q-6 8 -7.5 29t3.5 29q195 25 280 59q27 0 27 -14q-10 -98 -10 -164q0 -12 5 -12t13 14q41 70 101.5 120t125.5 50q59 0 91 -31.5t32 -66.5q0 -39 -29.5 -71t-66.5 -32q-14 0 -28.5 7.5 t-21.5 14.5t-18.5 20.5t-15.5 17.5q-14 14 -43 14q-25 0 -94 -100q-49 -74 -49 -137v-285q0 -123 27.5 -150.5t140.5 -36.5q10 -10 10 -34.5t-10 -32.5q-176 4 -248 4q-61 0 -234 -4q-8 8 -8 32.5z" />
<glyph unicode="s" horiz-adv-x="784" d="M98 283q10 10 32 10t32 -8q35 -143 80 -189q49 -49 145 -49q66 0 120 37t54 106q0 68 -42 109t-167 92q-123 51 -174 110.5t-51 168.5q0 96 86 162.5t203 66.5q47 0 96 -7t103.5 -18.5t68.5 -13.5q0 -27 -6 -101.5t-6 -115.5q-10 -10 -33 -10t-33 8q-10 61 -33.5 102 t-55.5 58.5t-55.5 23.5t-45.5 6q-55 0 -99.5 -35.5t-44.5 -95.5q0 -41 12.5 -69.5t46.5 -51t60.5 -35t85.5 -34.5q240 -92 240 -272q0 -72 -34 -125.5t-87 -81t-104.5 -39.5t-100.5 -12q-100 0 -186 22q-14 4 -41 4q-20 0 -51 -6q-1 107 -15 283z" />
<glyph unicode="t" horiz-adv-x="647" d="M51 811v27q0 41 37 41h94q0 188 -4 235q0 6 3 10t13.5 9.5t12.5 7.5l119 53q27 0 26 -20q-8 -82 -8 -216v-79h246q16 0 16 -13v-41q0 -27 -49 -26h-213v-518q0 -100 14.5 -144.5t53.5 -44.5q94 0 168 58q31 -2 36 -35q-121 -135 -276 -135q-158 0 -158 202v617h-121 q-10 0 -10 12z" />
<glyph unicode="u" horiz-adv-x="1075" d="M45 847.5q0 24.5 10 33.5q152 -4 209 -4q51 0 72 4q16 0 16 -13q-8 -150 -8 -211v-372q0 -121 50 -166t114 -45q78 0 192 98q33 29 33 80v395q0 98 -24.5 130t-102.5 36q-8 10 -8 34.5t8 33.5q152 -4 209 -4q51 0 72 4q16 0 16 -13q-8 -150 -8 -211v-393 q0 -80 27.5 -110.5t121.5 -38.5q8 -8 8.5 -26.5t-8.5 -29.5q-172 -20 -247 -82q-9 -3 -18 -2l-23 5q-23 74 -23 120q0 23 -24 2q-152 -123 -265 -122l2 -3q-141 0 -202.5 79t-61.5 200v393q0 96 -25.5 127t-101.5 37q-10 10 -10 34.5z" />
<glyph unicode="v" horiz-adv-x="1017" d="M12 847.5q0 24.5 11 35.5q152 -4 180 -4q66 0 217 4q10 -10 10 -35t-10 -33q-86 -6 -93 -35l-2 -10q0 -30 31 -92l148 -395q25 -67 38 -67t38 60l165 402q22 53 23 82q0 14 -5 22q-15 27 -97 33l-2 -2q-8 10 -8.5 34.5t8.5 33.5q152 -4 196.5 -4t134.5 4q8 -8 8.5 -33 t-8.5 -35q-78 -6 -109.5 -39t-66.5 -112l-272 -642q-18 -47 -49 -47q-35 0 -52 43l-262 648q-4 8 -13 31l-11 29q-2 5 -10.5 21.5t-12.5 19.5t-13 14.5t-18 14.5l-21 8q-13 5 -27.5 8t-34.5 5q-11 8 -11 32.5z" />
<glyph unicode="w" horiz-adv-x="1529" d="M12 847.5q0 24.5 11 35.5q106 -4 180 -4q61 0 213 4q10 -10 10 -35t-10 -33l2 -2q-72 -4 -83 -34q-3 -8 -3 -18q0 -30 24 -85l164 -422q20 -49 28.5 -47t29.5 53l143 363l-12 32l-26 65q-7 17 -25.5 45t-44 38t-62.5 12q-10 8 -10 32.5t10 35.5q152 -4 180 -4q53 0 205 4 q10 -10 10 -35t-10 -33q-80 -6 -92 -30q-4 -7 -4 -17q0 -27 22 -78l176 -448q16 -39 22.5 -38t18.5 34q2 8 4 12l172 426l15.5 42t4.5 34.5t-12.5 31t-39 20.5t-72.5 11q-8 8 -8 32.5t8 35.5q152 -4 213 -4q41 0 143 4q8 -10 8.5 -35t-8.5 -33q-72 -4 -107.5 -39t-66.5 -108 l-268 -650q-16 -43 -47 -43t-49 41l-211 508l-207 -504q-20 -45 -49 -45q-31 0 -49 41l-269 662q-33 80 -61.5 104.5t-99.5 32.5q-11 8 -11 32.5z" />
<glyph unicode="x" horiz-adv-x="1003" d="M33 28.5q0 24.5 8 34.5q45 2 66.5 7.5t56.5 30t76 77.5l172 221q10 12 -2 31l-179 260q-80 115 -184 125q-10 8 -10 32.5t10 35.5q152 -4 176 -4q55 0 207 4q8 -10 8 -35t-8 -33q-10 -2 -28.5 -4t-24.5 -3t-16.5 -3t-11.5 -5t-3 -8.5t2 -13.5l9 -18q5 -10 16 -27 l112 -184q18 -31 39 -4l133 186q27 35 25 52.5t-15.5 22.5t-56.5 9q-8 8 -8 32.5t8 35.5q152 -4 172 -4q47 0 150 4q10 -10 10 -35t-10 -33q-63 -6 -103.5 -25.5t-93.5 -87.5l-172 -219q-10 -14 2 -30l185 -260q33 -45 58.5 -72t57 -38t40.5 -13t50 -7q10 -10 10.5 -34.5 t-10.5 -32.5q-152 4 -172 4q-61 0 -213 -4q-10 8 -10 32.5t10 34.5q4 0 19.5 2.5t19.5 3.5t14.5 4t10.5 6t4 8t1 12l-7 18q-4 10 -13.5 24.5t-21.5 30.5l-119 164q-12 14 -18 13t-19 -17l-129 -187q-25 -31 -18.5 -48t20 -23t45.5 -11q8 -10 8.5 -34.5t-8.5 -32.5 q-152 4 -172 4q-33 0 -51 -1t-42.5 -2t-53.5 -1q-8 8 -8 32.5z" />
<glyph unicode="y" horiz-adv-x="1062" d="M29 852q0 25 10 33q82 -4 166 -4q80 0 231 4q10 -8 10 -33t-10 -35q-86 -6 -93 -38q-1 -5 -1 -12q0 -31 29 -83l182 -426q13 -29 25 -29l24 27l203 469q10 22 10 37q0 20 -16 31q-29 18 -92 24q-10 10 -10.5 35t10.5 33q152 -4 186 -4q43 0 145 4q10 -8 10.5 -33 t-10.5 -35q-53 -4 -97 -43t-69 -88q-131 -274 -362 -836q-41 -104 -84 -178l-2 2q-84 -147 -199 -147q-41 0 -68.5 21.5t-27.5 54.5q0 27 25.5 57.5t64.5 30.5q10 0 27.5 -3t32.5 -3q74 0 102 59q39 74 80 188q9 23 8 52q0 59 -37 141l-231 539q-41 98 -68 122.5t-94 30.5 q-10 10 -10 35z" />
<glyph unicode="z" horiz-adv-x="868" d="M78 25q0 12 18 41l504 743h-283q-113 0 -165 -193q-13 -3 -26 -3l-44 10q29 176 31 270q0 4 5 8t7 4q10 -2 35.5 -14t64.5 -12h416q27 0 57.5 3t53 7t24.5 4q25 0 25 -14q0 -16 -45 -86l-492 -723h273q82 0 121.5 35.5t80.5 127.5l27 60q39 0 63 -14q-45 -156 -65 -279 h-639q-47 0 -47 25z" />
<glyph unicode="{" horiz-adv-x="579" d="M72 514v33q150 45 149 250v395q0 180 67.5 252t229.5 76q10 -8 10 -24.5t-10 -27.5q-72 -20 -108.5 -72.5t-36.5 -187.5v-379q0 -141 -31 -202.5t-111 -96.5q86 -39 114 -109.5t28 -215.5v-342q0 -119 39 -192.5t106 -73.5q23 -27 0 -54q-166 4 -231.5 76t-65.5 277v364 q1 215 -149 254z" />
<glyph unicode="}" horiz-adv-x="579" d="M43 1491q0 16 10 27q166 -4 230.5 -75t64.5 -276v-364q0 -219 152 -254v-33q-152 -45 -152 -250v-395q0 -182 -66.5 -254t-228.5 -76q-27 27 0 53q70 20 108 73.5t38 187.5v376q0 143 29.5 204t109.5 95q-86 39 -112.5 110t-26.5 218v342q0 119 -39 192.5t-107 73.5 q-10 9 -10 25z" />
<glyph unicode="&#xa2;" horiz-adv-x="1404" d="M-4 55q4 168 4 269v448q-2 170 -4 272q8 8 34.5 8.5t37.5 -8.5q4 -117 35.5 -149.5t158.5 -32.5h862q129 0 161 33t36 149q10 8 34.5 8.5t35.5 -8.5l-5 -270v-532q0 -55 9 -103q0 -8 -6 -8q-66 -16 -312 -45q-16 33 -10 68q129 41 181 85t52 152v219q0 35 -26.5 54.5 t-67.5 19.5h-430v-188q0 -127 25.5 -157t120.5 -34q10 -10 10 -34.5t-10 -34.5q-127 4 -185 4q-37 0 -188 -4q-10 10 -10 34.5t10 34.5q57 4 82.5 13.5t44 50.5t18.5 127v188h-518q-43 0 -67.5 -19.5t-24.5 -54.5v-284q0 -111 74.5 -174.5t208.5 -100.5q10 -41 -13 -71 q-176 26 -358 75z" />
<glyph unicode="&#xa3;" horiz-adv-x="1404" d="M-6 889q0 8 6 8q33 8 311 47q16 -35 11 -70q-129 -41 -181.5 -85t-52.5 -150v-219q0 -37 26.5 -56.5t67.5 -19.5h430v191q0 125 -25.5 154.5t-119.5 33.5q-10 10 -10 34.5t10 35.5q127 -4 184 -5q41 0 189 5q10 -10 10 -35t-10 -35q-45 -2 -65.5 -7t-42 -22.5t-30 -55.5 t-8.5 -103v-191h518q92 0 93 76v282q0 199 -281 275q-12 39 10 74q188 -33 359 -78q-4 -168 -4 -268v-449q2 -170 4 -272q-8 -8 -35 -8.5t-37 8.5q-4 117 -36 149.5t-159 32.5h-862q-129 0 -160.5 -33t-35.5 -149q-10 -8 -35 -8.5t-35 8.5l4 270v532q0 56 -8 103z" />
<glyph unicode="&#xaa;" horiz-adv-x="935" d="M74 201q0 102 93 181t245 116l176 43q12 4 12 24q0 266 -166 266q-68 0 -119 -21.5t-51 -64.5q0 -29 4 -40q6 -12 6 -37q0 -23 -24.5 -45.5t-65.5 -22.5q-72 0 -71 72q0 84 106.5 155.5t231.5 71.5q309 0 309 -346v-305q0 -59 3 -90t22.5 -57.5t56.5 -26.5q25 0 43 16 t20 16q6 0 16.5 -12t10.5 -22q0 -6 -21.5 -27.5t-64.5 -43t-88 -21.5q-123 0 -158 118h-4l-41 -32q-66 -53 -109 -69.5t-114 -16.5q-117 0 -187.5 53t-70.5 168zM244 209q0 -55 37.5 -100.5t109.5 -45.5t180 89q29 20 29 53v272l-162 -43q-194 -53 -194 -225z" />
<glyph unicode="&#xad;" horiz-adv-x="692" d="M82 496q0 29 16.5 56.5t34.5 27.5h449q29 0 28 -41q0 -20 -18.5 -51t-36.5 -31h-442q-31 0 -31 39z" />
<glyph unicode="&#xb2;" horiz-adv-x="628" d="M90 745q0 125 176 261q78 63 110 109t32 122q0 111 -103 111q-80 0 -98 -43q-4 -6 -3 -30t1 -30q-8 -43 -55 -43l-5 4q-18 0 -35.5 15.5t-17.5 33.5q0 53 55.5 105.5t163.5 52.5q90 0 155.5 -40t65.5 -130q0 -66 -44 -121t-138 -123q-104 -76 -135 -184h170q23 0 41 11.5 t33 37.5l21 41q7 14 20 47q33 0 49 -12q-12 -113 -37 -195h-422z" />
<glyph unicode="&#xb3;" horiz-adv-x="628" d="M76 819q0 18 16.5 31.5t34.5 13.5q45 0 61 -35q18 -35 95 -34q59 0 104 34.5t45 122.5q0 125 -153 125q-8 0 -41 -4q-14 20 -2 55q145 20 145 150l-2 -2q0 37 -23.5 53.5t-54.5 16.5t-63.5 -13.5t-42.5 -36.5q-2 -4 -6.5 -17t-8.5 -20.5t-14 -14.5t-27 -7q-18 0 -29.5 8 t-14.5 16.5t-3 12.5q0 23 19.5 50.5t76 55t138.5 27.5q80 0 127 -32t47 -89q0 -82 -105 -139q61 -6 112.5 -52t51.5 -128q0 -104 -80 -170t-205 -66q-59 0 -128.5 22.5t-69.5 65.5z" />
<glyph unicode="&#xb4;" horiz-adv-x="698" d="M180 1139q0 20 23 57l155 244q12 4 29 4q63 0 113 -47l6 -23l-236 -223q-39 -39 -61 -39q-10 0 -19.5 8.5t-9.5 18.5z" />
<glyph unicode="&#xb5;" horiz-adv-x="995" d="M90 879q27 0 89.5 9t78.5 11q6 -131 6 -197v-401q0 -229 142 -229q74 0 147.5 45t110.5 102v660q29 0 86 9t67 11v-651q0 -59 3 -91t22.5 -59.5t56.5 -27.5q29 0 47.5 16t20.5 16q6 0 14 -10t8 -20q0 -8 -20.5 -28.5t-62.5 -42t-87 -21.5q-139 0 -155 143h-5 q-121 -143 -282 -143q-88 0 -127 47q-25 0 -25 -19q0 -72 33 -198.5t33 -165.5q0 -59 -23.5 -91t-60.5 -32q-31 0 -71 38t-40 95q0 49 16.5 155.5t16.5 174.5q0 27 -9 126t-9 164v385z" />
<glyph unicode="&#xb6;" horiz-adv-x="1232" d="M117 985q0 135 100 237.5t289 102.5q88 0 200.5 -2t129.5 -2h-5q266 0 365 4l4 -4v-39q0 -16 -16 -16l-54 -4q-63 -4 -87.5 -22.5t-24.5 -63.5v-1506q0 -45 24.5 -63.5t87.5 -22.5l54 -4q16 0 16 -16v-39l-4 -4q-96 4 -360 4q-262 0 -363 -4l-4 4v39q0 16 14 16l56 4 q63 4 86.5 23.5t23.5 62.5v914q-27 -6 -65 -6q-227 0 -347 102t-120 305zM748 -330q0 -78 81 -78q84 0 84 78v1506q0 78 -84 77q-82 0 -81 -77v-1506z" />
<glyph unicode="&#xb7;" horiz-adv-x="512" d="M145 528q0 43 34 77t77 34t77 -34t34 -77t-34 -76.5t-77 -33.5t-77 33.5t-34 76.5z" />
<glyph unicode="&#xb9;" horiz-adv-x="628" d="M141 1294q129 47 240 115q23 12 35 0v-489q0 -39 7 -61.5t24.5 -34t34 -14.5t46.5 -5q16 -31 0 -60q-61 2 -172 3q-135 0 -196 -3q-18 29 0 60q51 2 76.5 8t47 31.5t21.5 75.5v266q0 51 -5 67.5t-24 16.5h3q-31 0 -117 -31q-21 14 -21 55z" />
<glyph unicode="&#xba;" horiz-adv-x="714" d="M80 879q0 125 78 202.5t209 77.5q127 0 198.5 -77.5t71.5 -190.5q0 -109 -75 -189.5t-210 -80.5q-115 0 -193.5 74.5t-78.5 183.5zM199 899q0 -86 45 -155.5t131 -69.5q53 0 98 43t45 141q0 121 -45 184.5t-123 63.5q-74 0 -112.5 -59.5t-38.5 -147.5z" />
<glyph unicode="&#xbb;" horiz-adv-x="950" d="M94 96q152 229 268 344q-117 115 -268 344l51 50q188 -227 334 -345q27 -23 41 -32v-33l-41 -33q-145 -117 -334 -344zM430 96q152 229 268 344q-117 115 -268 344l51 50q188 -227 334 -345q27 -23 41 -32v-33l-41 -33q-145 -117 -334 -344z" />
<glyph unicode="&#xbc;" horiz-adv-x="1351" d="M135 1194q129 47 240 115q23 12 35 0v-490q0 -39 7 -61.5t24.5 -33.5t34 -14t46.5 -5q16 -31 0 -60q-61 2 -172 2q-135 0 -196 -2q-18 29 0 60q51 2 76.5 8t47 31.5t21.5 74.5v266q0 51 -5 67.5t-24 16.5h2q-31 0 -116 -30q-21 16 -21 55zM203 -111l940 1342l84 -17 l-938 -1341zM782 61l316 447l63 -21q-51 -80 -149 -217l-117 -164h188v117q0 12 17 37q33 41 53 41q29 0 29 -20v-175h114l-12 -69h-102v-49q0 -57 22.5 -73.5t81.5 -20.5q16 -31 0 -60q-61 2 -155.5 2t-155.5 -2q-18 29 0 60q66 4 87 19t21 75v49h-292z" />
<glyph unicode="&#xbd;" horiz-adv-x="1351" d="M139 1194q129 47 240 115q23 12 35 0v-490q0 -39 7 -61.5t24.5 -33.5t34 -14t46.5 -5q16 -31 0 -60q-61 2 -172 2q-135 0 -196 -2q-18 29 0 60q51 2 76.5 8t47 31.5t21.5 74.5v266q0 51 -5 67.5t-24 16.5h2q-31 0 -116 -30q-21 16 -21 55zM150 -106l937 1341l87 -16 l-941 -1342zM825 -162q0 125 176 260q78 63 110 109.5t32 122.5q0 111 -103 110q-80 0 -98 -43q-4 -6 -3 -29.5t1 -29.5q-6 -43 -55 -43l-4 4q-18 0 -36 15.5t-18 33.5q0 53 55.5 105.5t164.5 52.5q90 0 155.5 -40t65.5 -130q0 -66 -44 -121t-139 -123q-104 -76 -135 -184 h170q23 0 41.5 11t32.5 38l21 41q7 14 20 47q35 0 49 -12q-12 -113 -37 -195h-422z" />
<glyph unicode="&#xbe;" horiz-adv-x="1351" d="M72 715q0 18 16 31.5t35 13.5q45 0 61 -35q18 -35 95 -35q59 0 104 35t45 123q0 125 -154 125q-8 0 -41 -4q-14 20 -2 55q145 20 146 150l-2 -3q0 37 -23.5 53.5t-54.5 16.5t-63.5 -13.5t-43.5 -35.5q-2 -4 -6 -17.5t-8 -20.5t-14 -14t-27 -7q-18 0 -29.5 8t-14.5 16 t-3 12q0 23 19.5 50.5t76 55.5t138.5 28q80 0 127 -32t47 -89q0 -82 -105 -140q61 -6 112.5 -52t51.5 -128q0 -104 -80 -169.5t-205 -65.5q-59 0 -128.5 22.5t-69.5 65.5zM209 -113l940 1342l84 -17l-938 -1341zM788 66l316 446l63 -20q-51 -80 -149 -218l-117 -163h189v116 q0 12 16 37q33 41 53 41q29 0 29 -20v-174h115l-13 -70h-102v-49q0 -57 22.5 -73.5t81.5 -20.5q16 -31 0 -60q-61 2 -155.5 2t-155.5 -2q-18 29 0 60q66 4 87.5 19t21.5 75v49h-293z" />
<glyph unicode="&#xbf;" horiz-adv-x="890" d="M94 -162q0 57 18.5 106.5t59.5 91.5t67.5 64.5t77.5 59.5q86 63 107 102q29 55 29 150v90q0 20 34 20q33 0 33 -20v-94q0 -195 -143 -330q-61 -57 -87 -108.5t-26 -123.5q0 -102 54.5 -175.5t140.5 -73.5t142 31.5t56 78.5q0 39 -12 53.5t-12 49.5q0 33 24.5 52t55.5 19 q33 0 58.5 -20.5t25.5 -67.5q0 -96 -105 -184q-96 -80 -254 -80q-156 0 -250 85t-94 224zM379 790.5q0 45.5 31.5 77t76.5 31.5t77 -31.5t32 -77t-32 -77t-77 -31.5t-76.5 31.5t-31.5 77z" />
<glyph unicode="&#xc0;" horiz-adv-x="1480" d="M4 32.5q0 28.5 8 37.5q82 6 128 34.5t85 124.5l473 1176q18 45 34 62.5t40 17.5q20 0 31.5 -15.5t25.5 -52.5l437 -1222q12 -33 29.5 -56.5t29.5 -35t44 -18.5t40 -8t51 -5q10 -10 10 -37t-10 -37q-160 4 -243 4q-123 0 -279 -4q-8 10 -8 36.5t8 37.5q12 2 32.5 3t33 1 t28 2t24.5 4t20 6t15.5 11t8.5 15.5t2 20.5t-6 27l-131 383h-443q-37 0 -51 -8.5t-25 -30.5l-116 -328h-2q-2 -23 -6.5 -39t11 -28.5t26 -19.5t35 -11t40 -6t41.5 -4q8 -8 8 -37t-8 -37q-156 4 -272 4q-31 0 -191 -4q-8 8 -8 36.5zM440 1743q66 68 162 104l258 -192 q33 -23 33 -47q0 -14 -9.5 -24.5t-23.5 -10.5q-27 0 -90 29zM506 668q-8 -18 4 -23.5t49 -5.5h371l-207 602h-4z" />
<glyph unicode="&#xc1;" horiz-adv-x="1480" d="M4 32.5q0 28.5 8 37.5q82 6 128 34.5t85 124.5l473 1176q18 45 34 62.5t40 17.5q20 0 31.5 -15.5t25.5 -52.5l437 -1222q12 -33 29.5 -56.5t29.5 -35t44 -18.5t40 -8t51 -5q10 -10 10 -37t-10 -37q-160 4 -243 4q-123 0 -279 -4q-8 10 -8 36.5t8 37.5q12 2 32.5 3t33 1 t28 2t24.5 4t20 6t15.5 11t8.5 15.5t2 20.5t-6 27l-131 383h-443q-37 0 -51 -8.5t-25 -30.5l-116 -328h-2q-2 -23 -6.5 -39t11 -28.5t26 -19.5t35 -11t40 -6t41.5 -4q8 -8 8 -37t-8 -37q-156 4 -272 4q-31 0 -191 -4q-8 8 -8 36.5zM506 668q-8 -18 4 -23.5t49 -5.5h371 l-207 602h-4zM590 1610q0 25 33 47l264 194l-2 -2q92 -43 133 -114l-307 -131q-59 -27 -88 -27q-33 0 -33 33z" />
<glyph unicode="&#xc2;" horiz-adv-x="1480" d="M4 32.5q0 28.5 8 37.5q82 6 128 34.5t85 124.5l473 1176q18 45 34 62.5t40 17.5q20 0 31.5 -15.5t25.5 -52.5l437 -1222q12 -33 29.5 -56.5t29.5 -35t44 -18.5t40 -8t51 -5q10 -10 10 -37t-10 -37q-160 4 -243 4q-123 0 -279 -4q-8 10 -8 36.5t8 37.5q12 2 32.5 3t33 1 t28 2t24.5 4t20 6t15.5 11t8.5 15.5t2 20.5t-6 27l-131 383h-443q-37 0 -51 -8.5t-25 -30.5l-116 -328h-2q-2 -23 -6.5 -39t11 -28.5t26 -19.5t35 -11t40 -6t41.5 -4q8 -8 8 -37t-8 -37q-156 4 -272 4q-31 0 -191 -4q-8 8 -8 36.5zM504 1608q84 70 215 219q39 25 82 -2v2 q86 -111 219 -219q-12 -37 -33 -47q-135 66 -227 137q-92 -74 -228 -137q-22 14 -28 47zM506 668q-8 -18 4 -23.5t49 -5.5h371l-207 602h-4z" />
<glyph unicode="&#xc3;" horiz-adv-x="1480" d="M4 32.5q0 28.5 8 37.5q82 6 128 34.5t85 124.5l473 1176q18 45 34 62.5t40 17.5q20 0 31.5 -15.5t25.5 -52.5l437 -1222q12 -33 29.5 -56.5t29.5 -35t44 -18.5t40 -8t51 -5q10 -10 10 -37t-10 -37q-160 4 -243 4q-123 0 -279 -4q-8 10 -8 36.5t8 37.5q12 2 32.5 3t33 1 t28 2t24.5 4t20 6t15.5 11t8.5 15.5t2 20.5t-6 27l-131 383h-443q-37 0 -51 -8.5t-25 -30.5l-116 -328h-2q-2 -23 -6.5 -39t11 -28.5t26 -19.5t35 -11t40 -6t41.5 -4q8 -8 8 -37t-8 -37q-156 4 -272 4q-31 0 -191 -4q-8 8 -8 36.5zM463 1585q47 221 170 221q18 0 35.5 -4 t35 -14t27.5 -18l30 -21q19 -14 25 -18q55 -43 111 -43q37 0 57.5 23.5t42.5 92.5q37 4 58 -14q-18 -104 -66.5 -163.5t-120.5 -59.5q-16 0 -35.5 8t-30.5 15t-36 25.5t-33 22.5q-63 43 -115 43q-41 0 -61 -24.5t-37 -83.5q-41 -6 -57 12zM506 668q-8 -18 4 -23.5t49 -5.5 h371l-207 602h-4z" />
<glyph unicode="&#xc4;" horiz-adv-x="1480" d="M4 32.5q0 28.5 8 37.5q82 6 128 34.5t85 124.5l473 1176q18 45 34 62.5t40 17.5q20 0 31.5 -15.5t25.5 -52.5l437 -1222q12 -33 29.5 -56.5t29.5 -35t44 -18.5t40 -8t51 -5q10 -10 10 -37t-10 -37q-160 4 -243 4q-123 0 -279 -4q-8 10 -8 36.5t8 37.5q12 2 32.5 3t33 1 t28 2t24.5 4t20 6t15.5 11t8.5 15.5t2 20.5t-6 27l-131 383h-443q-37 0 -51 -8.5t-25 -30.5l-116 -328h-2q-2 -23 -6.5 -39t11 -28.5t26 -19.5t35 -11t40 -6t41.5 -4q8 -8 8 -37t-8 -37q-156 4 -272 4q-31 0 -191 -4q-8 8 -8 36.5zM410 1593q0 45 30.5 77t71.5 32t71.5 -32 t30.5 -77q0 -43 -30.5 -75.5t-71.5 -32.5t-71.5 32.5t-30.5 75.5zM506 668q-8 -18 4 -23.5t49 -5.5h371l-207 602h-4zM913 1593q0 45 31 77t72 32t71.5 -32t30.5 -77q0 -43 -30.5 -75.5t-71.5 -32.5t-72 32.5t-31 75.5z" />
<glyph unicode="&#xc5;" horiz-adv-x="1480" d="M0 30.5q0 26.5 10 37.5q82 6 128 34.5t85 124.5l473 1176l13 24q-57 18 -95.5 69.5t-38.5 115.5q0 78 56.5 135t130.5 57t131 -56t57 -136q0 -61 -34.5 -110.5t-90.5 -69.5l4 -15l437 -1222q12 -33 29.5 -56.5t29.5 -35t44 -18.5t40 -8t51 -5q10 -10 10 -37t-10 -37 q-160 4 -243 4q-123 0 -279 -4q-8 10 -8 36.5t8 37.5q12 2 32.5 3t33 1t28 2t24.5 4t20 6t15.5 11t8.5 15.5t2 20.5t-6 27l-131 383h-443q-37 0 -51 -8.5t-25 -30.5l-116 -328l-4 -2q-2 -23 -6.5 -39t11 -28.5t26 -19.5t35 -11t39.5 -6t42 -4q10 -10 10 -37t-10 -37 q-160 4 -272 4q-31 0 -191 -4q-10 10 -10 36.5zM504 666q-8 -18 4 -23.5t49 -5.5h371l-207 602h-4zM664 1612q0 -51 26.5 -85t75.5 -34q47 0 73.5 34t26.5 85q0 53 -26.5 87t-73.5 34q-49 0 -75.5 -34t-26.5 -87z" />
<glyph unicode="&#xc6;" horiz-adv-x="1843" d="M2 -2v43q0 16 21 20l49 5q61 6 85.5 27.5t61.5 99.5l551 1110q18 37 -4.5 61.5t-56.5 26.5l-66 4q-16 2 -16 16v45l4 2l375 -2h163h473q10 -117 46 -348l-62 -10q-23 74 -37 110.5t-41.5 79.5t-67.5 60.5t-100 17.5h-213q-37 0 -56 -28.5t-19 -69.5v-449h217 q51 0 74.5 24.5t33.5 76.5l13 67q4 18 16 19h47q6 0 6 -11q-16 -147 -16 -214.5t16 -215.5l-4 -8h-49q-14 0 -19 16l-10 70q-16 100 -108 100h-217v-575q0 -80 75 -80h279q113 0 173 79t97 222l64 -12q-45 -213 -56 -377h-720l-3 -4l-274 -4l-4 4v41q0 16 16 20l56 4 q66 4 91 29t25 72v434h-379l-219 -446q-23 -45 -23.5 -59.5t9.5 -18.5t55 -9l62 -4q12 -2 12 -14v-47l-2 -4q-145 4 -227 4l-193 -4zM575 684h336v610q0 45 -10 52z" />
<glyph unicode="&#xc7;" horiz-adv-x="1376" d="M78 709q0 174 60.5 326.5t166.5 256.5q197 190 457 191q115 0 206 -22.5t156.5 -48.5t104.5 -30q35 -215 47 -350q-37 -23 -70 -12q-109 381 -467 381q-188 0 -340 -203q-127 -164 -127 -446q0 -172 50.5 -324t164 -256t271.5 -104q150 0 266.5 57t228.5 188q29 0 50 -32 q-199 -272 -478 -301l-47 -132q25 6 56 7q66 0 108.5 -38t42.5 -102q0 -72 -65.5 -120t-163.5 -48q-74 0 -158 39q0 37 23 60q84 -33 122 -33q49 0 79 24.5t30 67.5q0 78 -70 78l-2 -4q-55 0 -96 -15l-12 15l76 194q-215 2 -371 113t-227.5 274t-71.5 349z" />
<glyph unicode="&#xc8;" horiz-adv-x="1169" d="M12 32.5q0 28.5 8 37.5q119 4 153 37.5t34 168.5v906q0 133 -34 166.5t-153 37.5q-8 10 -8 37t8 37l277 -4h543q57 0 104 10q8 0 8 -8q23 -100 47 -328q-33 -16 -69 -10q-41 135 -86 190.5t-156 55.5h-223q-37 0 -57.5 -27.5t-20.5 -70.5v-453h195q129 0 159.5 27.5 t34.5 126.5q10 10 35 10t35 -10q-4 -135 -4 -195q0 -39 4 -199q-10 -10 -35 -10t-35 10q-4 61 -13 88t-52 46.5t-129 19.5h-195v-545q0 -45 21.5 -70.5t56.5 -25.5h289q203 0 280 295q41 12 74 -10q-23 -162 -78 -377q-172 4 -274 4h-457q-174 -2 -279 -4q-8 8 -8 36.5z M360 1741q66 68 162 104l258 -192q31 -25 31 -47q0 -14 -9 -24.5t-22 -10.5q-29 0 -92 28z" />
<glyph unicode="&#xc9;" horiz-adv-x="1169" d="M12 32.5q0 28.5 8 37.5q119 4 153 37.5t34 168.5v906q0 133 -34 166.5t-153 37.5q-8 10 -8 37t8 37l277 -4h543q57 0 104 10q8 0 8 -8q23 -100 47 -328q-33 -16 -69 -10q-41 135 -86 190.5t-156 55.5h-223q-37 0 -57.5 -27.5t-20.5 -70.5v-453h195q129 0 159.5 27.5 t34.5 126.5q10 10 35 10t35 -10q-4 -135 -4 -195q0 -39 4 -199q-10 -10 -35 -10t-35 10q-4 61 -13 88t-52 46.5t-129 19.5h-195v-545q0 -45 21.5 -70.5t56.5 -25.5h289q203 0 280 295q41 12 74 -10q-23 -162 -78 -377q-172 4 -274 4h-457q-174 -2 -279 -4q-8 8 -8 36.5z M451 1610q0 23 30 47l264 194l-2 -2q92 -43 136 -114l-308 -131q-59 -27 -89.5 -27t-30.5 33z" />
<glyph unicode="&#xca;" horiz-adv-x="1169" d="M12 32.5q0 28.5 8 37.5q119 4 153 37.5t34 168.5v906q0 133 -34 166.5t-153 37.5q-8 10 -8 37t8 37l277 -4h543q57 0 104 10q8 0 8 -8q23 -100 47 -328q-33 -16 -69 -10q-41 135 -86 190.5t-156 55.5h-223q-37 0 -57.5 -27.5t-20.5 -70.5v-453h195q129 0 159.5 27.5 t34.5 126.5q10 10 35 10t35 -10q-4 -135 -4 -195q0 -39 4 -199q-10 -10 -35 -10t-35 10q-4 61 -13 88t-52 46.5t-129 19.5h-195v-545q0 -45 21.5 -70.5t56.5 -25.5h289q203 0 280 295q41 12 74 -10q-23 -162 -78 -377q-172 4 -274 4h-457q-174 -2 -279 -4q-8 8 -8 36.5z M373 1608q92 74 215 219q39 23 84 -2v2q92 -119 219 -219q-12 -37 -35 -47q-141 72 -225 137q-94 -72 -228 -137q-24 14 -30 47z" />
<glyph unicode="&#xcb;" horiz-adv-x="1169" d="M12 32.5q0 28.5 8 37.5q119 4 153 37.5t34 168.5v906q0 133 -34 166.5t-153 37.5q-8 10 -8 37t8 37l277 -4h543q57 0 104 10q8 0 8 -8q23 -100 47 -328q-33 -16 -69 -10q-41 135 -86 190.5t-156 55.5h-223q-37 0 -57.5 -27.5t-20.5 -70.5v-453h195q129 0 159.5 27.5 t34.5 126.5q10 10 35 10t35 -10q-4 -135 -4 -195q0 -39 4 -199q-10 -10 -35 -10t-35 10q-4 61 -13 88t-52 46.5t-129 19.5h-195v-545q0 -45 21.5 -70.5t56.5 -25.5h289q203 0 280 295q41 12 74 -10q-23 -162 -78 -377q-172 4 -274 4h-457q-174 -2 -279 -4q-8 8 -8 36.5z M287 1696q0 45 30.5 76.5t71.5 31.5t72 -31.5t31 -76.5t-31 -77t-72 -32t-71.5 32t-30.5 77zM690 1696q0 45 31 76.5t72 31.5t71.5 -31.5t30.5 -76.5t-30.5 -77t-71.5 -32t-72 32t-31 77z" />
<glyph unicode="&#xcc;" horiz-adv-x="632" d="M33 32.5q0 28.5 8 37.5q119 4 151.5 37.5t32.5 168.5v906q0 135 -32.5 167.5t-151.5 36.5q-8 10 -8 37t8 37q213 -4 274 -4q68 0 277 4q10 -10 10 -36.5t-10 -37.5q-119 -4 -151.5 -36.5t-32.5 -167.5v-906q0 -135 32.5 -168.5t151.5 -37.5q10 -8 10 -37t-10 -37 q-213 4 -275 4q-68 0 -276 -4q-8 8 -8 36.5zM49 1741q66 68 162 104l258 -192q31 -25 31 -47q0 -14 -9.5 -24.5t-21.5 -10.5q-29 0 -92 28z" />
<glyph unicode="&#xcd;" horiz-adv-x="632" d="M33 32.5q0 28.5 8 37.5q119 4 151.5 37.5t32.5 168.5v906q0 135 -32.5 167.5t-151.5 36.5q-8 10 -8 37t8 37q213 -4 274 -4q68 0 277 4q10 -10 10 -36.5t-10 -37.5q-119 -4 -151.5 -36.5t-32.5 -167.5v-906q0 -135 32.5 -168.5t151.5 -37.5q10 -8 10 -37t-10 -37 q-213 4 -275 4q-68 0 -276 -4q-8 8 -8 36.5zM152 1608q0 23 30 47l264 194l-2 -2q90 -41 136 -114l-308 -131q-63 -29 -90 -29q-30 0 -30 35z" />
<glyph unicode="&#xce;" horiz-adv-x="632" d="M33 32.5q0 28.5 8 37.5q119 4 151.5 37.5t32.5 168.5v906q0 135 -32.5 167.5t-151.5 36.5q-8 10 -8 37t8 37q213 -4 274 -4q68 0 277 4q10 -10 10 -36.5t-10 -37.5q-119 -4 -151.5 -36.5t-32.5 -167.5v-906q0 -135 32.5 -168.5t151.5 -37.5q10 -8 10 -37t-10 -37 q-213 4 -275 4q-68 0 -276 -4q-8 8 -8 36.5zM53 1608q92 74 215 219q39 23 84 -2v2q92 -119 219 -219q-12 -37 -34 -47q-141 72 -226 137q-94 -72 -227 -137q-25 14 -31 47z" />
<glyph unicode="&#xcf;" horiz-adv-x="632" d="M12 1720q0 45 31 77t72 32t71.5 -32t30.5 -77t-30.5 -76.5t-71.5 -31.5t-72 31.5t-31 76.5zM33 32.5q0 28.5 8 37.5q119 4 151.5 37.5t32.5 168.5v906q0 135 -32.5 167.5t-151.5 36.5q-8 10 -8 37t8 37q213 -4 274 -4q68 0 277 4q10 -10 10 -36.5t-10 -37.5 q-119 -4 -151.5 -36.5t-32.5 -167.5v-906q0 -135 32.5 -168.5t151.5 -37.5q10 -8 10 -37t-10 -37q-213 4 -275 4q-68 0 -276 -4q-8 8 -8 36.5zM416 1720q0 45 30.5 77t71.5 32t72 -32t31 -77t-31 -76.5t-72 -31.5t-71.5 31.5t-30.5 76.5z" />
<glyph unicode="&#xd0;" horiz-adv-x="1492" d="M16 680q0 16 13.5 35.5t27.5 19.5h168v447q0 135 -32.5 167.5t-151.5 36.5q-8 10 -8 37t8 37q213 -4 274 -4q35 0 156 2t197 2q305 0 520 -224t215 -540q0 -160 -44 -285.5t-113.5 -201.5t-165 -126t-186.5 -68.5t-189 -18.5q-127 0 -246 2t-142 2q-68 0 -276 -4 q-8 8 -8 36.5t8 37.5q119 4 151.5 37.5t32.5 168.5v371h-184q-25 0 -25 33zM408 188q0 -63 43 -89.5t188 -26.5q121 0 215 25.5t175 87t125 176t44 280.5q0 139 -31.5 264t-100.5 236.5t-191.5 177t-288.5 65.5q-178 0 -178 -110v-539h206q25 0 25 -28q0 -20 -13.5 -40 t-31.5 -20h-186v-459z" />
<glyph unicode="&#xd1;" horiz-adv-x="1488" d="M23 32.5q0 28.5 10 37.5q117 12 150.5 50t33.5 181v940q-10 51 -57 96t-111 49q-8 10 -8 37t8 37l287 -4l731 -997l24 -33l20 -29l16 -22q9 -12 15 -19l10 -12q5 -6 9 -8t8 -2q14 0 15 67v754q0 147 -33 183t-152 48q-8 10 -8 37t8 37q213 -4 236 -4q31 0 240 4 q8 -10 8 -36.5t-8 -37.5q-119 -12 -153 -49t-34 -182v-1108q0 -70 -47 -70q-45 0 -86 54l-743 997q-55 74 -74 74q-16 0 -16 -111v-690q0 -147 32.5 -183t153.5 -48q8 -8 8 -37t-8 -37q-213 4 -238 4q-29 0 -237 -4q-10 8 -10 36.5zM455 1581q47 221 170 221q18 0 34.5 -4 t35.5 -15l27 -16q7 -4 32 -22l24 -21q55 -43 111 -43q37 0 57.5 24t42.5 95q31 2 58 -14q-43 -223 -187 -223q-16 0 -35.5 8t-32 15t-35.5 25l-32 23q-63 43 -115 43q-41 0 -61.5 -24.5t-36.5 -83.5q-41 -6 -57 12z" />
<glyph unicode="&#xd2;" horiz-adv-x="1495" d="M78 700q0 334 185.5 559.5t469.5 225.5q287 0 486.5 -207t199.5 -535q0 -342 -185 -554t-489 -212q-283 0 -475 198.5t-192 524.5zM283 739q0 -311 151.5 -498.5t353.5 -187.5q186 0 306 175t120 472q0 340 -141 524.5t-368 184.5q-164 0 -293 -171t-129 -499zM487 1745 q66 70 160 104l260 -192q33 -23 33 -47q0 -33 -33 -33t-92 27z" />
<glyph unicode="&#xd3;" horiz-adv-x="1495" d="M78 700q0 334 185.5 559.5t469.5 225.5q287 0 486.5 -207t199.5 -535q0 -342 -185 -554t-489 -212q-283 0 -475 198.5t-192 524.5zM283 739q0 -311 151.5 -498.5t353.5 -187.5q186 0 306 175t120 472q0 340 -141 524.5t-368 184.5q-164 0 -293 -171t-129 -499zM528 1610 q0 25 33 47l264 194l-2 -2q92 -43 133 -114l-307 -131q-59 -27 -88 -27q-33 0 -33 33z" />
<glyph unicode="&#xd4;" horiz-adv-x="1495" d="M78 700q0 334 185.5 559.5t469.5 225.5q287 0 486.5 -207t199.5 -535q0 -342 -185 -554t-489 -212q-283 0 -475 198.5t-192 524.5zM283 739q0 -311 151.5 -498.5t353.5 -187.5q186 0 306 175t120 472q0 340 -141 524.5t-368 184.5q-164 0 -293 -171t-129 -499zM481 1608 q92 74 215 219q39 23 84 -2v2q92 -119 219 -219q-12 -37 -34 -47q-141 72 -226 137q-88 -70 -227 -137q-25 14 -31 47z" />
<glyph unicode="&#xd5;" horiz-adv-x="1495" d="M78 700q0 334 185.5 559.5t469.5 225.5q287 0 486.5 -207t199.5 -535q0 -342 -185 -554t-489 -212q-283 0 -475 198.5t-192 524.5zM283 739q0 -311 151.5 -498.5t353.5 -187.5q186 0 306 175t120 472q0 340 -141 524.5t-368 184.5q-164 0 -293 -171t-129 -499zM438 1581 q51 221 172 221q12 0 25.5 -2t26 -8l21.5 -10t23 -14l19 -13q6 -4 19.5 -16.5t17.5 -14.5q55 -43 112 -43q35 0 56.5 25t42.5 94q31 2 59 -14q-43 -223 -186 -223q-16 0 -35.5 7t-32.5 16l-36 26l-33 22q-59 43 -115 43q-39 0 -59.5 -24.5t-38.5 -83.5q-40 -6 -58 12z" />
<glyph unicode="&#xd6;" horiz-adv-x="1495" d="M78 700q0 334 185.5 559.5t469.5 225.5q287 0 486.5 -207t199.5 -535q0 -342 -185 -554t-489 -212q-283 0 -475 198.5t-192 524.5zM207 1593q0 45 30.5 77t71.5 32t72 -32t31 -77q0 -43 -31 -75.5t-72 -32.5t-71.5 32.5t-30.5 75.5zM283 739q0 -311 151.5 -498.5 t353.5 -187.5q186 0 306 175t120 472q0 340 -141 524.5t-368 184.5q-164 0 -293 -171t-129 -499zM1077 1593q0 45 31 77t72 32t71.5 -32t30.5 -77q0 -43 -30.5 -75.5t-71.5 -32.5t-72 32.5t-31 75.5z" />
<glyph unicode="&#xd7;" horiz-adv-x="1101" d="M221 231l258 265l-258 264l76 74l254 -265l256 265l72 -74l-256 -264l256 -265l-72 -73l-256 262l-254 -262z" />
<glyph unicode="&#xd8;" horiz-adv-x="1495" d="M76 698q0 334 185 559.5t470 225.5q236 0 418 -144l111 144q31 0 51 -20.5t24 -47.5l-110 -143q195 -211 194 -531q0 -342 -185 -554t-489 -212q-231 0 -407 136l-109 -142h-2q-29 0 -50 21.5t-25 50.5l108 141q-184 205 -184 516zM283 735q0 -231 92 -405l690 901 q-139 176 -360 176q-164 0 -293 -171t-129 -501zM434 238q147 -186 354 -187q186 0 306 175t120 472q0 266 -90 443z" />
<glyph unicode="&#xd9;" horiz-adv-x="1409" d="M12 1423.5q0 26.5 8 36.5q213 -4 254 -4q80 0 289 4q10 -10 10 -36.5t-10 -37.5q-129 -4 -162.5 -36.5t-33.5 -167.5v-574q0 -96 4 -156.5t29.5 -140.5t74.5 -129q109 -113 254 -112q104 0 179 34.5t115 86t62.5 131t28.5 146.5t6 157v557q0 133 -32.5 162.5t-161.5 41.5 q-10 10 -10.5 37t10.5 37q213 -4 245 -4q8 0 218 4q10 -10 10 -36.5t-10 -37.5q-59 -8 -81 -13t-46.5 -25.5t-30.5 -58.5t-6 -107v-516q0 -127 -14.5 -226.5t-51.5 -188.5t-96 -147.5t-155.5 -92.5t-223.5 -34q-82 0 -161 24t-158.5 80t-129 172t-49.5 279v650 q0 133 -31.5 166.5t-134.5 37.5q-8 11 -8 37.5zM426 1743q66 68 162 104l258 -192q33 -23 33 -47q0 -14 -10.5 -24.5t-22.5 -10.5q-29 0 -92 29z" />
<glyph unicode="&#xda;" horiz-adv-x="1409" d="M12 1423.5q0 26.5 8 36.5q213 -4 254 -4q80 0 289 4q10 -10 10 -36.5t-10 -37.5q-129 -4 -162.5 -36.5t-33.5 -167.5v-574q0 -96 4 -156.5t29.5 -140.5t74.5 -129q109 -113 254 -112q104 0 179 34.5t115 86t62.5 131t28.5 146.5t6 157v557q0 133 -32.5 162.5t-161.5 41.5 q-10 10 -10.5 37t10.5 37q213 -4 245 -4q8 0 218 4q10 -10 10 -36.5t-10 -37.5q-59 -8 -81 -13t-46.5 -25.5t-30.5 -58.5t-6 -107v-516q0 -127 -14.5 -226.5t-51.5 -188.5t-96 -147.5t-155.5 -92.5t-223.5 -34q-82 0 -161 24t-158.5 80t-129 172t-49.5 279v650 q0 133 -31.5 166.5t-134.5 37.5q-8 11 -8 37.5zM567 1608q0 23 31 47l264 194l-2 -2q92 -43 135 -114l-307 -131q-63 -29 -90 -29q-31 0 -31 35z" />
<glyph unicode="&#xdb;" horiz-adv-x="1409" d="M12 1423.5q0 26.5 8 36.5q213 -4 254 -4q80 0 289 4q10 -10 10 -36.5t-10 -37.5q-129 -4 -162.5 -36.5t-33.5 -167.5v-574q0 -96 4 -156.5t29.5 -140.5t74.5 -129q109 -113 254 -112q104 0 179 34.5t115 86t62.5 131t28.5 146.5t6 157v557q0 133 -32.5 162.5t-161.5 41.5 q-10 10 -10.5 37t10.5 37q213 -4 245 -4q8 0 218 4q10 -10 10 -36.5t-10 -37.5q-59 -8 -81 -13t-46.5 -25.5t-30.5 -58.5t-6 -107v-516q0 -127 -14.5 -226.5t-51.5 -188.5t-96 -147.5t-155.5 -92.5t-223.5 -34q-82 0 -161 24t-158.5 80t-129 172t-49.5 279v650 q0 133 -31.5 166.5t-134.5 37.5q-8 11 -8 37.5zM485 1608q92 74 215 219q39 23 84 -2v2q86 -111 220 -219q-12 -37 -35 -47q-141 72 -226 137q-88 -70 -227 -137q-25 14 -31 47z" />
<glyph unicode="&#xdc;" horiz-adv-x="1421" d="M16 1423.5q0 26.5 9 36.5q160 -4 256 -4q49 0 104 2t78 2q20 2 21 -33.5t-13 -40.5q-100 -18 -100 -204v-574q0 -102 3 -154.5t28.5 -134t78.5 -137.5q106 -113 254 -112q102 0 177 34.5t116 86t63.5 131t28.5 146.5t6 157v557q0 109 -22.5 150.5t-79.5 53.5 q-14 12 -18.5 30t5 31t29.5 13q29 0 73 -2t69 -2q80 0 207 4q10 -10 10 -36.5t-10 -37.5q-102 -4 -130 -36.5t-28 -167.5v-516q0 -127 -14.5 -226.5t-51.5 -188.5t-97 -147.5t-155.5 -92.5t-224.5 -34h-2q-82 0 -159.5 24t-158.5 80t-130.5 172t-49.5 279v650 q0 133 -30.5 166.5t-132.5 37.5q-9 11 -9 37.5zM494 1595q0 45 29.5 76t70.5 31t70.5 -31t29.5 -76q0 -43 -29.5 -73.5t-70.5 -30.5t-70.5 30.5t-29.5 73.5zM801 1595q0 45 29.5 76t70.5 31t70.5 -31t29.5 -76q0 -43 -29.5 -73.5t-70.5 -30.5t-70.5 30.5t-29.5 73.5z" />
<glyph unicode="&#xdd;" horiz-adv-x="1224" d="M2 1423.5q0 26.5 8 36.5q127 -4 217 -4q72 0 244 4q8 -10 8 -36.5t-8 -37.5q-16 0 -39.5 -1t-33 -2t-24 -2t-17.5 -4t-7 -8t-1 -15.5t8 -22.5t16 -31l268 -501q12 -18 18.5 -25.5t13.5 -2.5t15 24l254 505q10 20 15.5 34t2 23t-6.5 14t-17 8t-23.5 4t-33 2t-37.5 1 q-10 10 -10.5 37t10.5 35q86 -2 194 -2q113 0 176 2q8 -8 8.5 -34.5t-8.5 -37.5q-10 0 -28.5 -2t-26.5 -2t-21.5 -2t-20.5 -5t-17.5 -8t-17.5 -13l-16 -19q-9 -10 -18 -25l-20 -34l-272 -522q-31 -59 -33 -69.5t-2 -80.5v-328l-2 -4q0 -135 35.5 -167.5t169.5 -36.5 q10 -10 10 -37t-10 -37q-213 4 -295 4q-90 0 -299 -4q-8 10 -8.5 36.5t8.5 37.5q133 4 170 36.5t37 167.5v310q0 61 -6.5 81.5t-36.5 71.5l-279 500q-33 57 -53.5 87t-48 44t-39 15t-60.5 5q-10 11 -10 37.5zM469 1608q0 23 31 47l266 194l-4 -2q90 -41 135 -114l-307 -131 q-63 -29 -90 -29q-31 0 -31 35z" />
<glyph unicode="&#xde;" horiz-adv-x="1122" d="M12 32.5q0 28.5 11 37.5q119 4 152.5 37.5t33.5 168.5v906q0 133 -34 166.5t-152 37.5q-10 10 -10.5 37t10.5 37q213 -4 276 -4q68 0 276 4q10 -10 10.5 -36.5t-10.5 -37.5q-119 -4 -152.5 -37.5t-33.5 -166.5v-11q29 2 73 4.5t72.5 4.5t47.5 2q139 0 238.5 -40 t145.5 -105.5t65.5 -129t19.5 -133t-26 -141.5t-80 -140.5t-156.5 -111.5t-237.5 -43q-96 0 -162 20v-82q0 -135 34 -168.5t152 -37.5q10 -8 10.5 -37t-10.5 -37q-213 4 -274 4q-70 0 -278 -4q-11 8 -11 36.5zM389 424q35 -10 152 -10q311 0 311 360q0 184 -79 258t-193 74 q-113 0 -191 -25v-657z" />
<glyph unicode="&#xdf;" horiz-adv-x="1153" d="M41 32.5q0 28.5 8 37.5q94 4 121 37.5t27 168.5v596q0 27 -27 27h-109q-10 10 1.5 42t31.5 32q59 0 81 19.5t22 84.5q0 133 43 234.5t111.5 157t140 82t139.5 26.5q154 0 238.5 -79t84.5 -173q0 -63 -19.5 -116.5t-63.5 -104.5t-80.5 -85t-108.5 -91v-4q84 -59 134 -99.5 t116.5 -109t99.5 -150.5t33 -174q0 -180 -93 -297t-239 -117q-121 0 -171 63.5t-50 154.5q0 27 20.5 52t45.5 25q59 0 59 -67q0 -20 -8 -47t-8 -39q0 -31 20.5 -47.5t38.5 -18.5t53 -2q55 0 103.5 80t48.5 221q0 274 -330 543v29q119 98 171 177t52 195q0 94 -42 149.5 t-124 55.5q-80 0 -132 -42t-75.5 -122t-31.5 -156.5t-8 -183.5v-721q0 -92 11 -135t28.5 -53t62.5 -18q8 -8 8 -37t-8 -37q-184 4 -186 4q-51 0 -232 -4q-8 8 -8 36.5z" />
<glyph unicode="&#xe0;" horiz-adv-x="935" d="M74 201q0 102 93 181t245 116l176 43q12 4 12 24q0 266 -166 266q-68 0 -119 -21.5t-51 -64.5q0 -29 4 -40q6 -12 6 -37q0 -23 -24.5 -45.5t-65.5 -22.5q-72 0 -71 72q0 84 106.5 155.5t231.5 71.5q309 0 309 -346v-305q0 -59 3 -90t22.5 -57.5t56.5 -26.5q25 0 43 16 t20 16q6 0 16.5 -12t10.5 -22q0 -6 -21.5 -27.5t-64.5 -43t-88 -21.5q-123 0 -158 118h-4l-41 -32q-66 -53 -109 -69.5t-114 -16.5q-117 0 -187.5 53t-70.5 168zM233 1309l5 22q63 47 133 47q14 0 30 -4l144 -258q12 -25 12 -49q0 -8 -9 -15.5t-22 -7.5q-16 0 -59 41z M244 209q0 -55 37.5 -100.5t109.5 -45.5t180 89q29 20 29 53v272l-162 -43q-194 -53 -194 -225z" />
<glyph unicode="&#xe1;" horiz-adv-x="935" d="M74 201q0 102 93 181t245 116l176 43q12 4 12 24q0 266 -166 266q-68 0 -119 -21.5t-51 -64.5q0 -29 4 -40q6 -12 6 -37q0 -23 -24.5 -45.5t-65.5 -22.5q-72 0 -71 72q0 84 106.5 155.5t231.5 71.5q309 0 309 -346v-305q0 -59 3 -90t22.5 -57.5t56.5 -26.5q25 0 43 16 t20 16q6 0 16.5 -12t10.5 -22q0 -6 -21.5 -27.5t-64.5 -43t-88 -21.5q-123 0 -158 118h-4l-41 -32q-66 -53 -109 -69.5t-114 -16.5q-117 0 -187.5 53t-70.5 168zM244 209q0 -55 37.5 -100.5t109.5 -45.5t180 89q29 20 29 53v272l-162 -43q-194 -53 -194 -225zM322 1073 q0 20 22 57l156 244q12 4 28 4q63 0 113 -47l6 -22l-235 -224q-39 -39 -62 -38q-10 0 -19 8t-9 18z" />
<glyph unicode="&#xe2;" horiz-adv-x="935" d="M74 201q0 102 93 181t245 116l176 43q12 4 12 24q0 266 -166 266q-68 0 -119 -21.5t-51 -64.5q0 -29 4 -40q6 -12 6 -37q0 -23 -24.5 -45.5t-65.5 -22.5q-72 0 -71 72q0 84 106.5 155.5t231.5 71.5q309 0 309 -346v-305q0 -59 3 -90t22.5 -57.5t56.5 -26.5q25 0 43 16 t20 16q6 0 16.5 -12t10.5 -22q0 -6 -21.5 -27.5t-64.5 -43t-88 -21.5q-123 0 -158 118h-4l-41 -32q-66 -53 -109 -69.5t-114 -16.5q-117 0 -187.5 53t-70.5 168zM178 1065q156 172 228 287q41 8 67 0h-2q76 -123 223 -287q-20 -29 -47 -35q-119 76 -211 170 q-115 -115 -213 -170q-27 6 -45 35zM244 209q0 -55 37.5 -100.5t109.5 -45.5t180 89q29 20 29 53v272l-162 -43q-194 -53 -194 -225z" />
<glyph unicode="&#xe3;" horiz-adv-x="935" d="M74 201q0 102 93 181t245 116l176 43q12 4 12 24q0 266 -166 266q-68 0 -119 -21.5t-51 -64.5q0 -29 4 -40q6 -12 6 -37q0 -23 -24.5 -45.5t-65.5 -22.5q-72 0 -71 72q0 84 106.5 155.5t231.5 71.5q309 0 309 -346v-305q0 -59 3 -90t22.5 -57.5t56.5 -26.5q25 0 43 16 t20 16q6 0 16.5 -12t10.5 -22q0 -6 -21.5 -27.5t-64.5 -43t-88 -21.5q-123 0 -158 118h-4l-41 -32q-66 -53 -109 -69.5t-114 -16.5q-117 0 -187.5 53t-70.5 168zM162 1081q47 201 164 201q18 0 33.5 -4t34 -13.5t26.5 -14.5t28.5 -20.5t24.5 -17.5q51 -39 107 -38 q35 0 55 21.5t41 84.5q33 2 55 -12q-41 -203 -178 -203q-12 0 -25.5 3t-29 11t-24.5 14.5l-26.5 19.5t-25.5 17q-63 39 -111 39q-39 0 -58.5 -22.5t-35.5 -75.5q-39 -6 -55 10zM244 209q0 -55 37.5 -100.5t109.5 -45.5t180 89q29 20 29 53v272l-162 -43q-194 -53 -194 -225z " />
<glyph unicode="&#xe4;" horiz-adv-x="935" d="M74 201q0 102 93 181t245 116l176 43q12 4 12 24q0 266 -166 266q-68 0 -119 -21.5t-51 -64.5q0 -29 4 -40q6 -12 6 -37q0 -23 -24.5 -45.5t-65.5 -22.5q-72 0 -71 72q0 84 106.5 155.5t231.5 71.5q309 0 309 -346v-305q0 -59 3 -90t22.5 -57.5t56.5 -26.5q25 0 43 16 t20 16q6 0 16.5 -12t10.5 -22q0 -6 -21.5 -27.5t-64.5 -43t-88 -21.5q-123 0 -158 118h-4l-41 -32q-66 -53 -109 -69.5t-114 -16.5q-117 0 -187.5 53t-70.5 168zM170 1178q0 41 28.5 69.5t67.5 28.5t67.5 -28.5t28.5 -69.5q0 -39 -27.5 -68t-68.5 -29t-68.5 29t-27.5 68z M244 209q0 -55 37.5 -100.5t109.5 -45.5t180 89q29 20 29 53v272l-162 -43q-194 -53 -194 -225zM516 1178q0 41 28.5 69.5t67.5 28.5t68 -28.5t29 -69.5q0 -39 -29 -68t-68 -29t-67.5 29t-28.5 68z" />
<glyph unicode="&#xe5;" horiz-adv-x="935" d="M74 201q0 102 93 181t245 116l176 43q12 4 12 24q0 266 -166 266q-68 0 -119 -21.5t-51 -64.5q0 -29 4 -40q6 -12 6 -37q0 -23 -24.5 -45.5t-65.5 -22.5q-72 0 -71 72q0 84 106.5 155.5t231.5 71.5q309 0 309 -346v-305q0 -59 3 -90t22.5 -57.5t56.5 -26.5q25 0 43 16 t20 16q6 0 16.5 -12t10.5 -22q0 -6 -21.5 -27.5t-64.5 -43t-88 -21.5q-123 0 -158 118h-4l-41 -32q-66 -53 -109 -69.5t-114 -16.5q-117 0 -187.5 53t-70.5 168zM244 209q0 -55 37.5 -100.5t109.5 -45.5t180 89q29 20 29 53v272l-162 -43q-194 -53 -194 -225zM250 1192 q0 70 54 122t126 52t126 -51t54 -123q0 -70 -53 -122t-127 -52q-72 0 -126 52t-54 122zM332 1192q0 -45 26.5 -77t71.5 -32t71.5 32t26.5 77q0 49 -26.5 78.5t-71.5 29.5q-47 0 -72.5 -30.5t-25.5 -77.5z" />
<glyph unicode="&#xe6;" horiz-adv-x="1406" d="M80 211q0 61 37 119.5t92 91.5q121 72 401 90q-2 207 -67 274l-2 -2q-45 45 -133 45q-66 0 -112 -22.5t-46 -65.5q0 -33 6 -41q6 -12 6 -36q0 -27 -21.5 -47.5t-58.5 -20.5q-82 0 -82 92q0 88 99.5 148.5t228.5 60.5q203 0 283 -143q104 143 290 143q156 0 240 -68.5 t84 -136.5q0 -88 -42 -138t-167 -79t-358 -31q0 -141 81 -253.5t193 -112.5q139 0 244 123q23 -2 41 -33q-45 -86 -130 -138.5t-183 -52.5q-86 0 -155 29t-95.5 52.5t-59.5 60.5q-14 12 -21 9t-28 -24q-125 -127 -274 -127q-127 0 -193 39q-98 58 -98 195zM227 219 q0 -70 43 -111.5t127 -41.5q49 0 115 52t88 113q10 49 10 209q-203 -14 -307 -92q-76 -55 -76 -129zM762 518q236 2 322.5 39t86.5 131q0 51 -50 97t-120 46q-100 0 -163.5 -88t-75.5 -225z" />
<glyph unicode="&#xe7;" horiz-adv-x="866" d="M74 426q0 207 129 340t291 133q145 0 229 -54t84 -140q0 -43 -32 -67t-68 -24q-70 0 -78 74q-4 45 -13.5 70.5t-42 49t-90.5 23.5q-102 0 -167.5 -97t-65.5 -263q0 -176 80 -283.5t194 -107.5q141 0 246 135q33 -4 43 -29q-119 -197 -307 -206l-43 -117q25 6 53 6 q63 0 104.5 -35t41.5 -92q0 -66 -62.5 -109t-157.5 -43q-72 0 -151 35q0 33 20 53q78 -29 119 -28q47 0 76 21.5t29 60.5q0 72 -68 71h-2q-53 0 -92 -12l-13 12l74 179q-170 14 -265 135t-95 309z" />
<glyph unicode="&#xe8;" horiz-adv-x="915" d="M76 414q0 217 130 349t279 132q346 0 346 -356q0 -35 -38 -35l-545 4q0 -172 65 -281q90 -147 224 -147q86 0 140 24.5t114 85.5q35 -2 43 -32q-137 -178 -349 -178q-203 0 -313 131q-96 110 -96 303zM254 578l371 6q31 0 30 28q0 117 -50 166t-120 49q-27 0 -53 -7 t-64 -29.5t-69 -77.5t-45 -135zM262 1309l4 22q63 47 133 47q14 0 31 -4l143 -258q12 -25 13 -49q0 -8 -9.5 -15.5t-21.5 -7.5q-16 0 -59 41z" />
<glyph unicode="&#xe9;" horiz-adv-x="915" d="M76 414q0 217 130 349t279 132q346 0 346 -356q0 -35 -38 -35l-545 4q0 -172 65 -281q90 -147 224 -147q86 0 140 24.5t114 85.5q35 -2 43 -32q-137 -178 -349 -178q-203 0 -313 131q-96 110 -96 303zM254 578l371 6q31 0 30 28q0 117 -50 166t-120 49q-27 0 -53 -7 t-64 -29.5t-69 -77.5t-45 -135zM375 1073q0 20 22 57l156 244q12 4 29 4q63 0 112 -47l6 -22l-235 -224q-39 -39 -62 -38q-10 0 -19 8t-9 18z" />
<glyph unicode="&#xea;" horiz-adv-x="915" d="M76 414q0 217 130 349t279 132q346 0 346 -356q0 -35 -38 -35l-545 4q0 -172 65 -281q90 -147 224 -147q86 0 140 24.5t114 85.5q35 -2 43 -32q-137 -178 -349 -178q-203 0 -313 131q-96 110 -96 303zM215 1065q156 172 227 287q41 8 68 0h-2q76 -123 223 -287 q-20 -29 -47 -35q-119 76 -211 170q-115 -115 -213 -170q-27 6 -45 35zM254 578l371 6q31 0 30 28q0 117 -50 166t-120 49q-27 0 -53 -7t-64 -29.5t-69 -77.5t-45 -135z" />
<glyph unicode="&#xeb;" horiz-adv-x="915" d="M76 414q0 217 130 349t279 132q346 0 346 -356q0 -35 -38 -35l-545 4q0 -172 65 -281q90 -147 224 -147q86 0 140 24.5t114 85.5q35 -2 43 -32q-137 -178 -349 -178q-203 0 -313 131q-96 110 -96 303zM203 1178q0 41 28.5 69.5t67.5 28.5t67.5 -28.5t28.5 -69.5 q0 -39 -27.5 -68t-68.5 -29t-68.5 29t-27.5 68zM254 578l371 6q31 0 30 28q0 117 -50 166t-120 49q-27 0 -53 -7t-64 -29.5t-69 -77.5t-45 -135zM549 1178q0 41 28.5 69.5t67.5 28.5t67.5 -28.5t28.5 -69.5q0 -39 -28.5 -68t-67.5 -29t-67.5 29t-28.5 68z" />
<glyph unicode="&#xec;" horiz-adv-x="555" d="M31 1309l4 22q63 47 133 47q14 0 31 -4l143 -258q12 -25 12 -49q0 -8 -9 -15.5t-21 -7.5q-16 0 -60 41zM49 28.5q0 24.5 8 34.5q98 8 123 36t25 151v399q0 86 -22.5 108.5t-108.5 30.5q-12 35 -4 58q193 25 282 59q27 0 27 -14q-8 -131 -8 -234v-407h-4 q0 -123 24.5 -151.5t122.5 -35.5q10 -10 10 -34.5t-10 -32.5q-176 4 -227 4q-57 0 -230 -4q-8 8 -8 32.5z" />
<glyph unicode="&#xed;" horiz-adv-x="555" d="M49 28.5q0 24.5 8 34.5q98 8 123 36t25 151v399q0 86 -22.5 108.5t-108.5 30.5q-12 35 -4 58q193 25 282 59q27 0 27 -14q-8 -131 -8 -234v-407h-4q0 -123 24.5 -151.5t122.5 -35.5q10 -10 10 -34.5t-10 -32.5q-176 4 -227 4q-57 0 -230 -4q-8 8 -8 32.5zM152 1073 q0 20 22 57l156 244q12 4 28 4q63 0 113 -47l6 -22l-235 -224q-39 -39 -62 -38q-10 0 -19 8t-9 18z" />
<glyph unicode="&#xee;" horiz-adv-x="555" d="M-10 1065q156 172 227 287q41 8 68 0h-2q76 -123 223 -287q-20 -29 -47 -35q-119 76 -211 170q-115 -115 -213 -170q-27 6 -45 35zM49 28.5q0 24.5 8 34.5q98 8 123 36t25 151v399q0 86 -22.5 108.5t-108.5 30.5q-12 35 -4 58q193 25 282 59q27 0 27 -14q-8 -131 -8 -234 v-407h-4q0 -123 24.5 -151.5t122.5 -35.5q10 -10 10 -34.5t-10 -32.5q-176 4 -227 4q-57 0 -230 -4q-8 8 -8 32.5z" />
<glyph unicode="&#xef;" horiz-adv-x="555" d="M-12 1178q0 41 28.5 69.5t67.5 28.5t67.5 -28.5t28.5 -69.5q0 -39 -28.5 -68t-67.5 -29t-67.5 29t-28.5 68zM49 28.5q0 24.5 8 34.5q98 8 123 36t25 151v399q0 86 -22.5 108.5t-108.5 30.5q-12 35 -4 58q193 25 282 59q27 0 27 -14q-8 -131 -8 -234v-407h-4 q0 -123 24.5 -151.5t122.5 -35.5q10 -10 10 -34.5t-10 -32.5q-176 4 -227 4q-57 0 -230 -4q-8 8 -8 32.5zM334 1178q0 41 28.5 69.5t67.5 28.5t67.5 -28.5t28.5 -69.5q0 -39 -27.5 -68t-68.5 -29t-68.5 29t-27.5 68z" />
<glyph unicode="&#xf0;" horiz-adv-x="995" d="M70 426q0 125 44 222t113.5 148.5t141 77t139.5 25.5q84 0 156 -29q-63 154 -183 301l-223 -149l-45 65l215 146l-33 33q-76 76 -139 120l33 44q111 -59 217 -146l217 146l45 -66l-199 -133l37 -37q309 -309 309 -709q0 -246 -128 -375.5t-314 -129.5q-180 0 -291.5 137 t-111.5 309zM246 461q0 -174 75.5 -291t186.5 -117q92 0 163.5 90t71.5 314q0 156 -32 272q-78 98 -207 98q-74 0 -127 -34.5t-80 -91t-39 -115.5t-12 -125z" />
<glyph unicode="&#xf1;" horiz-adv-x="1097" d="M45 28.5q0 24.5 8 34.5q96 8 120 36t24 151v399q0 86 -23.5 108.5t-110.5 30.5q-12 35 -4 58q197 27 283 59q25 0 25 -16q-10 -94 -11 -156q0 -27 21 0q86 96 161.5 131t161.5 35q117 0 170 -70q55 -74 56 -274v-305q0 -121 23.5 -149.5t113.5 -37.5q8 -10 8 -34.5 t-8 -32.5q-176 4 -217 4q-37 0 -209 -4q-8 8 -8 32.5t8 34.5q84 8 105.5 37t21.5 150v311q0 109 -25 158q-39 74 -108 74q-117 0 -238 -121q-35 -35 -35 -86v-336q0 -121 20.5 -149.5t102.5 -37.5q10 -10 10.5 -34.5t-10.5 -32.5q-172 4 -202 4q-57 0 -226 -4q-8 8 -8 32.5z M291 1081q47 201 164 201q18 0 33.5 -4t34 -13.5t26.5 -14.5t28.5 -20.5t24.5 -17.5q51 -39 107 -38q35 0 55 21.5t41 84.5q33 2 55 -12q-41 -203 -178 -203q-12 0 -25.5 3t-29 11t-24.5 14.5l-26.5 19.5t-25.5 17q-63 39 -111 39q-39 0 -58.5 -22.5t-35.5 -75.5 q-39 -6 -55 10z" />
<glyph unicode="&#xf2;" horiz-adv-x="1032" d="M84 420q0 203 116.5 341t317.5 138q115 0 201 -41t134 -109.5t71.5 -147.5t23.5 -163q0 -111 -43 -211t-145.5 -173.5t-245.5 -73.5q-203 0 -316.5 134t-113.5 306zM260 467q0 -63 16.5 -133t48 -135.5t91 -108.5t135.5 -43q90 0 155.5 71.5t65.5 254.5 q0 223 -71.5 340.5t-204.5 117.5q-119 0 -177.5 -106t-58.5 -258zM291 1309l4 22q63 47 133 47q14 0 31 -4l143 -258q12 -25 12 -49q0 -8 -9 -15.5t-21 -7.5q-16 0 -60 41z" />
<glyph unicode="&#xf3;" horiz-adv-x="1032" d="M84 420q0 203 116.5 341t317.5 138q115 0 201 -41t134 -109.5t71.5 -147.5t23.5 -163q0 -111 -43 -211t-145.5 -173.5t-245.5 -73.5q-203 0 -316.5 134t-113.5 306zM260 467q0 -63 16.5 -133t48 -135.5t91 -108.5t135.5 -43q90 0 155.5 71.5t65.5 254.5 q0 223 -71.5 340.5t-204.5 117.5q-119 0 -177.5 -106t-58.5 -258zM375 1073q0 20 22 57l156 244q12 4 29 4q63 0 112 -47l6 -22l-235 -224q-39 -39 -62 -38q-10 0 -19 8t-9 18z" />
<glyph unicode="&#xf4;" horiz-adv-x="1032" d="M84 420q0 203 116.5 341t317.5 138q115 0 201 -41t134 -109.5t71.5 -147.5t23.5 -163q0 -111 -43 -211t-145.5 -173.5t-245.5 -73.5q-203 0 -316.5 134t-113.5 306zM254 1065q156 172 227 287q41 8 68 0h-2q76 -123 223 -287q-20 -29 -47 -35q-119 76 -211 170 q-115 -115 -213 -170q-27 6 -45 35zM260 467q0 -63 16.5 -133t48 -135.5t91 -108.5t135.5 -43q90 0 155.5 71.5t65.5 254.5q0 223 -71.5 340.5t-204.5 117.5q-119 0 -177.5 -106t-58.5 -258z" />
<glyph unicode="&#xf5;" horiz-adv-x="1032" d="M84 420q0 203 116.5 341t317.5 138q115 0 201 -41t134 -109.5t71.5 -147.5t23.5 -163q0 -111 -43 -211t-145.5 -173.5t-245.5 -73.5q-203 0 -316.5 134t-113.5 306zM205 1081q47 201 164 201q18 0 33.5 -4t34 -13.5t26.5 -14.5t28.5 -20.5t24.5 -17.5q51 -39 107 -38 q35 0 55 21.5t41 84.5q33 2 55 -12q-41 -203 -178 -203q-12 0 -25.5 3t-29 11t-24.5 14.5l-26.5 19.5t-25.5 17q-63 39 -111 39q-39 0 -58.5 -22.5t-35.5 -75.5q-39 -6 -55 10zM260 467q0 -63 16.5 -133t48 -135.5t91 -108.5t135.5 -43q90 0 155.5 71.5t65.5 254.5 q0 223 -71.5 340.5t-204.5 117.5q-119 0 -177.5 -106t-58.5 -258z" />
<glyph unicode="&#xf6;" horiz-adv-x="1032" d="M84 420q0 203 116.5 341t317.5 138q115 0 201 -41t134 -109.5t71.5 -147.5t23.5 -163q0 -111 -43 -211t-145.5 -173.5t-245.5 -73.5q-203 0 -316.5 134t-113.5 306zM248 1178q0 41 28.5 69.5t67.5 28.5t67.5 -28.5t28.5 -69.5q0 -39 -27.5 -68t-68.5 -29t-68.5 29 t-27.5 68zM260 467q0 -63 16.5 -133t48 -135.5t91 -108.5t135.5 -43q90 0 155.5 71.5t65.5 254.5q0 223 -71.5 340.5t-204.5 117.5q-119 0 -177.5 -106t-58.5 -258zM594 1178q0 41 28.5 69.5t67.5 28.5t67.5 -28.5t28.5 -69.5q0 -39 -28.5 -68t-67.5 -29t-67.5 29t-28.5 68z " />
<glyph unicode="&#xf7;" horiz-adv-x="1079" d="M135 426v100h809v-100h-809zM453 201q0 37 26.5 63.5t63.5 26.5t63.5 -26.5t26.5 -63.5t-26.5 -63.5t-63.5 -26.5t-63.5 26.5t-26.5 63.5zM453 749.5q0 36.5 26.5 63.5t63.5 27t63.5 -27t26.5 -63.5t-26.5 -63.5t-63.5 -27t-63.5 27t-26.5 63.5z" />
<glyph unicode="&#xf8;" horiz-adv-x="1032" d="M70 -6l108 131q-100 125 -100 295q0 203 116.5 341t317.5 138q145 0 248 -70l82 101v-2q49 0 63 -47l-86 -105q121 -129 121 -340q0 -111 -43 -211t-145.5 -174t-245.5 -74q-160 0 -270 91l-105 -127q-25 0 -41 15t-20 38zM254 467q0 -102 39 -205l389 473 q-72 96 -190 96h-3q-119 0 -177 -106t-58 -258zM332 182q82 -135 217 -135q90 0 155.5 71.5t65.5 254.5q0 176 -43 286z" />
<glyph unicode="&#xf9;" horiz-adv-x="1075" d="M45 847.5q0 24.5 10 33.5q152 -4 209 -4q51 0 72 4q16 0 16 -13q-8 -150 -8 -211v-372q0 -121 50 -166t114 -45q78 0 192 98q33 29 33 80v395q0 98 -24.5 130t-102.5 36q-8 10 -8 34.5t8 33.5q152 -4 209 -4q51 0 72 4q16 0 16 -13q-8 -150 -8 -211v-393 q0 -80 27.5 -110.5t121.5 -38.5q8 -8 8.5 -26.5t-8.5 -29.5q-172 -20 -247 -82q-20 -6 -41 3q-23 74 -23 120q0 23 -24 2q-152 -123 -265 -122l2 -3q-141 0 -202.5 79t-61.5 200v393q0 96 -25.5 127t-101.5 37q-10 10 -10 34.5zM283 1307l4 22q63 47 133 47q14 0 31 -4 l143 -258q12 -25 12 -49q0 -8 -9 -15.5t-22 -7.5q-16 0 -59 41z" />
<glyph unicode="&#xfa;" horiz-adv-x="1075" d="M45 847.5q0 24.5 10 33.5q152 -4 209 -4q51 0 72 4q16 0 16 -13q-8 -150 -8 -211v-372q0 -121 50 -166t114 -45q78 0 192 98q33 29 33 80v395q0 98 -24.5 130t-102.5 36q-8 10 -8 34.5t8 33.5q152 -4 209 -4q51 0 72 4q16 0 16 -13q-8 -150 -8 -211v-393 q0 -80 27.5 -110.5t121.5 -38.5q8 -8 8.5 -26.5t-8.5 -29.5q-172 -20 -247 -82q-20 -6 -41 3q-23 74 -23 120q0 23 -24 2q-152 -123 -265 -122l2 -3q-141 0 -202.5 79t-61.5 200v393q0 96 -25.5 127t-101.5 37q-10 10 -10 34.5zM432 1071q0 20 23 57l155 244q12 4 29 4 q63 0 113 -47l6 -22l-236 -224q-39 -39 -61 -39q-10 0 -19.5 8.5t-9.5 18.5z" />
<glyph unicode="&#xfb;" horiz-adv-x="1075" d="M45 847.5q0 24.5 10 33.5q152 -4 209 -4q51 0 72 4q16 0 16 -13q-8 -150 -8 -211v-372q0 -121 50 -166t114 -45q78 0 192 98q33 29 33 80v395q0 98 -24.5 130t-102.5 36q-8 10 -8 34.5t8 33.5q152 -4 209 -4q51 0 72 4q16 0 16 -13q-8 -150 -8 -211v-393 q0 -80 27.5 -110.5t121.5 -38.5q8 -8 8.5 -26.5t-8.5 -29.5q-172 -20 -247 -82q-20 -6 -41 3q-23 74 -23 120q0 23 -24 2q-152 -123 -265 -122l2 -3q-141 0 -202.5 79t-61.5 200v393q0 96 -25.5 127t-101.5 37q-10 10 -10 34.5zM246 1063q156 172 227 287q41 8 68 0h-2 q76 -123 223 -287q-20 -29 -47 -35q-119 76 -211 170q-115 -115 -213 -170q-27 6 -45 35z" />
<glyph unicode="&#xfc;" horiz-adv-x="1075" d="M45 847.5q0 24.5 10 33.5q152 -4 209 -4q51 0 72 4q16 0 16 -13q-8 -150 -8 -211v-372q0 -121 50 -166t114 -45q78 0 192 98q33 29 33 80v395q0 98 -24.5 130t-102.5 36q-8 10 -8 34.5t8 33.5q152 -4 209 -4q51 0 72 4q16 0 16 -13q-8 -150 -8 -211v-393 q0 -80 27.5 -110.5t121.5 -38.5q8 -8 8.5 -26.5t-8.5 -29.5q-172 -20 -247 -82q-20 -6 -41 3q-23 74 -23 120q0 23 -24 2q-152 -123 -265 -122l2 -3q-141 0 -202.5 79t-61.5 200v393q0 96 -25.5 127t-101.5 37q-10 10 -10 34.5zM254 1176q0 41 28.5 69.5t67.5 28.5 t67.5 -28.5t28.5 -69.5t-28.5 -69t-67.5 -28t-67.5 28t-28.5 69zM600 1176q0 41 28.5 69.5t67.5 28.5t68 -28.5t29 -69.5t-28 -69t-69 -28t-68.5 28t-27.5 69z" />
<glyph unicode="&#xfd;" horiz-adv-x="1062" d="M29 852q0 25 10 33q82 -4 166 -4q80 0 231 4q10 -8 10 -33t-10 -35q-86 -6 -93 -37.5t28 -95.5l182 -426q25 -57 49 -2l203 469q23 49 -6 67.5t-92 24.5q-10 10 -10.5 35t10.5 33q152 -4 186 -4q43 0 145 4q10 -8 10.5 -33t-10.5 -35q-53 -4 -97 -43t-69 -88 q-131 -274 -362 -836q-41 -104 -84 -178l-2 2q-84 -147 -199 -147q-41 0 -68.5 21.5t-27.5 54.5q0 27 25.5 57.5t64.5 30.5q10 0 27.5 -3t32.5 -3q74 0 102 59q39 74 80 188q27 72 -29 193l-231 539q-41 98 -68 122.5t-94 30.5q-10 10 -10 35zM465 1075q0 20 22 58l156 243 q12 4 29 4q63 0 112 -47l7 -22l-236 -224q-39 -39 -61 -38q-10 0 -19.5 8t-9.5 18z" />
<glyph unicode="&#xfe;" horiz-adv-x="1028" d="M16 -446.5q0 24.5 9 34.5q96 4 121.5 34t25.5 153v1370q0 66 -3 98.5t-25.5 48t-35 16.5t-67.5 5q-23 23 -12 61q182 14 286 56q27 0 27 -21q-8 -82 -8 -215v-391q0 -18 1 -26.5t5 -9.5t10 4t19 17q106 111 235 111q145 0 246.5 -126t101.5 -292q0 -236 -147 -383 q-119 -119 -287 -118q-76 0 -145 26q-4 2 -15.5 7t-13.5 4t-6 -9t-4 -28v-205q0 -123 27.5 -152t140.5 -35q10 -10 10 -34.5t-10 -32.5q-176 4 -248 4q-57 0 -229 -4q-9 8 -9 32.5zM328 199q0 -45 7 -63.5t27 -35.5q59 -51 144 -51q147 0 207.5 108.5t60.5 268.5 q0 223 -106 330q-49 49 -119 49q-66 0 -142.5 -59.5t-76.5 -155.5z" />
<glyph unicode="&#xff;" horiz-adv-x="1062" d="M29 852q0 25 10 33q82 -4 166 -4q80 0 231 4q10 -8 10 -33t-10 -35q-86 -6 -93 -37.5t28 -95.5l182 -426q25 -57 49 -2l203 469q23 49 -6 67.5t-92 24.5q-10 10 -10.5 35t10.5 33q152 -4 186 -4q43 0 145 4q10 -8 10.5 -33t-10.5 -35q-53 -4 -97 -43t-69 -88 q-131 -274 -362 -836q-41 -104 -84 -178l-2 2q-84 -147 -199 -147q-41 0 -68.5 21.5t-27.5 54.5q0 27 25.5 57.5t64.5 30.5q10 0 27.5 -3t32.5 -3q74 0 102 59q39 74 80 188q27 72 -29 193l-231 539q-41 98 -68 122.5t-94 30.5q-10 10 -10 35zM285 1180q0 41 28.5 69.5 t67.5 28.5t67.5 -28.5t28.5 -69.5t-27.5 -69t-68.5 -28t-68.5 28t-27.5 69zM631 1180q0 41 28.5 69.5t67.5 28.5t67.5 -28.5t28.5 -69.5t-28.5 -69t-67.5 -28t-67.5 28t-28.5 69z" />
<glyph unicode="&#x152;" horiz-adv-x="1814" d="M88 684q0 299 176 503t461 202q145 -2 238 -3h163h537l29 -299l-56 -6q-12 80 -65 149.5t-129 69.5h-316q-76 0 -75 -67v-447h215q53 0 73.5 22.5t32.5 74.5l14 63q0 16 15 17h47q6 0 6 -9l-9 -92q-7 -72 -7 -112q0 -25 16 -205l-4 -6h-49q-16 0 -17 14l-12 65 q-8 49 -31.5 73t-74.5 24h-215v-559q0 -41 18 -56.5t57 -15.5h324q174 0 227 270l58 -10l-56 -344h-718l-213 -4q-291 -6 -475.5 193.5t-184.5 494.5zM285 702q0 -309 138 -470.5t320 -161.5h27q61 0 81.5 19.5t20.5 66.5v1079q0 49 -20.5 64.5t-81.5 15.5h-72 q-174 0 -293.5 -147t-119.5 -466z" />
<glyph unicode="&#x153;" horiz-adv-x="1593" d="M70 422q0 229 122.5 353t305.5 124q141 0 213.5 -48t126.5 -136q55 82 142 133t187 51q176 0 263.5 -102.5t87.5 -288.5h-594q-2 -18 -2 -62q0 -96 30.5 -171.5t75.5 -116.5t88 -61.5t76 -20.5q66 0 143.5 27.5t122.5 74.5q27 -2 45 -31q-123 -168 -334 -167 q-236 0 -344 182q-121 -182 -336 -182q-186 0 -302.5 126t-116.5 316zM246 485q0 -184 68.5 -309t203.5 -125q92 0 163 82t71 277q0 211 -84 316t-172 105q-98 0 -157.5 -60t-76 -131t-16.5 -155zM930 588h411q-6 242 -178 241q-80 0 -137 -57t-74.5 -105t-21.5 -79z" />
<glyph unicode="&#x2c6;" horiz-adv-x="1404" d="M-4 379q4 209 4 268q0 68 -4 273q8 10 34.5 10t37.5 -10q4 -117 35.5 -150t158.5 -33h862q129 0 161 33t36 150q10 10 34.5 10t35.5 -10l-5 -271v-532q0 -51 9 -101q0 -6 -6 -6q-4 0 -64.5 -9l-134.5 -19.5t-113 -14.5l-10 64q129 41 181 85t52 152v219q0 74 -71 74h-453 v-194q0 -125 25.5 -155t120.5 -34q10 -10 10 -34.5t-10 -34.5q-127 4 -185 4q-37 0 -188 -4q-10 10 -10 34.5t10 34.5q45 2 65.5 7t42 22.5t29.5 55.5t8 104v192h-432q-127 0 -158.5 -32.5t-35.5 -147.5q-10 -10 -37 -10t-35 10z" />
<glyph unicode="&#x2dc;" horiz-adv-x="598" d="M10 1180q47 201 164 200q18 0 33.5 -4t34 -13t26.5 -14.5l28.5 -20.5t25.5 -17q51 -39 106 -39q35 0 55.5 21.5t40.5 84.5q33 2 56 -12q-41 -203 -179 -203q-12 0 -25.5 3t-28.5 11.5t-24.5 14.5t-26.5 19.5t-26 17.5q-63 39 -110 39q-39 0 -58.5 -22.5t-35.5 -76.5 q-40 -5 -56 11z" />
<glyph unicode="&#x2000;" horiz-adv-x="925" />
<glyph unicode="&#x2001;" horiz-adv-x="1851" />
<glyph unicode="&#x2002;" horiz-adv-x="925" />
<glyph unicode="&#x2003;" horiz-adv-x="1851" />
<glyph unicode="&#x2004;" horiz-adv-x="616" />
<glyph unicode="&#x2005;" horiz-adv-x="462" />
<glyph unicode="&#x2006;" horiz-adv-x="307" />
<glyph unicode="&#x2007;" horiz-adv-x="307" />
<glyph unicode="&#x2008;" horiz-adv-x="231" />
<glyph unicode="&#x2009;" horiz-adv-x="368" />
<glyph unicode="&#x200a;" horiz-adv-x="102" />
<glyph unicode="&#x2010;" horiz-adv-x="692" d="M82 496q0 29 16.5 56.5t34.5 27.5h449q29 0 28 -41q0 -20 -18.5 -51t-36.5 -31h-442q-31 0 -31 39z" />
<glyph unicode="&#x2011;" horiz-adv-x="692" d="M82 496q0 29 16.5 56.5t34.5 27.5h449q29 0 28 -41q0 -20 -18.5 -51t-36.5 -31h-442q-31 0 -31 39z" />
<glyph unicode="&#x2012;" horiz-adv-x="692" d="M82 496q0 29 16.5 56.5t34.5 27.5h449q29 0 28 -41q0 -20 -18.5 -51t-36.5 -31h-442q-31 0 -31 39z" />
<glyph unicode="&#x2013;" horiz-adv-x="1122" d="M106 522q0 18 17.5 42t36.5 24h827q29 0 29 -35q0 -20 -17.5 -43t-35.5 -23h-828q-29 0 -29 35z" />
<glyph unicode="&#x2014;" horiz-adv-x="2953" d="M72 522q0 18 17 42t36 24h2714q29 0 28 -35q0 -18 -16.5 -35.5t-36.5 -17.5h-2714q-28 -1 -28 22z" />
<glyph unicode="&#x2018;" horiz-adv-x="548" d="M150 1239q0 102 71.5 174t169.5 90q18 -18 19 -49q-74 -18 -127.5 -72.5t-53.5 -91.5q0 -51 74 -63q90 -10 90 -88q0 -43 -30.5 -72t-77.5 -29v-2q-61 0 -98 55.5t-37 147.5z" />
<glyph unicode="&#x2019;" horiz-adv-x="548" d="M139 1010q74 18 127 72.5t53 91.5q0 51 -73 63q-35 4 -62.5 25.5t-27.5 66.5q0 43 30.5 72t77.5 29v-3q61 0 98 -55t37 -147q0 -102 -71.5 -174t-169.5 -90q-19 18 -19 49z" />
<glyph unicode="&#x201a;" horiz-adv-x="548" d="M139 -225q74 18 127 72.5t53 91.5q0 51 -73 63q-35 4 -62.5 25.5t-27.5 66.5q0 43 30.5 72t77.5 29v-2q61 0 98 -55.5t37 -147.5q0 -102 -71.5 -174t-169.5 -90q-19 18 -19 49z" />
<glyph unicode="&#x201c;" horiz-adv-x="768" d="M98 1241q0 102 72 174t170 90q18 -18 18 -49q-74 -18 -127 -72.5t-53 -91.5q0 -51 74 -63q90 -10 90 -88q0 -43 -30.5 -72t-78.5 -29v-2q-61 0 -98 55.5t-37 147.5zM420 1239q0 102 71.5 174t170.5 90q18 -18 18 -49q-74 -18 -127 -72.5t-53 -91.5q0 -51 73 -63 q90 -10 91 -88q0 -43 -31 -72t-78 -29v-2q-61 0 -98 55.5t-37 147.5z" />
<glyph unicode="&#x201d;" horiz-adv-x="768" d="M90 1008q74 18 127 72.5t53 90.5q0 51 -73 64q-35 4 -63 25.5t-28 66.5q0 43 31 71.5t78 28.5v-2q61 0 98 -55t37 -147q0 -102 -71.5 -174t-169.5 -91q-19 19 -19 50zM412 1010q74 18 127 72.5t53 91.5q0 51 -74 63q-35 4 -62.5 25.5t-27.5 66.5q0 43 30.5 72t78.5 29v-3 q61 0 98 -55t37 -147q0 -102 -72 -174t-170 -90q-18 18 -18 49z" />
<glyph unicode="&#x201e;" horiz-adv-x="768" d="M90 -229q74 18 127 72.5t53 90.5q0 51 -73 64q-35 4 -63 25.5t-28 66.5q0 43 31 71.5t78 28.5v-2q61 0 98 -55t37 -147q0 -102 -71.5 -174t-169.5 -91q-19 19 -19 50zM412 -227q74 18 127 72.5t53 91.5q0 51 -74 63q-35 4 -62.5 25.5t-27.5 66.5q0 43 30.5 72t78.5 29v-3 q61 0 98 -55t37 -147q0 -102 -72 -174t-170 -90q-18 18 -18 49z" />
<glyph unicode="&#x2022;" horiz-adv-x="718" d="M127 471q0 96 68.5 165t165 69t165 -69t68.5 -165t-68.5 -164.5t-165 -68.5t-165 68.5t-68.5 164.5z" />
<glyph unicode="&#x2026;" horiz-adv-x="3377" d="M283 88q0 45 31.5 77t76.5 32t77 -32t32 -77t-32 -76.5t-77 -31.5t-76.5 31.5t-31.5 76.5zM1407 88q0 45 31.5 77t77 32t77 -32t31.5 -77t-31.5 -76.5t-77 -31.5t-77 31.5t-31.5 76.5zM2533 88q0 45 32 77t77 32t76.5 -32t31.5 -77t-31.5 -76.5t-76.5 -31.5t-77 31.5 t-32 76.5z" />
<glyph unicode="&#x202f;" horiz-adv-x="368" />
<glyph unicode="&#x2039;" horiz-adv-x="614" d="M94 424v33l41 32q145 117 334 345l51 -50q-152 -229 -268 -344q117 -115 268 -344l-51 -49q-188 227 -334 344q-27 23 -41 33z" />
<glyph unicode="&#x203a;" horiz-adv-x="614" d="M94 96q152 229 268 344q-117 115 -268 344l51 50q188 -227 334 -345q27 -23 41 -32v-33l-41 -33q-145 -117 -334 -344z" />
<glyph unicode="&#x205f;" horiz-adv-x="462" />
<glyph unicode="&#x2122;" horiz-adv-x="1628" d="M27 1190l39 184l49 -16q0 -2 -2 -8.5t-2 -10.5l-2 -4h477v4q-2 4 -4 10.5t-2 8.5l51 16l39 -186l-47 -10q-18 68 -33 86t-49 18h-88q-16 0 -22.5 -8t-6.5 -35v-541q0 -49 61 -49h29q10 0 10 -10v-27l-2 -2q-129 2 -170 2l-168 -2l-2 2v27q0 10 11 10h28q63 0 64 49v543 q0 41 -29 41h-104q-33 0 -48.5 -18.5t-31.5 -85.5zM684 612v17q0 14 37 14h29q18 0 22 62q4 49 16.5 167.5t18.5 207.5t6 169v6v5q0 35 -18 34h-33q-35 0 -35 13v16l10 12h183l229 -542l219 542h168l6 -12v-16q0 -12 -35 -13h-30q-18 0 -19 -32v-13l47 -544q4 -61 25 -62h29 q39 0 38 -14v-17l-12 -12q-90 4 -133 4l-135 -4l-12 12v17q0 14 34 14h29q12 0 12 47v15l-34 403l-203 -498q-6 -20 -33 -20q-23 0 -35 20l-205 488q-16 -260 -28 -396v-12q0 -47 14 -47h31q35 0 35 -14v-17l-7 -12q-80 4 -124 4l-97 -4z" />
<glyph unicode="&#xfb01;" horiz-adv-x="1146" d="M45 811v27q0 41 47 41h101v30q0 260 106 385q115 135 289 136q141 0 248 -66q115 -72 114 -160q0 -33 -26.5 -58.5t-59.5 -25.5q-106 0 -127 133q-8 53 -59 80t-115 27q-98 0 -164 -119q-45 -82 -45 -246v-116h404q127 0 192 26q20 0 21 -12q-8 -131 -8 -211v-432 q0 -123 24.5 -151.5t122.5 -35.5q8 -10 8 -34.5t-8 -32.5q-176 4 -227 4q-47 0 -219 -4q-8 8 -8.5 32.5t8.5 34.5q90 6 113.5 35t23.5 152v403q0 80 -16.5 113t-63.5 33h-367v-549q0 -123 24.5 -151.5t127.5 -35.5q10 -10 10 -34.5t-10 -32.5q-176 4 -232 4q-43 0 -215 -4 q-10 8 -10 32.5t10 34.5q88 6 111 35t23 152v549h-138q-10 0 -10 12z" />
<glyph unicode="&#xfb02;" horiz-adv-x="1105" d="M43 809v27q0 41 47 41h105v61q0 236 117.5 362.5t265.5 126.5q141 0 210 -47q23 4 44.5 14.5l40.5 20.5l28 15q27 0 27 -21q-2 -82 -2 -215v-944l-2 -2q0 -121 25.5 -150.5t117.5 -36.5q10 -8 10 -32.5t-10 -34.5q-176 4 -223 4q-31 0 -203 -4q-10 10 -10 34.5t10 32.5 q80 4 100.5 34t20.5 153v903l2 25q2 23 0 26q-41 14 -57 55q-20 47 -66.5 74t-95.5 27q-29 0 -59.5 -17.5t-63.5 -56.5t-53.5 -120t-20.5 -191v-96h225q16 0 17 -13v-41q0 -27 -47 -26h-191v-549q0 -121 24.5 -149.5t117.5 -37.5q10 -8 10 -32.5t-10 -34.5q-176 4 -222 4 q-43 0 -215 -4q-8 10 -8 34.5t8 32.5q88 6 110.5 35t22.5 152v549h-137q-10 0 -10 12z" />
<glyph unicode="&#xfb03;" horiz-adv-x="1697" d="M37 811v27q0 41 47 41h104q0 190 45.5 302.5t149.5 174.5q63 39 170 39q113 0 183.5 -36t94.5 -83q47 61 131.5 107.5t178.5 46.5q119 0 200 -56q147 -100 148 -207q0 -33 -26.5 -56.5t-59.5 -23.5q-94 0 -121 162q-18 113 -166 113q-31 0 -60.5 -14.5t-63.5 -50 t-54 -113.5t-20 -189v-116h397q127 0 194 26q8 0 9 -6q-4 -121 -5 -182v-467q0 -121 26 -150.5t118 -36.5q10 -10 10 -34.5t-10 -32.5q-176 4 -223 4q-31 0 -203 -4q-10 8 -10 32.5t10 34.5q80 4 100.5 34t20.5 153v444q0 49 -2 65.5t-12.5 28t-37.5 11.5h-382v-549 q0 -123 21.5 -151.5t109.5 -35.5q8 -10 8 -34.5t-8 -32.5q-176 4 -211 4q-23 0 -195 -4q-8 8 -8 32.5t8 34.5q72 6 92.5 36t20.5 151v549h-410v-549q0 -121 22.5 -150.5t98.5 -36.5q8 -10 8 -34.5t-8 -32.5q-176 4 -201 4q-43 0 -215 -4q-10 8 -10 32.5t10 34.5 q88 6 110.5 35t22.5 152v549h-137q-10 0 -10 12zM342 879h414v82q0 106 22 196q-4 -4 -14 -4q-37 0 -55.5 20.5t-32.5 59.5q-35 104 -127 104q-23 0 -52.5 -11t-70.5 -57t-61 -120q-23 -86 -23 -246v-24z" />
<glyph unicode="&#xfb04;" horiz-adv-x="1669" d="M35 809v27q0 41 47 41h100q0 221 54 321q41 78 120.5 136.5t175.5 58.5q109 0 187 -36t104 -73q29 51 115 97t168 46q61 0 138 -13t108 -34q23 4 44 14.5l41 20.5l27 15q27 0 27 -21q-2 -82 -2 -215v-944l-2 -2q0 -121 25.5 -150.5t117.5 -36.5q8 -8 8 -32.5t-8 -34.5 q-176 4 -223 4q-31 0 -203 -4q-8 10 -8 34.5t8 32.5q80 4 100.5 34t20.5 153v903l2 25q2 23 0 26q-41 14 -57 55q-20 47 -69.5 74t-100.5 27q-47 0 -100.5 -46t-67.5 -124q-16 -92 -17 -203v-108h222q16 0 16 -13v-41q0 -27 -49 -26h-189v-549q0 -123 21.5 -151.5 t110.5 -35.5q10 -8 10 -32.5t-10 -34.5q-176 4 -211 4q-23 0 -195 -4q-10 10 -10 34.5t10 32.5q72 6 92.5 36t20.5 151v549h-410v-549q0 -121 22.5 -150.5t98.5 -36.5q10 -8 10 -32.5t-10 -34.5q-176 4 -201 4q-43 0 -215 -4q-8 10 -8 34.5t8 32.5q88 6 110.5 35t22.5 152 v549h-137q-10 0 -10 12zM344 877h410v81q0 90 22 191h-4q-59 0 -84 59q-18 45 -62 79t-102 34q-51 0 -94 -44t-68 -132q-18 -70 -18 -250v-18z" />
</font>
</defs>
</svg>
